<svg width="1440" height="863" fill="none" xmlns="http://www.w3.org/2000/svg"><path d="M60.037 488.737V510.3a2.738 2.738 0 0 1-2.737 2.737H35.737A2.738 2.738 0 0 0 33 515.775v13.45a2.738 2.738 0 0 0 2.737 2.738H57.3a2.738 2.738 0 0 1 2.737 2.737v21.562A2.738 2.738 0 0 0 62.775 559h13.45a2.738 2.738 0 0 0 2.738-2.738V534.7a2.738 2.738 0 0 1 2.738-2.737h21.561a2.738 2.738 0 0 0 2.738-2.738v-13.45a2.738 2.738 0 0 0-2.738-2.738H81.701a2.738 2.738 0 0 1-2.738-2.737v-21.563A2.738 2.738 0 0 0 76.226 486H62.774a2.738 2.738 0 0 0-2.738 2.737z" fill="#A0B8FD"/><path d="M226.333 822.35v10.633a1.35 1.35 0 0 1-1.35 1.35H214.35a1.35 1.35 0 0 0-1.35 1.35v6.634c0 .745.604 1.35 1.35 1.35h10.633c.746 0 1.35.604 1.35 1.35v10.633c0 .746.605 1.35 1.35 1.35h6.634a1.35 1.35 0 0 0 1.35-1.35v-10.633c0-.746.604-1.35 1.35-1.35h10.633a1.35 1.35 0 0 0 1.35-1.35v-6.634a1.35 1.35 0 0 0-1.35-1.35h-10.633a1.35 1.35 0 0 1-1.35-1.35V822.35a1.35 1.35 0 0 0-1.35-1.35h-6.634a1.35 1.35 0 0 0-1.35 1.35zM395.444 768.475v19.494a2.475 2.475 0 0 1-2.475 2.475h-19.494a2.476 2.476 0 0 0-2.475 2.475v12.162a2.476 2.476 0 0 0 2.475 2.475h19.494a2.475 2.475 0 0 1 2.475 2.475v19.494a2.476 2.476 0 0 0 2.475 2.475h12.162a2.476 2.476 0 0 0 2.475-2.475v-19.494a2.475 2.475 0 0 1 2.475-2.475h19.494a2.476 2.476 0 0 0 2.475-2.475v-12.162a2.476 2.476 0 0 0-2.475-2.475h-19.494a2.475 2.475 0 0 1-2.475-2.475v-19.494a2.476 2.476 0 0 0-2.475-2.475h-12.162a2.476 2.476 0 0 0-2.475 2.475z" fill="#92AEFF"/><path d="M110.889 710.937v31.014a3.938 3.938 0 0 1-3.938 3.938H75.938A3.937 3.937 0 0 0 72 749.826v19.348a3.937 3.937 0 0 0 3.938 3.937h31.013a3.938 3.938 0 0 1 3.938 3.938v31.013a3.938 3.938 0 0 0 3.937 3.938h19.348a3.938 3.938 0 0 0 3.937-3.938v-31.013a3.938 3.938 0 0 1 3.938-3.938h31.013a3.938 3.938 0 0 0 3.938-3.937v-19.348a3.938 3.938 0 0 0-3.938-3.937h-31.013a3.938 3.938 0 0 1-3.938-3.938v-31.014a3.937 3.937 0 0 0-3.937-3.937h-19.348a3.937 3.937 0 0 0-3.937 3.937z" fill="#809EF1"/><path d="M221.407 54.775v21.857a2.775 2.775 0 0 1-2.775 2.775h-21.857A2.775 2.775 0 0 0 194 82.182v13.636a2.775 2.775 0 0 0 2.775 2.775h21.857a2.775 2.775 0 0 1 2.775 2.775v21.857a2.775 2.775 0 0 0 2.775 2.775h13.636a2.775 2.775 0 0 0 2.775-2.775v-21.857a2.775 2.775 0 0 1 2.775-2.775h21.857A2.775 2.775 0 0 0 268 95.818V82.182a2.775 2.775 0 0 0-2.775-2.775h-21.857a2.775 2.775 0 0 1-2.775-2.775V54.775A2.775 2.775 0 0 0 237.818 52h-13.636a2.775 2.775 0 0 0-2.775 2.775z" fill="#ABBDF0"/><path d="M1389.19 186.575v36.035a4.577 4.577 0 0 1-4.58 4.575h-36.04a4.575 4.575 0 0 0-4.57 4.575v22.48a4.577 4.577 0 0 0 4.58 4.575h36.03c2.53 0 4.58 2.048 4.58 4.575v36.035a4.568 4.568 0 0 0 4.57 4.575h22.48c2.53 0 4.57-2.048 4.57-4.575V263.39a4.577 4.577 0 0 1 4.58-4.575h36.03c2.53 0 4.58-2.048 4.58-4.575v-22.48a4.577 4.577 0 0 0-4.58-4.575h-36.03a4.577 4.577 0 0 1-4.58-4.575v-36.035a4.568 4.568 0 0 0-4.57-4.575h-22.48a4.568 4.568 0 0 0-4.57 4.575z" fill="#FF6C7B"/><path d="M1145.56 487.575v12.406a1.58 1.58 0 0 1-1.58 1.575h-12.41c-.86 0-1.57.705-1.57 1.575v7.738c0 .87.71 1.575 1.58 1.575h12.4c.87 0 1.58.706 1.58 1.575v12.406c0 .87.7 1.575 1.57 1.575h7.74c.87 0 1.57-.705 1.57-1.575v-12.406c0-.869.71-1.575 1.58-1.575h12.4c.87 0 1.58-.705 1.58-1.575v-7.738c0-.87-.71-1.575-1.58-1.575h-12.4a1.58 1.58 0 0 1-1.58-1.575v-12.406c0-.87-.7-1.575-1.57-1.575h-7.74c-.87 0-1.57.705-1.57 1.575z" fill="#C7D6FF"/><path d="M1067.59 555.3v25.993c0 1.822-1.47 3.3-3.3 3.3h-25.99c-1.82 0-3.3 1.477-3.3 3.3v16.214c0 1.823 1.48 3.3 3.3 3.3h25.99c1.83 0 3.3 1.478 3.3 3.3V636.7c0 1.823 1.48 3.3 3.3 3.3h16.22c1.82 0 3.3-1.477 3.3-3.3v-25.993c0-1.822 1.47-3.3 3.3-3.3h25.99c1.82 0 3.3-1.477 3.3-3.3v-16.214c0-1.823-1.48-3.3-3.3-3.3h-25.99c-1.83 0-3.3-1.478-3.3-3.3V555.3c0-1.823-1.48-3.3-3.3-3.3h-16.22c-1.82 0-3.3 1.477-3.3 3.3z" fill="#9FB8FF"/><path d="M720.926 165.625v20.676a2.625 2.625 0 0 1-2.625 2.625h-20.676a2.625 2.625 0 0 0-2.625 2.625v12.898a2.625 2.625 0 0 0 2.625 2.625h20.676a2.625 2.625 0 0 1 2.625 2.625v20.676a2.625 2.625 0 0 0 2.625 2.625h12.898a2.625 2.625 0 0 0 2.625-2.625v-20.676a2.625 2.625 0 0 1 2.625-2.625h20.676a2.625 2.625 0 0 0 2.625-2.625v-12.898a2.625 2.625 0 0 0-2.625-2.625h-20.676a2.625 2.625 0 0 1-2.625-2.625v-20.676a2.625 2.625 0 0 0-2.625-2.625h-12.898a2.625 2.625 0 0 0-2.625 2.625z" fill="#EA5968"/><path d="M91.26 305.95v15.359a1.95 1.95 0 0 1-1.95 1.95H73.95a1.95 1.95 0 0 0-1.95 1.95v9.582a1.95 1.95 0 0 0 1.95 1.95h15.36a1.95 1.95 0 0 1 1.95 1.95v15.359a1.95 1.95 0 0 0 1.95 1.95h9.581a1.95 1.95 0 0 0 1.95-1.95v-15.359a1.95 1.95 0 0 1 1.95-1.95h15.359a1.95 1.95 0 0 0 1.95-1.95v-9.582a1.95 1.95 0 0 0-1.95-1.95h-15.359a1.95 1.95 0 0 1-1.95-1.95V305.95a1.95 1.95 0 0 0-1.95-1.95h-9.582a1.95 1.95 0 0 0-1.95 1.95zM490.963 163.325v18.313a2.325 2.325 0 0 1-2.325 2.325h-18.313a2.325 2.325 0 0 0-2.325 2.325v11.424a2.325 2.325 0 0 0 2.325 2.325h18.313a2.325 2.325 0 0 1 2.325 2.325v18.313a2.325 2.325 0 0 0 2.325 2.325h11.424a2.325 2.325 0 0 0 2.325-2.325v-18.313a2.325 2.325 0 0 1 2.325-2.325h18.313a2.325 2.325 0 0 0 2.325-2.325v-11.424a2.325 2.325 0 0 0-2.325-2.325h-18.313a2.325 2.325 0 0 1-2.325-2.325v-18.313a2.325 2.325 0 0 0-2.325-2.325h-11.424a2.325 2.325 0 0 0-2.325 2.325zM322.111 199.125v8.861c0 .621-.504 1.125-1.125 1.125h-8.861c-.621 0-1.125.504-1.125 1.125v5.528c0 .621.504 1.125 1.125 1.125h8.861c.621 0 1.125.504 1.125 1.125v8.861c0 .621.504 1.125 1.125 1.125h5.528c.621 0 1.125-.504 1.125-1.125v-8.861c0-.621.504-1.125 1.125-1.125h8.861c.621 0 1.125-.504 1.125-1.125v-5.528c0-.621-.504-1.125-1.125-1.125h-8.861a1.125 1.125 0 0 1-1.125-1.125v-8.861c0-.621-.504-1.125-1.125-1.125h-5.528c-.621 0-1.125.504-1.125 1.125z" fill="#9FB8FF"/><path d="M1096 123.025v15.95c0 1.118-.91 2.025-2.02 2.025h-15.95c-1.12 0-2.03.907-2.03 2.025v9.95c0 1.118.91 2.025 2.02 2.025h15.96c1.11 0 2.02.907 2.02 2.025v15.95c0 1.118.91 2.025 2.02 2.025h9.96c1.11 0 2.02-.907 2.02-2.025v-15.95c0-1.118.91-2.025 2.03-2.025h15.94c1.12 0 2.03-.907 2.03-2.025v-9.95c0-1.118-.91-2.025-2.03-2.025h-15.94c-1.12 0-2.03-.907-2.03-2.025v-15.95c0-1.118-.91-2.025-2.02-2.025h-9.96c-1.11 0-2.02.907-2.02 2.025z" fill="#FE8995"/><path d="M288.333 659.35v10.633a1.35 1.35 0 0 1-1.35 1.35H276.35a1.35 1.35 0 0 0-1.35 1.35v6.634c0 .745.604 1.35 1.35 1.35h10.633c.746 0 1.35.604 1.35 1.35v10.633c0 .746.605 1.35 1.35 1.35h6.634a1.35 1.35 0 0 0 1.35-1.35v-10.633c0-.746.604-1.35 1.35-1.35h10.633a1.35 1.35 0 0 0 1.35-1.35v-6.634a1.35 1.35 0 0 0-1.35-1.35h-10.633a1.35 1.35 0 0 1-1.35-1.35V659.35a1.35 1.35 0 0 0-1.35-1.35h-6.634a1.35 1.35 0 0 0-1.35 1.35z" fill="#C7D6FF"/><path d="M63.815 129.512v19.79a2.513 2.513 0 0 1-2.513 2.513h-19.79A2.512 2.512 0 0 0 39 154.327v12.346a2.512 2.512 0 0 0 2.513 2.512h19.79a2.513 2.513 0 0 1 2.512 2.513v19.79A2.512 2.512 0 0 0 66.327 194h12.346a2.512 2.512 0 0 0 2.512-2.512v-19.79a2.513 2.513 0 0 1 2.513-2.513h19.79a2.512 2.512 0 0 0 2.512-2.512v-12.346a2.512 2.512 0 0 0-2.512-2.512h-19.79a2.513 2.513 0 0 1-2.513-2.513v-19.79A2.512 2.512 0 0 0 78.673 127H66.327a2.512 2.512 0 0 0-2.512 2.512z" fill="#8DABFF"/><path d="M620.741 675.113v24.515a3.113 3.113 0 0 1-3.113 3.113h-24.516a3.112 3.112 0 0 0-3.112 3.112v15.294a3.112 3.112 0 0 0 3.113 3.112h24.515a3.113 3.113 0 0 1 3.113 3.113v24.515a3.112 3.112 0 0 0 3.112 3.113h15.294a3.112 3.112 0 0 0 3.112-3.113v-24.515a3.113 3.113 0 0 1 3.113-3.113h24.515a3.112 3.112 0 0 0 3.113-3.112v-15.294a3.112 3.112 0 0 0-3.113-3.112h-24.515a3.113 3.113 0 0 1-3.113-3.113v-24.516a3.112 3.112 0 0 0-3.112-3.112h-15.294a3.112 3.112 0 0 0-3.112 3.113z" fill="#A8BFFF"/><path d="M1340.89 473.912v15.064c0 1.057-.86 1.913-1.91 1.913h-15.07c-1.05 0-1.91.856-1.91 1.912v9.398c0 1.056.86 1.912 1.91 1.912h15.07c1.05 0 1.91.856 1.91 1.913v15.063c0 1.057.86 1.913 1.91 1.913h9.4c1.05 0 1.91-.856 1.91-1.912v-15.064c0-1.057.86-1.913 1.91-1.913h15.07c1.05 0 1.91-.856 1.91-1.912v-9.398c0-1.056-.86-1.912-1.91-1.912h-15.07c-1.05 0-1.91-.856-1.91-1.913v-15.064c0-1.056-.86-1.912-1.91-1.912h-9.4c-1.05 0-1.91.856-1.91 1.912z" fill="#EA5968"/><path d="M1259.96 22.337v26.289a3.333 3.333 0 0 1-3.33 3.337h-26.29A3.335 3.335 0 0 0 1227 55.3v16.4a3.335 3.335 0 0 0 3.34 3.337h26.29c1.84 0 3.33 1.494 3.33 3.337v26.288c0 1.844 1.5 3.338 3.34 3.338h16.4c1.84 0 3.34-1.494 3.34-3.338V78.374a3.333 3.333 0 0 1 3.33-3.337h26.29c1.85 0 3.34-1.494 3.34-3.338V55.302a3.335 3.335 0 0 0-3.34-3.338h-26.29a3.333 3.333 0 0 1-3.33-3.337V22.338c0-1.844-1.5-3.338-3.34-3.338h-16.4a3.342 3.342 0 0 0-3.34 3.337z" fill="#F65162"/><path d="M950.704 1.387v10.93c0 .765-.622 1.387-1.388 1.387h-10.928c-.767 0-1.388.62-1.388 1.387v6.818c0 .766.621 1.387 1.387 1.387h10.929c.766 0 1.388.622 1.388 1.388v10.928c0 .767.621 1.388 1.387 1.388h6.818c.766 0 1.387-.621 1.387-1.388V24.684c0-.767.622-1.388 1.388-1.388h10.928c.767 0 1.388-.62 1.388-1.387V15.09c0-.766-.621-1.387-1.388-1.387h-10.928a1.388 1.388 0 0 1-1.388-1.388V1.387c0-.766-.621-1.387-1.387-1.387h-6.818c-.766 0-1.387.621-1.387 1.387z" fill="#FD6D7C"/><path d="M1361.56 643.588v20.38a2.59 2.59 0 0 1-2.59 2.588h-20.38a2.589 2.589 0 0 0-2.59 2.587v12.714a2.589 2.589 0 0 0 2.59 2.587h20.38a2.59 2.59 0 0 1 2.59 2.588v20.38a2.58 2.58 0 0 0 2.58 2.588h12.72a2.58 2.58 0 0 0 2.58-2.588v-20.38a2.59 2.59 0 0 1 2.59-2.588h20.38c1.43 0 2.59-1.158 2.59-2.587v-12.714a2.589 2.589 0 0 0-2.59-2.587h-20.38a2.59 2.59 0 0 1-2.59-2.588v-20.38a2.58 2.58 0 0 0-2.58-2.588h-12.72a2.58 2.58 0 0 0-2.58 2.588z" fill="#FF6D7C"/><path d="M1236.19 769.562v28.061c0 1.967-1.6 3.562-3.57 3.562h-28.06a3.559 3.559 0 0 0-3.56 3.563v17.504a3.559 3.559 0 0 0 3.56 3.563h28.06c1.97 0 3.57 1.595 3.57 3.562v28.061a3.559 3.559 0 0 0 3.56 3.562h17.5c1.97 0 3.56-1.595 3.56-3.562v-28.061c0-1.967 1.6-3.562 3.57-3.562h28.06c1.97 0 3.56-1.595 3.56-3.563v-17.504a3.559 3.559 0 0 0-3.56-3.563h-28.06a3.567 3.567 0 0 1-3.57-3.562v-28.061a3.559 3.559 0 0 0-3.56-3.562h-17.5a3.559 3.559 0 0 0-3.56 3.562zM809.259 796.95v15.359a1.95 1.95 0 0 1-1.95 1.95H791.95a1.95 1.95 0 0 0-1.95 1.95v9.582a1.95 1.95 0 0 0 1.95 1.95h15.359a1.95 1.95 0 0 1 1.95 1.95v15.359a1.95 1.95 0 0 0 1.95 1.95h9.582a1.95 1.95 0 0 0 1.95-1.95v-15.359a1.95 1.95 0 0 1 1.95-1.95h15.359a1.95 1.95 0 0 0 1.95-1.95v-9.582a1.95 1.95 0 0 0-1.95-1.95h-15.359a1.95 1.95 0 0 1-1.95-1.95V796.95a1.95 1.95 0 0 0-1.95-1.95h-9.582a1.95 1.95 0 0 0-1.95 1.95z" fill="#EA5968"/><path d="M418.111 1.125v8.861c0 .621-.504 1.125-1.125 1.125h-8.861c-.621 0-1.125.504-1.125 1.125v5.528c0 .621.504 1.125 1.125 1.125h8.861c.621 0 1.125.504 1.125 1.125v8.861c0 .621.504 1.125 1.125 1.125h5.528c.621 0 1.125-.504 1.125-1.125v-8.861c0-.621.504-1.125 1.125-1.125h8.861c.621 0 1.125-.504 1.125-1.125v-5.528c0-.621-.504-1.125-1.125-1.125h-8.861a1.125 1.125 0 0 1-1.125-1.125V1.125c0-.621-.504-1.125-1.125-1.125h-5.528c-.621 0-1.125.504-1.125 1.125z" fill="#9FB8FF"/><path d="M653.481 833.163v9.156c0 .642-.52 1.162-1.162 1.162h-9.156c-.643 0-1.163.521-1.163 1.163v5.712c0 .642.52 1.163 1.163 1.163h9.156c.642 0 1.162.52 1.162 1.162v9.156c0 .643.521 1.163 1.163 1.163h5.712c.642 0 1.163-.52 1.163-1.163v-9.156c0-.642.52-1.162 1.162-1.162h9.156c.643 0 1.163-.521 1.163-1.163v-5.712c0-.642-.52-1.163-1.163-1.163h-9.156c-.642 0-1.162-.52-1.162-1.162v-9.156c0-.643-.521-1.163-1.163-1.163h-5.712c-.642 0-1.163.52-1.163 1.163zM776.481 695.163v9.156c0 .642-.52 1.162-1.162 1.162h-9.157c-.642 0-1.162.521-1.162 1.163v5.712c0 .642.52 1.163 1.163 1.163h9.156c.642 0 1.162.52 1.162 1.162v9.157c0 .642.521 1.162 1.163 1.162h5.712c.642 0 1.163-.52 1.163-1.163v-9.156c0-.642.52-1.162 1.162-1.162h9.157c.642 0 1.162-.521 1.162-1.163v-5.712c0-.642-.52-1.163-1.163-1.163h-9.156c-.642 0-1.162-.52-1.162-1.162v-9.157c0-.642-.521-1.162-1.163-1.162h-5.712c-.642 0-1.163.52-1.163 1.163z" fill="#EA5968"/><path d="M1028.26 767.95v15.359c0 1.077-.87 1.95-1.95 1.95h-15.36c-1.08 0-1.95.873-1.95 1.95v9.582c0 1.077.87 1.95 1.95 1.95h15.36c1.08 0 1.95.873 1.95 1.95v15.359c0 1.077.87 1.95 1.95 1.95h9.58c1.08 0 1.95-.873 1.95-1.95v-15.359c0-1.077.87-1.95 1.95-1.95h15.36c1.08 0 1.95-.873 1.95-1.95v-9.582c0-1.077-.87-1.95-1.95-1.95h-15.36c-1.08 0-1.95-.873-1.95-1.95V767.95c0-1.077-.87-1.95-1.95-1.95h-9.58c-1.08 0-1.95.873-1.95 1.95z" fill="#FF8895"/></svg>