<svg width="1440" height="3491" fill="none" xmlns="http://www.w3.org/2000/svg"><rect width="16" height="60" rx="5" transform="matrix(0 1 1 0 240 1923)" fill="#809EF1"/><rect width="16" height="60" rx="5" transform="matrix(-1 0 0 1 278 1901)" fill="#809EF1"/><rect width="8" height="30" rx="2.5" transform="matrix(0 1 1 0 229.5 1884.5)" fill="#5A7EE2"/><rect width="8" height="30" rx="2.5" transform="matrix(-1 0 0 1 248.5 1873.5)" fill="#5A7EE2"/><rect width="8" height="30" rx="2.5" transform="matrix(0 1 1 0 258.5 1856.5)" fill="#B2C6FF"/><rect width="8" height="30" rx="2.5" transform="matrix(-1 0 0 1 277.5 1845.5)" fill="#B2C6FF"/><rect x="1388" y="80" width="16" height="60" rx="5" transform="rotate(90 1388 80)" fill="#F65162"/><rect x="1350" y="58" width="16" height="60" rx="5" fill="#F65162"/><rect x="1398.5" y="41.5" width="8" height="30" rx="2.5" transform="rotate(90 1398.5 41.5)" fill="#FD6D7C"/><rect x="1379.5" y="30.5" width="8" height="30" rx="2.5" fill="#FD6D7C"/><rect x="1369.5" y="13.5" width="8" height="30" rx="2.5" transform="rotate(90 1369.5 13.5)" fill="#FE8995"/><rect x="1350.5" y="2.5" width="8" height="30" rx="2.5" fill="#FE8995"/><rect width="16" height="60" rx="5" transform="matrix(0 1 1 0 70 80)" fill="#5A7EE2"/><rect width="16" height="60" rx="5" transform="matrix(-1 0 0 1 108 58)" fill="#5A7EE2"/><rect width="8" height="30" rx="2.5" transform="matrix(0 1 1 0 59.5 41.5)" fill="#809EF1"/><rect width="8" height="30" rx="2.5" transform="matrix(-1 0 0 1 78.5 30.5)" fill="#809EF1"/><rect width="8" height="30" rx="2.5" transform="matrix(0 1 1 0 88.5 13.5)" fill="#B2C6FF"/><rect width="8" height="30" rx="2.5" transform="matrix(-1 0 0 1 107.5 2.5)" fill="#B2C6FF"/><rect x="1170" y="1923" width="16" height="60" rx="5" transform="rotate(90 1170 1923)" fill="#F65162"/><rect x="1132" y="1901" width="16" height="60" rx="5" fill="#F65162"/><rect x="1180.5" y="1884.5" width="8" height="30" rx="2.5" transform="rotate(90 1180.5 1884.5)" fill="#FD6D7C"/><rect x="1161.5" y="1873.5" width="8" height="30" rx="2.5" fill="#FD6D7C"/><rect x="1151.5" y="1856.5" width="8" height="30" rx="2.5" transform="rotate(90 1151.5 1856.5)" fill="#FE8995"/><rect x="1132.5" y="1845.5" width="8" height="30" rx="2.5" fill="#FE8995"/><rect x="1387" y="3201" width="16" height="60" rx="5" transform="rotate(90 1387 3201)" fill="#F65162"/><rect x="1349" y="3179" width="16" height="60" rx="5" fill="#F65162"/><rect x="1397.5" y="3162.5" width="8" height="30" rx="2.5" transform="rotate(90 1397.5 3162.5)" fill="#FD6D7C"/><rect x="1378.5" y="3151.5" width="8" height="30" rx="2.5" fill="#FD6D7C"/><rect x="1368.5" y="3134.5" width="8" height="30" rx="2.5" transform="rotate(90 1368.5 3134.5)" fill="#FE8995"/><rect x="1349.5" y="3123.5" width="8" height="30" rx="2.5" fill="#FE8995"/><rect x="120" y="3113" width="16" height="60" rx="5" transform="rotate(90 120 3113)" fill="#5A7EE2"/><rect x="82" y="3091" width="16" height="60" rx="5" fill="#5A7EE2"/><rect x="130.5" y="3074.5" width="8" height="30" rx="2.5" transform="rotate(90 130.5 3074.5)" fill="#809EF1"/><rect x="111.5" y="3063.5" width="8" height="30" rx="2.5" fill="#809EF1"/><rect x="101.5" y="3046.5" width="8" height="30" rx="2.5" transform="rotate(90 101.5 3046.5)" fill="#B2C6FF"/><rect x="82.5" y="3035.5" width="8" height="30" rx="2.5" fill="#B2C6FF"/><rect width="16" height="60" rx="5" transform="matrix(0 1 1 0 1393 2485)" fill="#F65162"/><rect width="16" height="60" rx="5" transform="matrix(-1 0 0 1 1431 2463)" fill="#F65162"/><rect x="65" y="2485" width="16" height="60" rx="5" transform="rotate(90 65 2485)" fill="#5A7EE2"/><rect x="27" y="2463" width="16" height="60" rx="5" fill="#5A7EE2"/><rect width="16" height="60" rx="5" transform="matrix(0 1 1 0 1325 2280)" fill="#F65162"/><rect width="16" height="60" rx="5" transform="matrix(-1 0 0 1 1363 2258)" fill="#F65162"/><rect x="133" y="2280" width="16" height="60" rx="5" transform="rotate(90 133 2280)" fill="#5A7EE2"/><rect x="95" y="2258" width="16" height="60" rx="5" fill="#5A7EE2"/><rect width="16" height="60" rx="5" transform="matrix(0 1 1 0 1302 1735)" fill="#F65162"/><rect width="16" height="60" rx="5" transform="matrix(-1 0 0 1 1340 1713)" fill="#F65162"/><rect x="156" y="1735" width="16" height="60" rx="5" transform="rotate(90 156 1735)" fill="#5A7EE2"/><rect x="118" y="1713" width="16" height="60" rx="5" fill="#5A7EE2"/><rect width="16" height="60" rx="5" transform="matrix(0 1 1 0 1370 1190)" fill="#F65162"/><rect width="16" height="60" rx="5" transform="matrix(-1 0 0 1 1408 1168)" fill="#F65162"/><rect width="16" height="60" rx="5" transform="matrix(0 1 1 0 740 41)" fill="#F65162"/><rect width="16" height="60" rx="5" transform="matrix(-1 0 0 1 778 19)" fill="#F65162"/><rect x="88" y="1190" width="16" height="60" rx="5" transform="rotate(90 88 1190)" fill="#5A7EE2"/><rect x="50" y="1168" width="16" height="60" rx="5" fill="#5A7EE2"/><rect width="16" height="60" rx="5" transform="matrix(0 1 1 0 1336 645)" fill="#F65162"/><rect width="16" height="60" rx="5" transform="matrix(-1 0 0 1 1374 623)" fill="#F65162"/><rect x="122" y="645" width="16" height="60" rx="5" transform="rotate(90 122 645)" fill="#5A7EE2"/><rect x="84" y="623" width="16" height="60" rx="5" fill="#5A7EE2"/><rect x="610" y="28" width="16" height="60" rx="5" transform="rotate(90 610 28)" fill="#5A7EE2"/><rect x="572" y="6" width="16" height="60" rx="5" fill="#5A7EE2"/><rect width="16" height="60" rx="5" transform="matrix(0 1 1 0 1359 270)" fill="#F65162"/><rect width="16" height="60" rx="5" transform="matrix(-1 0 0 1 1397 248)" fill="#F65162"/><rect width="16" height="60" rx="5" transform="matrix(0 1 1 0 1152 27)" fill="#F65162"/><rect width="16" height="60" rx="5" transform="matrix(-1 0 0 1 1190 5)" fill="#F65162"/><rect x="99" y="270" width="16" height="60" rx="5" transform="rotate(90 99 270)" fill="#5A7EE2"/><rect x="61" y="248" width="16" height="60" rx="5" fill="#5A7EE2"/><rect width="8" height="30" rx="2.5" transform="matrix(0 1 1 0 1323.5 2676.5)" fill="#FD6D7C"/><rect width="8" height="30" rx="2.5" transform="matrix(-1 0 0 1 1342.5 2665.5)" fill="#FD6D7C"/><rect x="134.5" y="2676.5" width="8" height="30" rx="2.5" transform="rotate(90 134.5 2676.5)" fill="#809EF1"/><rect x="115.5" y="2665.5" width="8" height="30" rx="2.5" fill="#809EF1"/><rect width="8" height="30" rx="2.5" transform="matrix(0 1 1 0 1345.5 1926.5)" fill="#FD6D7C"/><rect width="8" height="30" rx="2.5" transform="matrix(-1 0 0 1 1364.5 1915.5)" fill="#FD6D7C"/><rect x="112.5" y="1926.5" width="8" height="30" rx="2.5" transform="rotate(90 112.5 1926.5)" fill="#809EF1"/><rect x="93.5" y="1915.5" width="8" height="30" rx="2.5" fill="#809EF1"/><rect width="8" height="30" rx="2.5" transform="matrix(0 1 1 0 1379.5 1381.5)" fill="#FD6D7C"/><rect width="8" height="30" rx="2.5" transform="matrix(-1 0 0 1 1398.5 1370.5)" fill="#FD6D7C"/><rect x="78.5" y="1381.5" width="8" height="30" rx="2.5" transform="rotate(90 78.5 1381.5)" fill="#809EF1"/><rect x="59.5" y="1370.5" width="8" height="30" rx="2.5" fill="#809EF1"/><rect width="8" height="30" rx="2.5" transform="matrix(0 1 1 0 1413.5 836.5)" fill="#FD6D7C"/><rect width="8" height="30" rx="2.5" transform="matrix(-1 0 0 1 1432.5 825.5)" fill="#FD6D7C"/><rect x="44.5" y="836.5" width="8" height="30" rx="2.5" transform="rotate(90 44.5 836.5)" fill="#809EF1"/><rect x="25.5" y="825.5" width="8" height="30" rx="2.5" fill="#809EF1"/><rect x="303.5" y="24.5" width="8" height="30" rx="2.5" transform="rotate(90 303.5 24.5)" fill="#809EF1"/><rect x="284.5" y="13.5" width="8" height="30" rx="2.5" fill="#809EF1"/><rect width="8" height="30" rx="2.5" transform="matrix(0 1 1 0 1401.5 2096.5)" fill="#FD6D7C"/><rect width="8" height="30" rx="2.5" transform="matrix(-1 0 0 1 1420.5 2085.5)" fill="#FD6D7C"/><rect x="56.5" y="2096.5" width="8" height="30" rx="2.5" transform="rotate(90 56.5 2096.5)" fill="#809EF1"/><rect x="37.5" y="2085.5" width="8" height="30" rx="2.5" fill="#809EF1"/><rect width="8" height="30" rx="2.5" transform="matrix(0 1 1 0 1389.5 1551.5)" fill="#FD6D7C"/><rect width="8" height="30" rx="2.5" transform="matrix(-1 0 0 1 1408.5 1540.5)" fill="#FD6D7C"/><rect x="68.5" y="1551.5" width="8" height="30" rx="2.5" transform="rotate(90 68.5 1551.5)" fill="#809EF1"/><rect x="49.5" y="1540.5" width="8" height="30" rx="2.5" fill="#809EF1"/><rect width="8" height="30" rx="2.5" transform="matrix(0 1 1 0 1311.5 1006.5)" fill="#FD6D7C"/><rect width="8" height="30" rx="2.5" transform="matrix(-1 0 0 1 1330.5 995.5)" fill="#FD6D7C"/><rect width="8" height="30" rx="2.5" transform="matrix(0 1 1 0 927.5 16.5)" fill="#FD6D7C"/><rect width="8" height="30" rx="2.5" transform="matrix(-1 0 0 1 946.5 5.5)" fill="#FD6D7C"/><rect x="146.5" y="1006.5" width="8" height="30" rx="2.5" transform="rotate(90 146.5 1006.5)" fill="#809EF1"/><rect x="127.5" y="995.5" width="8" height="30" rx="2.5" fill="#809EF1"/><rect width="8" height="30" rx="2.5" transform="matrix(0 1 1 0 1377.5 461.5)" fill="#FD6D7C"/><rect width="8" height="30" rx="2.5" transform="matrix(-1 0 0 1 1396.5 450.5)" fill="#FD6D7C"/><rect width="8" height="30" rx="2.5" transform="matrix(0 1 1 0 1052.5 78.5)" fill="#FD6D7C"/><rect width="8" height="30" rx="2.5" transform="matrix(-1 0 0 1 1071.5 67.5)" fill="#FD6D7C"/><rect x="80.5" y="461.5" width="8" height="30" rx="2.5" transform="rotate(90 80.5 461.5)" fill="#809EF1"/><rect x="61.5" y="450.5" width="8" height="30" rx="2.5" fill="#809EF1"/><rect x="450.5" y="79.5" width="8" height="30" rx="2.5" transform="rotate(90 450.5 79.5)" fill="#809EF1"/><rect x="431.5" y="68.5" width="8" height="30" rx="2.5" fill="#809EF1"/><rect width="8" height="30" rx="2.5" transform="matrix(0 1 1 0 1366.5 2831.5)" fill="#FE8995"/><rect width="8" height="30" rx="2.5" transform="matrix(-1 0 0 1 1385.5 2820.5)" fill="#FE8995"/><rect width="16" height="60" rx="5" transform="matrix(0 1 1 0 1172 3370)" fill="#F65162"/><rect width="16" height="60" rx="5" transform="matrix(-1 0 0 1 1210 3348)" fill="#F65162"/><rect x="268" y="3375" width="16" height="60" rx="5" transform="rotate(90 268 3375)" fill="#5A7EE2"/><rect x="230" y="3353" width="16" height="60" rx="5" fill="#5A7EE2"/></svg>