<svg width="1440" height="907" fill="none" xmlns="http://www.w3.org/2000/svg"><rect x="1388" y="87" width="16" height="60" rx="5" transform="rotate(90 1388 87)" fill="#F65162"/><rect x="1350" y="65" width="16" height="60" rx="5" fill="#F65162"/><rect x="1398.5" y="48.5" width="8" height="30" rx="2.5" transform="rotate(90 1398.5 48.5)" fill="#FD6D7C"/><rect x="1379.5" y="37.5" width="8" height="30" rx="2.5" fill="#FD6D7C"/><rect x="1369.5" y="20.5" width="8" height="30" rx="2.5" transform="rotate(90 1369.5 20.5)" fill="#FE8995"/><rect x="1350.5" y="9.5" width="8" height="30" rx="2.5" fill="#FE8995"/><rect width="16" height="60" rx="5" transform="matrix(0 1 1 0 70 87)" fill="#5A7EE2"/><rect width="16" height="60" rx="5" transform="matrix(-1 0 0 1 108 65)" fill="#5A7EE2"/><rect width="8" height="30" rx="2.5" transform="matrix(0 1 1 0 59.5 48.5)" fill="#809EF1"/><rect width="8" height="30" rx="2.5" transform="matrix(-1 0 0 1 78.5 37.5)" fill="#809EF1"/><rect width="8" height="30" rx="2.5" transform="matrix(0 1 1 0 88.5 20.5)" fill="#B2C6FF"/><rect width="8" height="30" rx="2.5" transform="matrix(-1 0 0 1 107.5 9.5)" fill="#B2C6FF"/><rect width="16" height="60" rx="5" transform="matrix(0 1 1 0 1139 779)" fill="#F65162"/><rect width="16" height="60" rx="5" transform="matrix(-1 0 0 1 1177 757)" fill="#F65162"/><rect width="16" height="60" rx="5" transform="matrix(0 1 1 0 839 65)" fill="#F65162"/><rect width="16" height="60" rx="5" transform="matrix(-1 0 0 1 877 43)" fill="#F65162"/><rect x="304" y="774" width="16" height="60" rx="5" transform="rotate(90 304 774)" fill="#5A7EE2"/><rect x="266" y="752" width="16" height="60" rx="5" fill="#5A7EE2"/><rect width="16" height="60" rx="5" transform="matrix(0 1 1 0 1336 652)" fill="#F65162"/><rect width="16" height="60" rx="5" transform="matrix(-1 0 0 1 1374 630)" fill="#F65162"/><rect x="122" y="652" width="16" height="60" rx="5" transform="rotate(90 122 652)" fill="#5A7EE2"/><rect x="84" y="630" width="16" height="60" rx="5" fill="#5A7EE2"/><rect x="566" y="27" width="16" height="60" rx="5" transform="rotate(90 566 27)" fill="#5A7EE2"/><rect x="528" y="5" width="16" height="60" rx="5" fill="#5A7EE2"/><rect width="16" height="60" rx="5" transform="matrix(0 1 1 0 1322 285)" fill="#F65162"/><rect width="16" height="60" rx="5" transform="matrix(-1 0 0 1 1360 263)" fill="#F65162"/><rect x="99" y="277" width="16" height="60" rx="5" transform="rotate(90 99 277)" fill="#5A7EE2"/><rect x="61" y="255" width="16" height="60" rx="5" fill="#5A7EE2"/><rect width="8" height="30" rx="2.5" transform="matrix(0 1 1 0 1334.5 832.5)" fill="#FD6D7C"/><rect width="8" height="30" rx="2.5" transform="matrix(-1 0 0 1 1353.5 821.5)" fill="#FD6D7C"/><rect x="129.5" y="846.5" width="8" height="30" rx="2.5" transform="rotate(90 129.5 846.5)" fill="#809EF1"/><rect x="110.5" y="835.5" width="8" height="30" rx="2.5" fill="#809EF1"/><rect width="8" height="30" rx="2.5" transform="matrix(0 1 1 0 1377.5 468.5)" fill="#FD6D7C"/><rect width="8" height="30" rx="2.5" transform="matrix(-1 0 0 1 1396.5 457.5)" fill="#FD6D7C"/><rect width="8" height="30" rx="2.5" transform="matrix(0 1 1 0 1136.5 34.5)" fill="#FD6D7C"/><rect width="8" height="30" rx="2.5" transform="matrix(-1 0 0 1 1155.5 23.5)" fill="#FD6D7C"/><rect x="80.5" y="468.5" width="8" height="30" rx="2.5" transform="rotate(90 80.5 468.5)" fill="#809EF1"/><rect x="61.5" y="457.5" width="8" height="30" rx="2.5" fill="#809EF1"/><rect x="289.5" y="73.5" width="8" height="30" rx="2.5" transform="rotate(90 289.5 73.5)" fill="#809EF1"/><rect x="270.5" y="62.5" width="8" height="30" rx="2.5" fill="#809EF1"/></svg>