<svg width="1440" height="1573" fill="none" xmlns="http://www.w3.org/2000/svg"><rect x="1386" y="80" width="16" height="60" rx="5" transform="rotate(90 1386 80)" fill="#F65162"/><rect x="1348" y="58" width="16" height="60" rx="5" fill="#F65162"/><rect x="1396.5" y="41.5" width="8" height="30" rx="2.5" transform="rotate(90 1396.5 41.5)" fill="#FD6D7C"/><rect x="1377.5" y="30.5" width="8" height="30" rx="2.5" fill="#FD6D7C"/><rect x="1367.5" y="13.5" width="8" height="30" rx="2.5" transform="rotate(90 1367.5 13.5)" fill="#FE8995"/><rect x="1348.5" y="2.5" width="8" height="30" rx="2.5" fill="#FE8995"/><rect width="16" height="60" rx="5" transform="matrix(0 1 1 0 68 80)" fill="#5A7EE2"/><rect width="16" height="60" rx="5" transform="matrix(-1 0 0 1 106 58)" fill="#5A7EE2"/><rect width="8" height="30" rx="2.5" transform="matrix(0 1 1 0 57.5 41.5)" fill="#809EF1"/><rect width="8" height="30" rx="2.5" transform="matrix(-1 0 0 1 76.5 30.5)" fill="#809EF1"/><rect width="8" height="30" rx="2.5" transform="matrix(0 1 1 0 86.5 13.5)" fill="#B2C6FF"/><rect width="8" height="30" rx="2.5" transform="matrix(-1 0 0 1 105.5 2.5)" fill="#B2C6FF"/><rect width="16" height="60" rx="5" transform="matrix(0 1 1 0 1368 1190)" fill="#F65162"/><rect width="16" height="60" rx="5" transform="matrix(-1 0 0 1 1406 1168)" fill="#F65162"/><rect width="16" height="60" rx="5" transform="matrix(0 1 1 0 1145 1495)" fill="#F65162"/><rect width="16" height="60" rx="5" transform="matrix(-1 0 0 1 1183 1473)" fill="#F65162"/><rect width="16" height="60" rx="5" transform="matrix(0 1 1 0 738 41)" fill="#F65162"/><rect width="16" height="60" rx="5" transform="matrix(-1 0 0 1 776 19)" fill="#F65162"/><rect x="86" y="1190" width="16" height="60" rx="5" transform="rotate(90 86 1190)" fill="#5A7EE2"/><rect x="48" y="1168" width="16" height="60" rx="5" fill="#5A7EE2"/><rect x="310" y="1487" width="16" height="60" rx="5" transform="rotate(90 310 1487)" fill="#5A7EE2"/><rect x="272" y="1465" width="16" height="60" rx="5" fill="#5A7EE2"/><rect width="16" height="60" rx="5" transform="matrix(0 1 1 0 1334 645)" fill="#F65162"/><rect width="16" height="60" rx="5" transform="matrix(-1 0 0 1 1372 623)" fill="#F65162"/><rect x="120" y="645" width="16" height="60" rx="5" transform="rotate(90 120 645)" fill="#5A7EE2"/><rect x="82" y="623" width="16" height="60" rx="5" fill="#5A7EE2"/><rect x="608" y="28" width="16" height="60" rx="5" transform="rotate(90 608 28)" fill="#5A7EE2"/><rect x="570" y="6" width="16" height="60" rx="5" fill="#5A7EE2"/><rect width="16" height="60" rx="5" transform="matrix(0 1 1 0 1357 270)" fill="#F65162"/><rect width="16" height="60" rx="5" transform="matrix(-1 0 0 1 1395 248)" fill="#F65162"/><rect width="16" height="60" rx="5" transform="matrix(0 1 1 0 1150 27)" fill="#F65162"/><rect width="16" height="60" rx="5" transform="matrix(-1 0 0 1 1188 5)" fill="#F65162"/><rect x="97" y="270" width="16" height="60" rx="5" transform="rotate(90 97 270)" fill="#5A7EE2"/><rect x="59" y="248" width="16" height="60" rx="5" fill="#5A7EE2"/><rect width="8" height="30" rx="2.5" transform="matrix(0 1 1 0 1377.5 1381.5)" fill="#FD6D7C"/><rect width="8" height="30" rx="2.5" transform="matrix(-1 0 0 1 1396.5 1370.5)" fill="#FD6D7C"/><rect x="76.5" y="1381.5" width="8" height="30" rx="2.5" transform="rotate(90 76.5 1381.5)" fill="#809EF1"/><rect x="57.5" y="1370.5" width="8" height="30" rx="2.5" fill="#809EF1"/><rect width="8" height="30" rx="2.5" transform="matrix(0 1 1 0 1411.5 836.5)" fill="#FD6D7C"/><rect width="8" height="30" rx="2.5" transform="matrix(-1 0 0 1 1430.5 825.5)" fill="#FD6D7C"/><rect x="42.5" y="836.5" width="8" height="30" rx="2.5" transform="rotate(90 42.5 836.5)" fill="#809EF1"/><rect x="23.5" y="825.5" width="8" height="30" rx="2.5" fill="#809EF1"/><rect x="301.5" y="24.5" width="8" height="30" rx="2.5" transform="rotate(90 301.5 24.5)" fill="#809EF1"/><rect x="282.5" y="13.5" width="8" height="30" rx="2.5" fill="#809EF1"/><rect width="8" height="30" rx="2.5" transform="matrix(0 1 1 0 1344.5 1551.5)" fill="#FD6D7C"/><rect width="8" height="30" rx="2.5" transform="matrix(-1 0 0 1 1363.5 1540.5)" fill="#FD6D7C"/><rect x="122.5" y="1546.5" width="8" height="30" rx="2.5" transform="rotate(90 122.5 1546.5)" fill="#809EF1"/><rect x="103.5" y="1535.5" width="8" height="30" rx="2.5" fill="#809EF1"/><rect width="8" height="30" rx="2.5" transform="matrix(0 1 1 0 1309.5 1006.5)" fill="#FD6D7C"/><rect width="8" height="30" rx="2.5" transform="matrix(-1 0 0 1 1328.5 995.5)" fill="#FD6D7C"/><rect width="8" height="30" rx="2.5" transform="matrix(0 1 1 0 925.5 16.5)" fill="#FD6D7C"/><rect width="8" height="30" rx="2.5" transform="matrix(-1 0 0 1 944.5 5.5)" fill="#FD6D7C"/><rect x="144.5" y="1006.5" width="8" height="30" rx="2.5" transform="rotate(90 144.5 1006.5)" fill="#809EF1"/><rect x="125.5" y="995.5" width="8" height="30" rx="2.5" fill="#809EF1"/><rect width="8" height="30" rx="2.5" transform="matrix(0 1 1 0 1375.5 461.5)" fill="#FD6D7C"/><rect width="8" height="30" rx="2.5" transform="matrix(-1 0 0 1 1394.5 450.5)" fill="#FD6D7C"/><rect width="8" height="30" rx="2.5" transform="matrix(0 1 1 0 1050.5 78.5)" fill="#FD6D7C"/><rect width="8" height="30" rx="2.5" transform="matrix(-1 0 0 1 1069.5 67.5)" fill="#FD6D7C"/><rect x="78.5" y="461.5" width="8" height="30" rx="2.5" transform="rotate(90 78.5 461.5)" fill="#809EF1"/><rect x="59.5" y="450.5" width="8" height="30" rx="2.5" fill="#809EF1"/><rect x="448.5" y="79.5" width="8" height="30" rx="2.5" transform="rotate(90 448.5 79.5)" fill="#809EF1"/><rect x="429.5" y="68.5" width="8" height="30" rx="2.5" fill="#809EF1"/></svg>