<svg width="17" height="17" fill="none" xmlns="http://www.w3.org/2000/svg"><path d="M8.558.536c1.555 0 2.933.381 4.136 1.144 1.203.748 2.097 1.687 2.684 2.816.587 1.13.88 2.317.88 3.564 0 3.359-1.232 5.038-3.696 5.038-.807 0-1.489-.169-2.046-.506a2.84 2.84 0 0 1-1.144-1.386c-.528.616-1.217.924-2.068.924-1.012 0-1.826-.337-2.442-1.012-.601-.675-.902-1.547-.902-2.618 0-1.07.3-1.943.902-2.618.616-.675 1.43-1.012 2.442-1.012.748 0 1.379.242 1.892.726v-.462h3.344v5.192c0 .88.323 1.32.968 1.32.484 0 .88-.279 1.188-.836.308-.572.462-1.489.462-2.75 0-1.833-.638-3.373-1.914-4.62-1.261-1.261-2.823-1.892-4.686-1.892-1.95 0-3.593.667-4.928 2.002C2.31 4.885 1.65 6.535 1.65 8.5c0 2.01.69 3.674 2.068 4.994 1.379 1.305 3.124 1.958 5.236 1.958 1.203 0 2.251-.147 3.146-.44v1.078c-.91.25-1.958.374-3.146.374-2.405 0-4.407-.755-6.006-2.266C1.349 12.702.55 10.803.55 8.5c0-2.215.763-4.092 2.288-5.632C4.378 1.313 6.285.536 8.558.536zm-.99 8.712c.176.19.403.286.682.286s.499-.095.66-.286c.176-.19.264-.44.264-.748s-.088-.557-.264-.748c-.161-.19-.381-.286-.66-.286a.886.886 0 0 0-.682.286c-.176.19-.264.44-.264.748s.088.557.264.748z" fill="#fff"/></svg>