<svg width="1440" height="246" fill="none" xmlns="http://www.w3.org/2000/svg"><path d="M1275.29 146.901a2.502 2.502 0 0 1-1.29 3.289 2.501 2.501 0 0 1-3.29-1.299l4.58-1.99zm-33.4-70.706-2.43-.6a2.504 2.504 0 0 1 2.22-1.891c1.07-.09 2.08.512 2.51 1.496l-2.3.995zm-30.6 123.983 2.42.6a2.495 2.495 0 0 1-2.36 1.9 2.51 2.51 0 0 1-2.46-1.775l2.4-.725zM1188.21 124l-2.16-1.267a2.5 2.5 0 0 1 4.55.542l-2.39.725zm-14.05 23.896 2.15 1.267a2.5 2.5 0 0 1-2.15 1.233v-2.5zm-83.29 0v2.5a2.5 2.5 0 0 1-2.46-2.048l2.46-.452zM1064.28 3l-2.44-.55a2.497 2.497 0 0 1 2.49-1.95c1.18.025 2.19.88 2.4 2.049l-2.45.451zm-54.19 240 2.44.551a2.515 2.515 0 0 1-2.4 1.949 2.496 2.496 0 0 1-2.46-1.862l2.42-.638zm-35.626-134.938-2.259-1.072a2.5 2.5 0 0 1 4.676.434l-2.417.638zm-32.614 68.714 2.259 1.072a2.502 2.502 0 0 1-4.362.28l2.103-1.352zm-20.667-27.528a2.5 2.5 0 1 1 4.206-2.704l-4.206 2.704zm349.527-.357L1239.6 77.19l4.59-1.99 31.1 71.701-4.58 1.99zm-26.39-72.097-30.61 123.984-4.85-1.199 30.6-123.983 4.86 1.198zm-35.43 124.109-23.08-76.178 4.79-1.45 23.08 76.179-4.79 1.449zm-18.53-75.636-14.05 23.896-4.31-2.534 14.05-23.896 4.31 2.534zm-16.2 25.129h-83.29v-5h83.29v5zm-85.75-2.048L1061.82 3.451l4.91-.902 26.6 144.896-4.92.903zm-21.7-144.797-54.18 240-4.88-1.102 54.19-240 4.87 1.102zm-59.04 240.087L972.046 108.7l4.835-1.276 35.619 134.938-4.83 1.276zm-30.948-134.504-32.613 68.714-4.517-2.144 32.613-68.714 4.517 2.144zm-36.975 68.994-18.564-28.88 4.206-2.704 18.564 28.88-4.206 2.704z" fill="#DA3849"/><path d="M1440 145.396h2.5v5h-2.5v-5zm-167 5a2.5 2.5 0 0 1 0-5v5zm-1273 0h-2.5v-5H0v5zm923.5-5a2.5 2.5 0 0 1 0 5v-5zm516.5 5h-167v-5h167v5zm-1440-5h923.5v5H0v-5z" fill="#3250A5"/></svg>