<svg width="34" height="34" fill="none" xmlns="http://www.w3.org/2000/svg"><path d="M22.313 17a5.312 5.312 0 1 1-10.625 0c0-.303.031-.599.086-.885H9.917v7.078c0 .492.398.89.89.89h12.387a.89.89 0 0 0 .89-.89v-7.078h-1.858c.055.287.087.582.087.885zM17 20.542a3.545 3.545 0 0 0 3.542-3.544 3.545 3.545 0 0 0-3.544-3.541A3.543 3.543 0 1 0 17 20.542zm4.25-7.26h2.123a.533.533 0 0 0 .533-.532v-2.123a.533.533 0 0 0-.533-.533H21.25a.533.533 0 0 0-.533.533v2.123c.002.292.24.531.533.531zM17 0a17 17 0 1 0 0 34 17 17 0 0 0 0-34zm8.854 23.887a1.973 1.973 0 0 1-1.967 1.967H10.113a1.973 1.973 0 0 1-1.967-1.967V10.113c0-1.082.885-1.967 1.967-1.967h13.774c1.082 0 1.967.885 1.967 1.967v13.774z" fill="#3250A5"/></svg>