<svg width="160" height="50" fill="none" xmlns="http://www.w3.org/2000/svg"><path fill-rule="evenodd" clip-rule="evenodd" d="M134.013.02c-1.554.067-3.716.387-5.137.76a24.941 24.941 0 0 0-9.805 5.074c-.81.68-2.107 1.962-2.809 2.78-.853.995-.849 1.028.016.143 1.233-1.26 2.331-2.183 3.689-3.098a23.076 23.076 0 0 1 16.877-3.608c2.06.358 3.825.908 5.744 1.792a23.384 23.384 0 0 1 7.26 5.272 23.336 23.336 0 0 1 5.648 10.696c.755 3.273.761 6.913.018 10.232a22.965 22.965 0 0 1-3.75 8.435c-2.212 3.119-5.233 5.703-8.609 7.367-2.967 1.461-5.936 2.218-9.33 2.38-2.786.131-5.795-.308-8.5-1.242-3.557-1.228-6.783-3.338-9.438-6.173-.392-.418-.446-.451-.16-.098 3.927 4.857 9.595 8.108 15.669 8.99 1.258.183 2.529.278 3.692.278a24.807 24.807 0 0 0 17.638-7.349c4.058-4.082 6.543-9.333 7.146-15.107.347-3.316-.019-6.896-1.032-10.103-.988-3.124-2.527-5.93-4.669-8.512-.65-.784-2.292-2.432-3.062-3.074-2.868-2.39-5.973-4.02-9.519-4.998-2.293-.631-5.109-.943-7.577-.837zm-1.347 2.798c-1.296.083-3.036.344-4.18.628-.773.192-2.296.694-2.96.976-3.062 1.3-5.586 3.21-7.679 5.808-1.976 2.454-3.451 5.567-4.165 8.79-.426 1.925-.588 3.412-.588 5.403 0 2.102.244 4.016.78 6.12.734 2.877 2.205 5.832 4.054 8.141.242.302.44.56.44.573 0 .048-.842-.814-1.335-1.366a22.994 22.994 0 0 1-2.527-3.48c-1.887-3.262-2.956-6.82-3.293-10.962-.061-.753-.061-2.96 0-3.723.134-1.663.425-3.406.827-4.945.086-.327.155-.653.155-.725-.001-.185-.158-.502-.322-.646-.187-.165-.377-.221-.677-.202-.451.029-.555.141-1.249 1.345-1.057 1.835-2.014 4.096-2.617 6.184-.426 1.472-.631 2.387-.838 3.73-.067.432-.129.824-.139.873l-.019.088h-3.222c-1.795 0-3.222.015-3.222.034 0 .073-.57.983-.81 1.292-.734.946-1.67 1.642-2.66 1.98a6.846 6.846 0 0 1-4.034.128c-.666-.183-1.103-.384-1.72-.792-1.212-.8-2.22-2.114-2.785-3.632-.476-1.28-.589-2.996-.293-4.472.38-1.891 1.603-3.654 3.19-4.599 1.609-.956 3.939-1.134 5.705-.437.754.298 1.304.668 1.947 1.307.545.542.84.929 1.214 1.588l.265.468 2.803.001c2.345.001 2.803-.008 2.803-.052 0-.227-.709-1.997-1.045-2.612-.687-1.252-1.727-2.494-2.817-3.364-1.74-1.389-3.69-2.184-6.08-2.48-.503-.063-2.304-.064-2.813-.002-2.25.273-4.144 1.023-5.858 2.318-2.087 1.578-3.608 3.688-4.293 5.958-.632 2.093-.68 4.703-.125 6.886.522 2.058 1.713 4.046 3.341 5.58 1.984 1.87 4.188 2.92 6.857 3.271.258.034.838.072 1.29.084 1.563.041 2.845-.152 4.255-.643 1.947-.677 3.73-1.98 5.244-3.832.254-.31.871-1.255 1.119-1.713l.227-.42 1.277-.01c1.225-.012 1.283-.016 1.436-.098.2-.107.424-.354.479-.527.023-.073.087-.494.142-.936.195-1.558.425-2.676.889-4.31l.284-1 .024 1.47c.034 2.082.159 3.344.504 5.114.514 2.634 1.25 4.812 2.383 7.054.524 1.039.748 1.426 1.353 2.346.956 1.452 1.818 2.514 2.998 3.69 1.738 1.732 3.476 2.976 5.669 4.056 1.1.541 1.62.756 2.734 1.13 2.747.92 5.925 1.357 8.938 1.227.563-.024 1.092-.063 1.176-.087.336-.095.65-.529.648-.896-.001-.172-.125-.455-.265-.604-.222-.235-.355-.27-1.121-.306-3.377-.155-6.242-.852-8.968-2.183a22.845 22.845 0 0 1-2.107-1.22 18.628 18.628 0 0 1-4.296-4.096 18.844 18.844 0 0 1-1.914-3.135 18.758 18.758 0 0 1-1.079-2.665c-1.062-3.194-1.36-6.72-.857-10.131.581-3.936 2.154-7.505 4.539-10.293.218-.256.462-.526.542-.602.138-.13.135-.12-.06.157-1.802 2.574-2.844 5.236-3.299 8.434-.148 1.04-.19 1.68-.188 2.853.003 2.597.455 4.961 1.397 7.31.4.996.68 1.544.878 1.714.424.364 1.049.26 1.347-.224l.119-.191.024-1.218c.042-2.065.302-3.494.941-5.187l.196-.519h2.804V37.97h5.82v-7.29c0-6.395.008-7.289.058-7.289.032 0 1.562 1.888 3.4 4.195l3.343 4.195.385-.012.385-.01 3.378-4.241c1.859-2.333 3.39-4.23 3.403-4.217.014.014.025 3.32.025 7.347v7.322h5.82V10.652l-1.063.01-1.064.01-1.381 1.647c-.76.905-1.991 2.369-2.736 3.253a4182.933 4182.933 0 0 0-5.156 6.133l-1.014 1.206c-.313.373-.58.672-.595.666a34.34 34.34 0 0 1-.884-1.03l-1.363-1.621-2.557-3.042a4428.367 4428.367 0 0 0-3.499-4.159c-.873-1.036-1.54-1.83-2.045-2.434l-.531-.637h-2.129v10.894h-1.744c-1.234 0-1.789.014-1.899.047a1.143 1.143 0 0 0-.34.213c-.161.145-.217.244-.432.747-.339.796-.64 1.678-.823 2.41a8.785 8.785 0 0 0-.153.683c0 .174-.078-.038-.153-.416-.256-1.29-.336-2.163-.332-3.605.003-1.305.051-1.896.25-3.083.721-4.295 2.9-7.963 6.218-10.466 2.485-1.874 5.563-3.016 9.124-3.383 1.063-.11 1.117-.124 1.36-.369.197-.198.292-.403.292-.63 0-.342-.323-.776-.649-.873-.182-.053-1.624-.056-2.437-.005zM0 21.823v11.6h5.274V14.886H12.852v18.537H18.087V10.222H0v11.6zM20.52 10.27l.313.696c.161.355.534 1.184.828 1.842l.88 1.96.606 1.351c.505 1.133 1.3 2.909 2.089 4.664.232.517.62 1.381.86 1.92l.88 1.96a600.423 600.423 0 0 1 1.186 2.648l.24.533-.24.584c-.396.973-1.988 4.956-1.988 4.976 0 .01 1.22.018 2.71.018h2.711l.1-.245c.334-.815 1.723-4.197 2.371-5.77a19167.44 19167.44 0 0 0 3.69-8.976c.663-1.613 1.323-3.218 1.72-4.173.2-.485.438-1.067.527-1.294.09-.226.234-.579.321-.783.087-.205.304-.73.48-1.167l.323-.793-2.791.01-2.791.01-.351.92a84.248 84.248 0 0 0-.466 1.245c-.063.179-.263.717-.444 1.196-.181.48-.79 2.106-1.351 3.615-1.325 3.556-1.726 4.618-1.756 4.652-.013.016-.15-.266-.304-.627a319.33 319.33 0 0 0-.775-1.792 2303.796 2303.796 0 0 1-2.675-6.152c-.262-.604-.649-1.495-.858-1.98-.21-.485-.404-.93-.432-.99l-.05-.107h-2.791c-2.217 0-2.787.01-2.771.049zm28.118.045c-.02.052-.18.542-.354 1.088-.175.546-.483 1.496-.684 2.11-.645 1.968-1.971 6.039-3.066 9.406-.584 1.8-1.227 3.775-1.428 4.39-1.622 4.96-1.982 6.058-1.997 6.084-.01.016 1.211.029 2.712.029h2.73l.303-1.01.747-2.478.88-2.92c.24-.797.585-1.944.768-2.547.364-1.202.928-3.075 1.303-4.33.132-.443.404-1.342.605-2 .2-.657.393-1.296.429-1.42.035-.125.078-.218.096-.207.017.01.051.102.077.202.025.1.219.749.43 1.441.212.692.512 1.681.667 2.199a3821.03 3821.03 0 0 0 2.07 6.878 2961.967 2961.967 0 0 1 1.794 5.957l.066.215 2.727.01c2.439.01 2.724.004 2.704-.05-.013-.033-1.724-5.253-3.803-11.6l-3.779-11.541h-5.962l-.035.095zm15.78 11.507v11.6h3.917c3.88 0 4.388-.014 5.264-.14 1.2-.174 1.992-.407 2.91-.857 2.074-1.017 3.216-2.655 3.54-5.078.073-.544.061-1.87-.021-2.488-.375-2.805-1.803-4.574-4.378-5.424-1.349-.445-2.525-.59-4.776-.592h-1.22v-8.622H64.418v11.6zm7.817 1.505c.485.075 1.044.257 1.364.443.374.218.771.633.945.99.21.431.27.696.293 1.294.015.408.005.591-.044.8-.258 1.103-1.15 1.735-2.687 1.902-.208.023-.846.041-1.416.041h-1.037v-2.756c0-1.516.013-2.77.03-2.788.048-.05 2.138.01 2.552.074z" fill="#3250A5"/></svg>