<svg width="137" height="676" fill="none" xmlns="http://www.w3.org/2000/svg"><path d="M14.333 615.487v18.359a2.487 2.487 0 0 1-2.486 2.487h-18.36A2.487 2.487 0 0 0-9 638.82v11.36a2.487 2.487 0 0 0 2.487 2.487h18.36a2.487 2.487 0 0 1 2.486 2.487v18.359A2.487 2.487 0 0 0 16.82 676h11.36a2.487 2.487 0 0 0 2.487-2.487v-18.359a2.487 2.487 0 0 1 2.486-2.487h18.36A2.487 2.487 0 0 0 54 650.18v-11.36a2.487 2.487 0 0 0-2.487-2.487h-18.36a2.487 2.487 0 0 1-2.486-2.487v-18.359A2.487 2.487 0 0 0 28.18 613H16.82a2.487 2.487 0 0 0-2.487 2.487z" fill="#C7D6FF"/><path d="M79.63 555v23.63a3 3 0 0 1-3 3H53a3 3 0 0 0-3 3v14.74a3 3 0 0 0 3 3h23.63a3 3 0 0 1 3 3V629a3 3 0 0 0 3 3h14.74a3 3 0 0 0 3-3v-23.63c0-1.656 1.344-3 3-3H127a3 3 0 0 0 3-3v-14.74a3 3 0 0 0-3-3h-23.63c-1.656 0-3-1.344-3-3V555a3 3 0 0 0-3-3H82.63a3 3 0 0 0-3 3z" fill="#809EF1"/><path d="M50.963 447.447v18.069a2.448 2.448 0 0 1-2.447 2.447H30.447A2.447 2.447 0 0 0 28 470.41v11.18a2.447 2.447 0 0 0 2.447 2.447h18.069a2.448 2.448 0 0 1 2.447 2.447v18.069A2.447 2.447 0 0 0 53.41 507h11.18a2.447 2.447 0 0 0 2.447-2.447v-18.069a2.448 2.448 0 0 1 2.447-2.447h18.069A2.447 2.447 0 0 0 90 481.59v-11.18a2.447 2.447 0 0 0-2.447-2.447H69.484a2.448 2.448 0 0 1-2.447-2.447v-18.069A2.447 2.447 0 0 0 64.59 445H53.41a2.447 2.447 0 0 0-2.447 2.447z" fill="#8DABFF"/><path d="M20.667 401.776v13.114c0 .981-.796 1.777-1.777 1.777H5.776c-.98 0-1.776.795-1.776 1.776v8.114c0 .981.795 1.776 1.776 1.776H18.89c.981 0 1.777.796 1.777 1.777v13.114c0 .981.795 1.776 1.776 1.776h8.114c.981 0 1.776-.795 1.776-1.776V430.11c0-.981.796-1.777 1.777-1.777h13.114c.98 0 1.776-.795 1.776-1.776v-8.114c0-.981-.795-1.776-1.776-1.776H34.11a1.777 1.777 0 0 1-1.777-1.777v-13.114c0-.981-.795-1.776-1.776-1.776h-8.114c-.981 0-1.776.795-1.776 1.776z" fill="#C7D6FF"/><path d="M15.63 503.077v23.476a3.077 3.077 0 0 1-3.077 3.077h-23.476A3.077 3.077 0 0 0-14 532.707v14.586c0 1.7 1.378 3.077 3.077 3.077h23.476c1.699 0 3.077 1.378 3.077 3.077v23.476A3.077 3.077 0 0 0 18.707 580h14.586c1.7 0 3.077-1.378 3.077-3.077v-23.476a3.077 3.077 0 0 1 3.077-3.077h23.476c1.7 0 3.077-1.377 3.077-3.077v-14.586c0-1.7-1.378-3.077-3.077-3.077H39.447a3.077 3.077 0 0 1-3.077-3.077v-23.476A3.077 3.077 0 0 0 33.293 500H18.707a3.077 3.077 0 0 0-3.077 3.077z" stroke="#C7D6FF" stroke-width="3.077"/><path d="M9.63 5.115v23.4a3.115 3.115 0 0 1-3.116 3.115h-23.399A3.115 3.115 0 0 0-20 34.745v14.51a3.115 3.115 0 0 0 3.115 3.115h23.4a3.115 3.115 0 0 1 3.115 3.116v23.399A3.115 3.115 0 0 0 12.745 82h14.51a3.115 3.115 0 0 0 3.115-3.115v-23.4a3.115 3.115 0 0 1 3.116-3.115h23.399A3.115 3.115 0 0 0 60 49.255v-14.51a3.115 3.115 0 0 0-3.115-3.115h-23.4a3.115 3.115 0 0 1-3.115-3.116V5.115A3.115 3.115 0 0 0 27.255 2h-14.51A3.115 3.115 0 0 0 9.63 5.115z" stroke="#809EF1" stroke-width="3.115"/><path d="M60.667 71.475v13.716c0 .815-.66 1.476-1.476 1.476H45.475c-.814 0-1.475.66-1.475 1.475v8.716c0 .815.66 1.475 1.475 1.475h13.716c.815 0 1.476.66 1.476 1.476v13.716c0 .814.66 1.475 1.475 1.475h8.716c.815 0 1.475-.661 1.475-1.475V99.809c0-.815.66-1.476 1.476-1.476h13.716c.814 0 1.475-.66 1.475-1.475v-8.716c0-.815-.66-1.475-1.475-1.475H73.809c-.815 0-1.476-.66-1.476-1.476V71.475c0-.814-.66-1.475-1.475-1.475h-8.716c-.815 0-1.475.66-1.475 1.475z" fill="#809EF1"/><path d="M29.482 111.476v8.529c0 .816-.661 1.476-1.477 1.476h-8.529c-.815 0-1.476.661-1.476 1.477v5.084c0 .816.66 1.477 1.476 1.477h8.53c.815 0 1.476.66 1.476 1.476v8.529c0 .815.66 1.476 1.476 1.476h5.084c.816 0 1.477-.661 1.477-1.476v-8.529c0-.816.66-1.476 1.476-1.476h8.529c.815 0 1.476-.661 1.476-1.477v-5.084c0-.816-.66-1.477-1.476-1.477h-8.53c-.815 0-1.475-.66-1.475-1.476v-8.529c0-.815-.661-1.476-1.477-1.476h-5.084c-.816 0-1.476.661-1.476 1.476z" stroke="#C7D6FF" stroke-width="2.214"/><path d="M45.222 368.065v10.093c0 .588-.476 1.064-1.064 1.064H34.065c-.588 0-1.065.477-1.065 1.065v6.426c0 .588.477 1.065 1.065 1.065h10.093c.588 0 1.064.476 1.064 1.064v10.093c0 .588.477 1.065 1.065 1.065h6.426c.588 0 1.065-.477 1.065-1.065v-10.093c0-.588.476-1.064 1.064-1.064h10.094c.587 0 1.064-.477 1.064-1.065v-6.426c0-.588-.477-1.065-1.064-1.065H54.842a1.064 1.064 0 0 1-1.064-1.064v-10.093c0-.588-.477-1.065-1.065-1.065h-6.426c-.588 0-1.065.477-1.065 1.065z" stroke="#C7D6FF" stroke-width="1.597"/></svg>