<svg width="124" height="26" fill="none" xmlns="http://www.w3.org/2000/svg"><rect width="124" height="26" rx="13" fill="#3250A5"/><path d="M81.605 8.517A23.956 23.956 0 0 1 98.545 1.5H111c6.351 0 11.5 5.149 11.5 11.5s-5.149 11.5-11.5 11.5H65.621L81.605 8.517z" fill="#DA3849" stroke="#fff" stroke-width="3" stroke-linejoin="round"/><path d="M29 6.8V18h-2.192v-7.264l-3.152 5.2H23.4l-3.152-5.184V18H18.04V6.8h2.272l3.216 5.296 3.2-5.296H29zm3.735 8.048c.277 1.003 1.03 1.504 2.256 1.504.79 0 1.386-.267 1.792-.8l1.664.96c-.79 1.141-1.952 1.712-3.488 1.712-1.323 0-2.384-.4-3.184-1.2-.8-.8-1.2-1.808-1.2-3.024 0-1.205.395-2.208 1.184-3.008.79-.81 1.803-1.216 3.04-1.216 1.173 0 2.139.405 2.896 1.216.768.81 1.152 1.813 1.152 3.008 0 .267-.027.55-.08.848h-6.032zm-.032-1.6h4.08c-.117-.544-.363-.95-.736-1.216a2.052 2.052 0 0 0-1.248-.4c-.555 0-1.014.144-1.376.432-.363.277-.603.672-.72 1.184zM45.536 10H47.6v8h-2.064v-3.04h-3.184V18h-2.064v-8h2.064v3.024h3.184V10zm11.235-.224c1.184 0 2.187.41 3.008 1.232.821.81 1.232 1.808 1.232 2.992s-.41 2.187-1.232 3.008c-.822.81-1.824 1.216-3.008 1.216-1.003 0-1.877-.304-2.624-.912a4.089 4.089 0 0 1-1.44-2.352h-1.152V18H49.49v-8h2.064v3.024h1.168a4.083 4.083 0 0 1 1.44-2.336c.747-.608 1.616-.912 2.608-.912zm-1.552 5.808c.416.416.933.624 1.552.624.618 0 1.136-.208 1.552-.624.416-.416.624-.944.624-1.584 0-.64-.208-1.168-.624-1.584-.416-.416-.934-.624-1.552-.624-.619 0-1.136.208-1.552.624-.406.416-.608.944-.608 1.584 0 .64.203 1.168.608 1.584z" fill="#fff"/></svg>