<svg width="16" height="18" fill="none" xmlns="http://www.w3.org/2000/svg"><path d="M8 8.803c2.339 0 4.235-1.97 4.235-4.401S11.612 0 8 0C4.387 0 3.765 1.97 3.765 4.402c0 2.43 1.896 4.401 4.235 4.401zM0 15.524c0-.149 0-.042 0 0zM15.999 15.64c.002-.04 0-.28 0 0z" fill="#fff"/><path d="M15.99 15.346c-.078-4.235-.725-5.441-5.67-6.205 0 0-.697.759-2.32.759-1.623 0-2.319-.76-2.319-.76C.79 9.897.103 11.086.013 15.21c-.007.336-.01.354-.012.315v.445S1.18 18 8.002 18c6.82 0 7.998-2.031 7.998-2.031v-.33c-.001.025-.004-.022-.009-.293z" fill="#fff"/></svg>