<svg width="540" height="370" fill="none" xmlns="http://www.w3.org/2000/svg"><rect width="540" height="370" rx="15" fill="#002CA8" fill-opacity=".1"/><path d="M185.302 162.2c4.309 0 7.936 1.451 10.88 4.352 2.944 2.901 4.415 6.464 4.415 10.688s-1.471 7.787-4.415 10.688c-2.944 2.901-6.571 4.352-10.88 4.352h-7.872V207h-8.832v-44.8h16.704zm0 21.824c1.877 0 3.434-.64 4.672-1.92 1.237-1.323 1.856-2.944 1.856-4.864 0-1.963-.619-3.584-1.856-4.864-1.238-1.28-2.795-1.92-4.672-1.92h-7.872v13.568h7.872zM231.82 162.2h8.768V207h-8.768v-18.56h-16.64V207h-8.832v-44.8h8.832v17.792h16.64V162.2zm54.786 38.976c-4.523 4.48-10.027 6.72-16.512 6.72-6.485 0-11.989-2.24-16.512-6.72-4.48-4.523-6.72-10.048-6.72-16.576 0-6.528 2.24-12.032 6.72-16.512 4.523-4.523 10.027-6.784 16.512-6.784 6.485 0 11.989 2.261 16.512 6.784 4.523 4.48 6.784 9.984 6.784 16.512 0 6.528-2.261 12.053-6.784 16.576zm-26.816-6.016c2.773 2.731 6.208 4.096 10.304 4.096s7.531-1.365 10.304-4.096c2.773-2.773 4.16-6.293 4.16-10.56s-1.387-7.787-4.16-10.56c-2.773-2.773-6.208-4.16-10.304-4.16s-7.531 1.387-10.304 4.16c-2.773 2.773-4.16 6.293-4.16 10.56s1.387 7.787 4.16 10.56zm66.877-32.96v8.448h-12.096V207h-8.832v-36.352h-12.032V162.2h32.96zm40.064 38.976c-4.523 4.48-10.027 6.72-16.512 6.72-6.485 0-11.989-2.24-16.512-6.72-4.48-4.523-6.72-10.048-6.72-16.576 0-6.528 2.24-12.032 6.72-16.512 4.523-4.523 10.027-6.784 16.512-6.784 6.485 0 11.989 2.261 16.512 6.784 4.523 4.48 6.784 9.984 6.784 16.512 0 6.528-2.261 12.053-6.784 16.576zm-26.816-6.016c2.773 2.731 6.208 4.096 10.304 4.096s7.531-1.365 10.304-4.096c2.773-2.773 4.16-6.293 4.16-10.56s-1.387-7.787-4.16-10.56c-2.773-2.773-6.208-4.16-10.304-4.16s-7.531 1.387-10.304 4.16c-2.773 2.773-4.16 6.293-4.16 10.56s1.387 7.787 4.16 10.56z" fill="#3250A5"/></svg>