<svg width="101" height="84" fill="none" xmlns="http://www.w3.org/2000/svg"><path fill-rule="evenodd" clip-rule="evenodd" d="M24.204.66C7.593 2.785-3.448 19.456.984 35.725c1.057 3.884 2.656 6.833 6.438 11.875 2.767 3.69 5.031 6.843 5.031 7.008 0 .58-5.613 26.62-5.953 27.62-.34.994 1.705 2.293 2.448 1.556.645-.642 5.877-25.782 5.877-28.242 0-2.855-.961-4.734-4.753-9.294-4.686-5.635-6.52-9.922-6.933-16.204-.695-10.57 4.12-19.06 13.514-23.822 4.934-2.501 5.98-2.724 14.201-3.03 14.837-.552 23.464 2.083 30.849 9.423 8.074 8.026 10.643 18.41 6.543 26.45-1.118 2.194-2.024 4.618-2.014 5.39.01.77 1.228 3.333 2.708 5.696 1.48 2.362 2.515 4.578 2.3 4.922-.215.345-1.803 1.343-3.53 2.22-3.354 1.7-3.884 2.57-5.81 9.532-1.317 4.764-2.644 5.818-6.206 4.93-2.158-.539-3.609.84-2.278 2.163 1.408 1.4 6.977 1.12 8.708-.436.882-.795 2.16-3.784 2.901-6.794 1.129-4.575 1.657-5.512 3.546-6.29 3.233-1.33 5.549-3.739 5.549-5.77 0-.975-1.204-3.671-2.677-5.992l-2.675-4.217 1.814-3.39c.998-1.866 2.002-3.841 2.23-4.39.804-1.925 2.85 1.753 2.351 4.227-.895 4.446 4.86 7.311 7.926 3.945 1.485-1.63 1.731-4.496.454-5.281-.962-.591-.595-2.54 1.334-7.079l1.317-3.097 1.441 3.34c.933 2.161 1.943 3.339 2.864 3.339.784 0 1.869.707 2.412 1.572 2.076 3.303 8.089 1.067 8.089-3.01 0-2.138-2.652-4.849-4.744-4.849-.87 0-2.322.737-3.228 1.637-.906.9-1.747 1.52-1.87 1.375-1.394-1.642-2.05-4.079-1.3-4.824 1.157-1.15 1.094-3.882-.124-5.423-1.803-2.279-4.215-2.4-6.631-.336-2.125 1.816-2.19 2.06-1.244 4.66.862 2.368.794 3.258-.497 6.524-1.769 4.477-2.633 4.968-4.063 2.312-.584-1.083-1.672-2.162-2.42-2.398-.987-.312-1.455-1.549-1.715-4.531-.475-5.463-3.803-12.17-8.66-17.452C56.002 2.044 42.09-1.625 24.204.66zm.25 6.48c-1.444.474-3.712 1.87-5.039 3.103-1.327 1.232-3.347 2.795-4.49 3.473-4.218 2.503-5.717 5.915-6.957 15.833-.34 2.711-.18 3.34.848 3.34.72 0 1.265-.65 1.265-1.507 0-3.291.715-3.94 3.02-2.744 2.52 1.306 5.973 1.426 8.123.282 2.357-1.254 1.031-2.318-2.888-2.318-4.243 0-7.044-2.216-6.258-4.951.689-2.394 5.548-6.836 7.479-6.836 2.319 0 4.755 2.79 4.755 5.444 0 2.854 3.355 5.738 6.281 5.399 2.786-.323 2.63-2.523-.2-2.845-2.274-.26-2.42-.453-3.293-4.384-.279-1.255-1.571-3.27-2.873-4.479l-2.367-2.197 2.454-1.26c1.514-.779 3.874-1.17 6.166-1.023l3.714.238.253 3.143c.372 4.612 2.66 6.68 7.396 6.68 2.843 0 3.815-.298 3.815-1.165 0-1.13-1.462-1.698-5.534-2.152-1.666-.185-2.015-.684-2.222-3.173-.17-2.033.113-3.09.905-3.392 1.666-.635 7.105.984 9.442 2.811 1.104.864 2.601 1.57 3.327 1.57s2.359 1.033 3.63 2.296c4.049 4.024 2.58 9.024-2.828 9.621-3.131.347-3.194 2.526-.082 2.88 1.415.16 3.138-.365 4.514-1.376 2.764-2.03 3.079-2.034 3.079-.027 0 .884-.874 2.475-1.941 3.536-1.833 1.823-2.436 1.929-10.984 1.929-9.509 0-10.002.19-10.002 3.856 0 3.482-6.033 6.245-11.436 5.238-2.522-.47-2.795-.773-2.795-3.086 0-3.711 1.604-5.408 5.618-5.94 2.355-.313 3.474-.84 3.474-1.64 0-.891-.925-1.166-3.785-1.128-4.923.067-7.046 2.066-7.645 7.202-.56 4.807-1.65 4.787-8.408-.153-1.45-1.058-2.416.164-1.406 1.778 1.652 2.641 5.743 4.662 10.529 5.2 2.632.295 4.785.861 4.785 1.257 0 .395-1.156 2.028-2.57 3.627-2.392 2.708-2.588 3.365-2.85 9.531-.26 6.107-.168 6.601 1.186 6.345 1.234-.233 1.53-1.234 1.863-6.3.3-4.593.782-6.456 2.027-7.85.899-1.006 2.24-2.8 2.983-3.99.911-1.457 2.019-2.16 3.402-2.16 1.328 0 3.133-1.075 5.12-3.05l3.07-3.052v3.102c0 4.423-1.16 6.043-5.799 8.096-6.084 2.692-7.869 4.983-8.28 10.63-.318 4.377-.225 4.704 1.335 4.704 1.473 0 1.676-.452 1.676-3.753 0-4.73 1.323-6.606 6.094-8.646 6.075-2.598 7.64-4.788 8.004-11.213l.311-5.462h5.47c6.699 0 10.418-1.445 12.515-4.864 1.877-3.06 1.965-4.247.522-6.996-.589-1.12-1.302-3.269-1.587-4.774-.764-4.05-3.826-6.568-13.54-11.137-3.14-1.476-18.909-2.265-22.391-1.121zm62.84 17.55c.623 1.614-.627 2.82-2.03 1.959-1.195-.734-.644-3.19.715-3.19.462 0 1.053.554 1.315 1.232zm10.404 10.032c.172.883-.279 1.31-1.384 1.31-.901 0-1.639-.472-1.639-1.048 0-2.407 2.561-2.629 3.023-.262zm-16.729 6.47c.66 1.707-1.013 3.312-2.21 2.122-1.013-1.006-.386-3.353.895-3.353.462 0 1.054.554 1.315 1.231zM38.982 69.918c-.207.595-.887 3.848-1.51 7.228-.984 5.341-.984 6.204.003 6.58 1.613.615 1.762.319 2.877-5.729l1-5.425 3.735.261c2.932.205 3.734.004 3.734-.936 0-1.611-.597-1.892-5.369-2.521-3.133-.413-4.18-.286-4.47.542z" fill="#3250A5"/><path fill-rule="evenodd" clip-rule="evenodd" d="M24.454 7.14c-1.444.474-3.712 1.87-5.039 3.103-1.327 1.232-3.347 2.795-4.49 3.473-4.218 2.503-5.717 5.915-6.957 15.833-.34 2.71-.18 3.34.848 3.34.72 0 1.265-.65 1.265-1.508 0-3.29.715-3.94 3.02-2.744 2.52 1.306 5.973 1.427 8.123.283 2.357-1.254 1.03-2.318-2.888-2.318-4.243 0-7.044-2.217-6.258-4.951.689-2.395 5.548-6.836 7.479-6.836 2.319 0 4.755 2.789 4.755 5.443 0 2.855 3.355 5.738 6.281 5.4 2.786-.323 2.63-2.523-.2-2.845-2.274-.26-2.42-.453-3.293-4.385-.279-1.255-1.571-3.27-2.873-4.478l-2.367-2.197 2.454-1.26c1.514-.78 3.874-1.17 6.166-1.024l3.714.238.253 3.144c.372 4.612 2.66 6.679 7.396 6.679 2.843 0 3.815-.297 3.815-1.164 0-1.13-1.462-1.699-5.534-2.152-1.666-.186-2.015-.685-2.222-3.173-.17-2.033.113-3.09.905-3.392 1.666-.635 7.105.984 9.442 2.811 1.104.864 2.601 1.57 3.327 1.57s2.359 1.033 3.63 2.296c4.049 4.024 2.58 9.024-2.828 9.62-3.131.347-3.194 2.527-.082 2.88 1.415.161 3.138-.364 4.514-1.375 2.764-2.03 3.079-2.034 3.079-.028 0 .884-.874 2.476-1.941 3.536-1.833 1.823-2.436 1.93-10.984 1.93-9.509 0-10.002.19-10.002 3.855 0 3.482-6.033 6.246-11.436 5.239-2.522-.471-2.795-.773-2.795-3.086 0-3.712 1.604-5.408 5.618-5.94 2.355-.313 3.474-.84 3.474-1.64 0-.891-.925-1.166-3.785-1.128-4.923.067-7.046 2.066-7.645 7.202-.56 4.807-1.65 4.787-8.408-.153-1.45-1.059-2.416.164-1.406 1.778 1.652 2.641 5.743 4.662 10.529 5.2 2.632.295 4.785.861 4.785 1.257 0 .395-1.156 2.028-2.57 3.627-2.392 2.707-2.588 3.365-2.85 9.531-.26 6.107-.168 6.6 1.186 6.345 1.234-.234 1.53-1.234 1.863-6.3.3-4.593.782-6.456 2.027-7.85.899-1.006 2.24-2.8 2.983-3.99.911-1.457 2.019-2.16 3.402-2.16 1.328 0 3.133-1.076 5.12-3.051l3.07-3.051v3.102c0 4.422-1.16 6.043-5.799 8.095-6.084 2.693-7.869 4.984-8.28 10.631-.318 4.376-.225 4.704 1.335 4.704 1.473 0 1.676-.452 1.676-3.754 0-4.728 1.323-6.605 6.094-8.645 6.075-2.598 7.64-4.789 8.004-11.213l.311-5.462h5.47c6.699 0 10.418-1.445 12.515-4.864 1.877-3.06 1.965-4.248.522-6.996-.589-1.12-1.302-3.27-1.587-4.774-.764-4.05-3.826-6.569-13.54-11.137-3.14-1.476-18.909-2.266-22.391-1.122z" fill="#C7D6FF"/></svg>