<svg width="85" height="85" fill="none" xmlns="http://www.w3.org/2000/svg"><path fill-rule="evenodd" clip-rule="evenodd" d="M53.669 1.124c-4.674 1.54-9.729 5.148-12.21 8.714-1.026 1.474-2.079 2.68-2.339 2.68-.26 0-1.012-.593-1.67-1.316-2.234-2.459-8.18-4.167-13.369-3.842-10.512.659-18.343 8.726-18.359 18.915-.004 2.264.27 4.288.61 4.496.34.209.827 1.348 1.084 2.532.661 3.045 3.29 8.024 5.645 10.695 1.5 1.701 2.004 2.93 2.004 4.886v2.614l-6.03 1.918c-4.668 1.486-6.101 2.228-6.34 3.284C1.95 60-.33 83.732.041 84.33c.498.804 50.175.93 50.673.128.588-.948-2.414-27.694-3.205-28.551-.42-.456-3.308-1.678-6.419-2.717-5.643-1.883-5.656-1.893-5.864-4.347-.18-2.123.208-2.922 2.838-5.834 1.676-1.856 3.047-3.679 3.047-4.052 0-.372 1.346.558 2.99 2.067 2.628 2.411 7.68 5.27 11.201 6.338.7.212 1.169 1.01 1.169 1.993 0 1.294-.387 1.684-1.837 1.85-1.738.199-1.847.414-2.037 4.033-.123 2.353.07 3.824.501 3.824.458 0 .702 3.357.702 9.662 0 10.927.677 13.558 3.921 15.228 2.533 1.304 3.664 1.306 6.403.012 3.252-1.537 3.697-3.229 3.721-14.129.016-7.541.245-10.071 1.002-11.067 1.003-1.32 1.3-4.751.575-6.633-.24-.624-1.191-1.052-2.337-1.052-1.587 0-1.932-.282-1.932-1.574 0-1.31.643-1.806 3.864-2.976 13.594-4.935 19.833-20.232 13.5-33.1C77.338 2.913 64.654-2.5 53.668 1.123zm14.155 2.898c9.543 2.942 15.704 13.183 14.042 23.344-1.619 9.909-9.652 17.08-19.719 17.606C42.84 45.98 32.347 23.06 45.8 9.259c5.745-5.894 13.733-7.793 22.025-5.237zM54.801 6.67c-2.458.855-6.174 3.491-8.163 5.792-2.01 2.323-4.192 8.186-4.192 11.262 0 12.731 13.014 21.861 24.828 17.42 4.228-1.59 8.414-5.322 10.299-9.183 1.843-3.778 2.06-11.243.433-14.906C74.86 9.972 68.603 5.832 61.182 5.921c-2.408.028-5.279.366-6.38.75zm12.355 3.243c4.04 1.823 5.886 3.629 7.762 7.59 4.86 10.262-2.442 21.836-13.772 21.829-7.283-.005-13.04-4.29-15.06-11.209-3.636-12.451 9.218-23.56 21.07-18.21zM32.46 11.509c1.269.638 3.113 1.91 4.097 2.826 1.49 1.388 1.685 1.94 1.164 3.304-.344.9-.662 3.258-.708 5.24-.051 2.173-.38 3.596-.831 3.587-1.551-.03-3.845-2.46-4.72-4.997-.499-1.45-1.406-2.735-2.016-2.858-1.696-.341-11.525 3.057-16.296 5.634-2.34 1.264-4.428 2.125-4.641 1.913-.697-.695 1.247-6.605 3.012-9.155 1.754-2.535 4.84-4.818 8.523-6.304 2.698-1.09 9.527-.644 12.416.81zm36.74 3.953c-.645.774-.505 1.372.708 3.005 2.012 2.709 2.055 7.553.096 10.858-1.265 2.136-1.306 2.482-.385 3.242.862.712 1.234.602 2.273-.675 2.697-3.316 3.278-8.874 1.367-13.058-1.618-3.54-2.977-4.67-4.059-3.372zM29.551 24.32c.91 1.8 2.196 2.942 4.622 4.109 2.795 1.342 3.532 2.088 4.373 4.414.886 2.456.892 3.032.041 4.701-1.444 2.835-5.534 6.92-7.973 7.964-4.528 1.938-10.442.892-14.576-2.58-2.314-1.942-5.33-7.638-5.935-11.205l-.407-2.404 4.71-2.465c4.909-2.567 10.885-4.895 12.782-4.98.633-.027 1.64 1.016 2.363 2.446zm35.769 9.348c-.666.43-.663.772.017 1.698 1.03 1.4 3.322.78 3.013-.816-.237-1.223-1.795-1.676-3.03-.882zm-42.064 15.62c1.383.211 4.013-.003 5.844-.475l3.329-.86v3.216c0 3.207-.01 3.22-3.467 4.965l-3.468 1.75-3.545-1.731-3.544-1.731v-3.355c0-2.98.13-3.29 1.168-2.76.643.328 2.3.769 3.683.98zm39.105.359c.16 1.077-.132 1.436-1.169 1.436-1.015 0-1.382-.426-1.382-1.604 0-2.06 2.242-1.913 2.551.168zm4.127 5.425c0 1.225-.445 1.33-5.676 1.33s-5.677-.105-5.677-1.33.446-1.33 5.677-1.33c5.23 0 5.676.105 5.676 1.33zM15.065 68.37v13.963h-6.01c-7.097 0-6.512 1.64-4.913-13.776L5.26 57.772l4.735-1.63c2.604-.896 4.811-1.654 4.902-1.682.092-.029.167 6.23.167 13.91zm25.378-12.32c2.02.646 4.008 1.512 4.416 1.926.586.593 2.987 19.822 2.94 23.552-.007.65-1.5.81-6.187.665L35.434 82l-.18-13.873c-.144-10.998-.005-13.81.667-13.562.467.172 2.502.84 4.522 1.485zm-19.367 3.29c0 .127-.601.388-1.336.58-.997.259-1.335.02-1.335-.944 0-1.085.213-1.178 1.335-.58.735.392 1.336.816 1.336.944zM32.429 59c0 .94-.345 1.178-1.336.92-1.507-.393-1.751-1.244-.5-1.747 1.506-.605 1.836-.457 1.836.827zm32.724 10.653v9.925l-1.775 1.39c-1.148.9-2.268 1.243-3.172.974-3.145-.935-3.39-1.764-3.616-12.263l-.215-9.952h8.778v9.926zm-42.074-7.589c0 .188-.799 3.21-1.775 6.716l-1.777 6.374 1.77 3.59 1.768 3.59h-4.66V63.163l1.836-.668c2.178-.792 2.838-.892 2.838-.431zm9.35 10.741v9.53h-2.337c-1.286 0-2.338-.16-2.338-.355 0-.195.767-1.861 1.704-3.703l1.704-3.348-1.703-5.897c-.938-3.244-1.705-6.187-1.705-6.542 0-.401.879-.375 2.338.07l2.337.715v9.53zm-4.744 1.55c.008.915-.52 2.658-1.17 3.874l-1.184 2.21-1.293-2.854c-1.391-3.073-1.391-3.081.211-8.549l1.073-3.657 1.175 3.657c.647 2.012 1.181 4.405 1.188 5.32z" fill="#3250A5"/></svg>