<svg width="90" height="90" fill="none" xmlns="http://www.w3.org/2000/svg"><path fill-rule="evenodd" clip-rule="evenodd" d="M36.11 1.25c-4.384 1.99-6.269 5.115-6.269 10.397 0 4.885 1.211 7.14 5.348 9.957 1.966 1.34 3.133 1.594 6.452 1.407 2.228-.125 4.05-.139 4.05-.03 0 .107-.956 2.085-2.123 4.394-1.996 3.95-2.456 4.368-7.77 7.037-6.843 3.439-8.696 5.814-8.116 10.408.332 2.634.146 3.235-1.426 4.585-.994.855-2.067 2.658-2.385 4.007l-.577 2.452-.074-3.167c-.08-3.37-2.044-7.339-4.527-9.15-2.271-1.656-6.903-2.644-9.576-2.043-7.311 1.644-11.28 9.871-7.892 16.358l1.41 2.702-1.451 2.784C-.833 67.214-.213 70.634 3.05 73.645c2.471 2.28 2.49 2.342 2.49 8.22 0 6.026.822 8.135 3.17 8.135 2.306 0 3.17-2.122 3.17-7.792v-5.58h3.103c2.721 0 3.06.167 2.747 1.36-.518 1.98.972 5.929 2.93 7.767 1.047.983 2.924 1.73 4.901 1.953 2.72.307 3.584.072 5.72-1.555 1.382-1.055 3.354-3.63 4.382-5.722l1.867-3.804h19.428v3.776c0 4.213 1.473 6.754 4.958 8.555 6.04 3.122 12.651-1.815 12.651-9.446 0-2.608.17-2.885 1.76-2.885 1.73 0 1.762.097 1.762 5.58 0 5.67.863 7.793 3.17 7.793 2.347 0 3.169-2.11 3.169-8.135 0-5.878.02-5.94 2.49-8.22 3.02-2.787 3.846-6.378 2.214-9.645-.963-1.93-.973-2.482-.081-4.614 1.36-3.254 1.271-5.2-.362-7.876-1.896-3.107-3.84-4.016-9.485-4.435l-4.872-.36-.912-4.483c-2.473-12.16-12.55-24.727-19.827-24.727-2.047 0-2.335-.19-1.868-1.231.304-.678.664-2.657.8-4.4.342-4.383-1.954-8.286-6.108-10.38C42.62-.424 39.937-.487 36.11 1.25zm9.968 7.88c1.319 2.548.716 5.143-1.62 6.979-2.522 1.983-4.866 1.746-7.358-.743-1.785-1.785-2.067-2.508-1.698-4.353.244-1.217.948-2.77 1.565-3.452 2.365-2.61 7.396-1.745 9.111 1.569zm14.026 19.09c3.22 3.755 7.252 11.895 7.852 15.855l.453 2.991h-2.874c-2.722 0-2.914-.14-3.608-2.64-.404-1.45-.735-2.972-.737-3.38-.003-.409-.949-2.23-2.102-4.047-2.896-4.563-5.05-4.58-7.245-.058-1.44 2.967-2.175 3.548-8.508 6.725-6.611 3.317-7.01 3.426-8.628 2.367-.932-.61-1.696-1.282-1.696-1.493 0-1.614 2.278-3.525 7.067-5.931 5.577-2.803 5.613-2.839 8.41-8.397 1.545-3.071 3.36-5.892 4.034-6.268 1.703-.953 4.401.568 7.582 4.276zm-3.86 17.614c.009.981-.596 1.232-2.964 1.232h-2.974l1.742-1.19c.958-.653 2.016-1.641 2.352-2.195.514-.846.708-.853 1.222-.042.336.53.616 1.518.622 2.195zM15.788 48.93c2.245 2.42 2.244 5.427-.002 7.67-3.057 3.056-8.078 2.1-9.437-1.795-2.067-5.926 5.198-10.448 9.439-5.875zm67.511 5.285c.765 1.09.868 1.88.367 2.815-.653 1.22-2.04 1.299-23.053 1.299-26.172 0-25.489-.162-25.489 6.012 0 3.144-.592 5.012-3.33 10.522-3.633 7.307-5.236 8.63-7.329 6.047-1.202-1.483-1.146-1.718 1.893-7.957 2.966-6.09 3.131-6.749 3.131-12.497 0-3.782.319-6.387.845-6.913.627-.626 7.457-.845 26.374-.845 25.34 0 25.536.011 26.591 1.517zm-60.372 3.542c-.225.561-.392.394-.426-.426-.03-.742.136-1.157.37-.923.234.234.26.84.056 1.349zm.223 7.645c0 .406-.484 1.673-1.075 2.815l-1.074 2.077h-7c-6.28 0-7.08-.145-7.756-1.408-.535-1-.535-1.815 0-2.815.687-1.282 1.475-1.408 8.83-1.408 5.168 0 8.075.266 8.075.74zm60.575.669c.535 1 .535 1.815 0 2.815-.729 1.36-1.475 1.408-21.86 1.408H40.759v-5.631h21.106c20.385 0 21.131.048 21.86 1.408zm-15.496 13.7c0 2.386-.328 3.318-1.362 3.87-1.763.943-1.856.932-3.167-.376-.63-.631-1.106-2.296-1.106-3.871 0-2.757.008-2.766 2.817-2.766h2.818v3.143z" fill="#3250A5"/></svg>