<svg width="138" height="89" fill="none" xmlns="http://www.w3.org/2000/svg"><path d="M119.153 27h3.173v-4.765h9.517V19.06h-9.517v-3.177h7.138c4.373 0 7.931-3.562 7.931-7.94 0-4.38-3.558-7.942-7.931-7.942h-8.724a1.585 1.585 0 0 0-1.587 1.588v11.118h-4.758v3.176h4.758v3.177h-4.758v3.176h4.758V27zm3.173-23.824h7.138a4.767 4.767 0 0 1 4.758 4.765 4.767 4.767 0 0 1-4.758 4.765h-7.138v-9.53z" fill="#C7D6FF"/><path fill-rule="evenodd" clip-rule="evenodd" d="M89.714 3.754c-.567.684-.9 2.592-.742 4.24.22 2.298.707 2.996 2.09 2.996 1.467 0 1.853-.693 2.074-3.726.293-4.017-1.49-5.844-3.422-3.51zM77.688 6.622c-2.054 2.059 2.443 8.288 5.213 7.222 2.091-.804 1.698-2.68-1.13-5.396-2.687-2.58-3.133-2.78-4.083-1.826zm22.378 2.121c-2.456 2.569-2.517 2.812-1.063 4.268 1.452 1.457 1.702 1.382 4.393-1.314 2.413-2.42 2.672-3.076 1.685-4.269-1.595-1.926-2.025-1.813-5.015 1.315zm-89.442 3.333c-1.099.213-3.025 1.612-4.282 3.11l-2.285 2.721v49.446l-2.028.288C.145 67.91 0 68.384 0 74.257v6.327l6.863.452c6.382.42 7.033.656 9.307 3.372 3.479 4.155 8.538 5.385 13.826 3.361 2.514-.963 4.584-2.517 5.5-4.132l1.47-2.59h45.08l1.47 2.59c.915 1.615 2.985 3.17 5.499 4.132 5.289 2.024 10.35.794 13.823-3.361 2.016-2.412 3.246-3 7.054-3.372l4.611-.452.248-14.214.249-14.213-5.003-11.045c-5.276-11.65-6.854-14.029-10.145-15.29-1.209-.464-2.028-1.541-2.028-2.667 0-4.886-4.652-8.102-9.065-6.27-2.367.983-4.46 4.175-4.46 6.801 0 .954-1.11 1.313-4.057 1.313h-4.057v-3.896c0-4.262-2.082-7.317-6.005-8.812-2.147-.82-55.455-1.01-59.556-.215zm59.049 5.292c1.987 1.395 2.004 1.62 2.004 25.759v24.351H53.385c-16.512 0-18.636-.176-21.829-1.807-1.946-.994-4.583-1.808-5.86-1.808-1.278 0-3.915.814-5.86 1.808-1.946.994-5.278 1.807-7.404 1.807H8.565V43.127c0-24.14.017-24.364 2.005-25.759 2.997-2.105 56.105-2.105 59.103 0zm23.643 5.92c0 1.223-.644 1.711-2.254 1.711-2.364 0-2.968-1.635-1.243-3.364 1.401-1.404 3.497-.413 3.497 1.653zM25.2 22.656c-3.84 1.676-7.342 6.161-8.039 10.294-1.012 6.011 1.265 9.758 12.108 19.916 5.397 5.054 10.35 9.189 11.008 9.188 1.96-.004 20.732-18.215 22.06-21.402 2.823-6.774.043-14.315-6.438-17.46-4.66-2.262-8.145-2.289-12.432-.098-3.283 1.677-3.409 1.677-6.692 0-3.887-1.986-7.698-2.131-11.575-.438zm11.315 5.507c3.708 2.743 4.295 2.774 6.84.377 1.1-1.034 3.65-2.104 5.669-2.375 3.303-.444 3.986-.175 6.85 2.695 2.461 2.468 3.18 3.925 3.18 6.44 0 3.725-2.618 7.02-12.71 15.99l-6.19 5.5-8.606-7.964C21.436 39.468 19.78 36.168 22.692 31.17c3.236-5.554 8.756-6.755 13.823-3.007zm62.91 2.763c1.103.773 2.005 1.79 2.005 2.26 0 .474-3.822.851-8.625.851-12.02 0-12.112.075-12.112 9.9 0 4.416.246 8.672.547 9.458.468 1.221 2.642 1.43 14.877 1.43h14.329V67.478h-3.867c-2.126 0-5.457-.813-7.403-1.807-1.946-.994-4.583-1.808-5.86-1.808-1.278 0-3.915.814-5.86 1.808-1.946.994-5.278 1.807-7.404 1.807h-3.867V49.101c0-10.108.27-18.649.602-18.98.33-.331 5.108-.603 10.618-.603 7.607 0 10.5.34 12.02 1.408zm-60.487 4.6c-.341.34-.62 1.338-.62 2.214 0 .966-.8 1.709-2.029 1.883-2.743.391-2.788 3.796-.055 4.186 1.226.175 2.08 1.027 2.254 2.25.415 2.91 3.242 3.081 3.953.24.355-1.42 1.213-2.32 2.21-2.32 1.753 0 2.674-1.56 2.003-3.389-.228-.62-1.086-1.13-1.908-1.13-.82 0-1.893-.888-2.383-1.975-.956-2.123-2.425-2.963-3.425-1.96zm67.327 8.34c1.309 2.92 2.378 5.564 2.378 5.875 0 .311-5.275.565-11.721.565h-11.72v-5.272c0-2.9.27-5.544.6-5.875.33-.331 4.536-.603 9.344-.603h8.743l2.376 5.31zm-77.468 25.4c1.275.485 2.962 2.237 3.75 3.893 2.058 4.326.064 9.046-4.455 10.541-8.043 2.66-13.85-6.686-7.875-12.676 2.784-2.79 4.792-3.202 8.58-1.759zm69.998 1.758c4.181 4.192 3.327 9.576-1.955 12.314-3.992 2.07-8.66.381-10.386-3.757-1.108-2.659-1.101-3.485.047-6.242 2.249-5.394 8.12-6.5 12.294-2.315zM13.62 73.427c-.3.787-.547 1.803-.547 2.26 0 .456-2.028.83-4.508.83-4.208 0-4.508-.151-4.508-2.26 0-2.141.264-2.26 5.055-2.26 4.24 0 4.967.23 4.508 1.43zm67.975-.6c0 3.642-.28 3.69-22.09 3.69-21.808 0-22.089-.047-22.089-3.69 0-.48 9.276-.83 22.09-.83 12.813 0 22.089.35 22.089.83zm28.851 1.43c0 1.808-.451 2.26-2.254 2.26-1.24 0-2.254-.374-2.254-.83 0-.457-.246-1.473-.547-2.26-.427-1.114.07-1.43 2.254-1.43 2.386 0 2.801.335 2.801 2.26z" fill="#3250A5"/></svg>