<svg width="80" height="91" fill="none" xmlns="http://www.w3.org/2000/svg"><path fill-rule="evenodd" clip-rule="evenodd" d="M30.165 1.023C24.793 2.185 19.528 4.92 16.313 8.22l-2.367 2.43 1.232 3.45c1.602 4.489 1.595 4.55-.889 7.962-4.051 5.564-5.194 9.895-5.666 21.486-.406 9.974-.522 10.622-2.117 11.906-.927.746-2.416 1.357-3.306 1.357-2.123 0-3.487 1.709-2.972 3.722.226.886 1.81 3.187 3.522 5.116l3.11 3.506-2.681 2.667c-1.475 1.467-3.022 3.887-3.437 5.379-1.032 3.696-.974 11.816.092 12.876 1.237 1.23 77.072 1.23 78.309 0 1.066-1.06 1.123-9.18.092-12.876-.416-1.492-1.957-3.905-3.423-5.364l-2.666-2.653 3.427-4.088C78.458 62.847 80 60.447 80 59.762c0-1.696-1.393-2.951-3.279-2.951-.86 0-2.323-.61-3.25-1.357-1.596-1.284-1.711-1.932-2.118-11.906-.472-11.59-1.615-15.922-5.666-21.486-2.484-3.411-2.49-3.473-.889-7.962l1.233-3.45-2.368-2.43c-6.795-6.976-20.699-9.963-33.498-7.197zM47.99 6.431c3.991.843 10.137 3.609 10.96 4.933.268.432-1.02 4.857-2.86 9.834l-3.347 9.05-4.413-.92c-5.605-1.169-11.08-1.169-16.686 0l-4.413.92-3.346-9.05c-1.841-4.977-3.13-9.4-2.863-9.83.771-1.241 6.14-3.775 10.034-4.734 4.588-1.131 12.109-1.221 16.934-.203zM37.988 9.328c-.472.47-.858 1.729-.858 2.799 0 1.66-.329 1.977-2.25 2.168-4.521.447-4.556 4.969-.042 5.418 1.886.187 2.24.54 2.429 2.416.448 4.464 4.994 4.464 5.443 0 .188-1.876.543-2.229 2.428-2.416 4.515-.45 4.48-4.971-.042-5.418-1.921-.19-2.25-.508-2.25-2.168 0-2.185-1.148-3.652-2.858-3.652-.629 0-1.529.384-2 .853zM20.444 28.162c.931 2.219.969 3.257.24 6.678-.477 2.23-.745 6.435-.597 9.346.225 4.425.588 5.71 2.212 7.827 1.068 1.394 2.913 2.961 4.1 3.484 2.132.94 2.776 2.8 1.604 4.633-.293.457-2.217 1.497-4.276 2.31l-7.145 2.823-3.401 1.344-2.807-2.344L7.57 61.92l2.292-1.92c3.662-3.064 3.987-4.216 4.412-15.627.357-9.578.591-11.078 2.3-14.75 1.046-2.248 2.096-4.087 2.335-4.087.238 0 .93 1.182 1.536 2.627zm42.96 1.46c1.708 3.672 1.942 5.172 2.299 14.75.426 11.411.75 12.563 4.412 15.627l2.293 1.92-2.806 2.344-2.807 2.344-3.4-1.344c-1.87-.739-5.086-2.01-7.146-2.822-4.02-1.588-4.801-2.331-4.818-4.586-.007-.937.699-1.71 2.015-2.204 1.114-.418 2.96-1.978 4.1-3.466 1.77-2.309 2.114-3.482 2.343-7.999.148-2.911-.12-7.117-.596-9.346-.73-3.422-.692-4.46.24-6.678.606-1.445 1.298-2.627 1.536-2.627s1.289 1.839 2.335 4.087zm-12.52 6.226 3.394 1.194v5.296c0 4.676-.206 5.502-1.754 7.041-.965.96-2.227 1.745-2.806 1.745-2.963 0-5.205 7.12-3.336 10.594.545 1.013-.017 1.941-2.858 4.725l-3.536 3.465-3.536-3.465c-2.84-2.784-3.402-3.712-2.858-4.724 1.87-3.474-.373-10.595-3.336-10.595-.579 0-1.841-.785-2.806-1.745-1.549-1.54-1.754-2.364-1.754-7.05v-5.306l3.394-1.079c1.866-.592 4.037-1.24 4.823-1.44 2.749-.7 13.605.16 16.97 1.344zm-17.883 34.98 4.13 4.064v10.352H5.691v-2.938c0-5.562 1.712-7.117 12.7-11.534 5.393-2.169 9.959-3.958 10.143-3.976.186-.019 2.195 1.795 4.466 4.032zm28.606-.055c10.996 4.49 12.677 6.019 12.677 11.534v2.937H42.846V74.978l4.086-4.108c2.247-2.259 4.257-4.108 4.466-4.109.209 0 4.803 1.806 10.21 4.013z" fill="#C7D6FF"/><path fill-rule="evenodd" clip-rule="evenodd" d="M30.165 1.023C24.793 2.185 19.528 4.92 16.313 8.22l-2.367 2.43 1.232 3.45c1.602 4.489 1.595 4.55-.889 7.962-4.051 5.564-5.194 9.895-5.666 21.486-.406 9.974-.522 10.622-2.117 11.906-.927.746-2.416 1.357-3.306 1.357-2.123 0-3.487 1.709-2.972 3.722.226.886 1.81 3.187 3.522 5.116l3.11 3.506-2.681 2.667c-1.475 1.467-3.022 3.887-3.437 5.379-1.032 3.696-.974 11.816.092 12.876 1.237 1.23 77.072 1.23 78.309 0 1.066-1.06 1.123-9.18.092-12.876-.416-1.492-1.957-3.905-3.423-5.364l-2.666-2.653 3.427-4.088C78.458 62.847 80 60.447 80 59.762c0-1.696-1.393-2.951-3.279-2.951-.86 0-2.323-.61-3.25-1.357-1.596-1.284-1.711-1.932-2.118-11.906-.472-11.59-1.615-15.922-5.666-21.486-2.484-3.411-2.49-3.473-.889-7.962l1.233-3.45-2.368-2.43c-6.795-6.976-20.699-9.963-33.498-7.197zM47.99 6.431c3.991.843 10.137 3.609 10.96 4.933.268.432-1.02 4.857-2.86 9.834l-3.347 9.05-4.413-.92c-5.605-1.169-11.08-1.169-16.686 0l-4.413.92-3.346-9.05c-1.841-4.977-3.13-9.4-2.863-9.83.771-1.241 6.14-3.775 10.034-4.734 4.588-1.131 12.109-1.221 16.934-.203zM20.444 28.162c.931 2.219.969 3.257.24 6.678-.477 2.23-.745 6.435-.597 9.346.225 4.425.588 5.71 2.212 7.827 1.068 1.394 2.913 2.961 4.1 3.484 2.132.94 2.776 2.8 1.604 4.633-.293.457-2.217 1.497-4.276 2.31l-7.145 2.823-3.401 1.344-2.807-2.344L7.57 61.92l2.292-1.92c3.662-3.064 3.987-4.216 4.412-15.627.357-9.578.591-11.078 2.3-14.75 1.046-2.248 2.096-4.087 2.335-4.087.238 0 .93 1.182 1.536 2.627zm42.96 1.46c1.708 3.672 1.942 5.172 2.299 14.75.426 11.411.75 12.563 4.412 15.627l2.293 1.92-2.806 2.344-2.807 2.344-3.4-1.344c-1.87-.739-5.086-2.01-7.146-2.822-4.02-1.588-4.801-2.331-4.818-4.586-.007-.937.699-1.71 2.015-2.204 1.114-.418 2.96-1.978 4.1-3.466 1.77-2.309 2.114-3.482 2.343-7.999.148-2.911-.12-7.117-.596-9.346-.73-3.422-.692-4.46.24-6.678.606-1.445 1.298-2.627 1.536-2.627s1.289 1.839 2.335 4.087zm-12.52 6.226 3.394 1.194v5.296c0 4.676-.206 5.502-1.754 7.041-.965.96-2.227 1.745-2.806 1.745-2.963 0-5.205 7.12-3.336 10.594.545 1.013-.017 1.941-2.858 4.725l-3.536 3.465-3.536-3.465c-2.84-2.784-3.402-3.712-2.858-4.724 1.87-3.474-.373-10.595-3.336-10.595-.579 0-1.841-.785-2.806-1.745-1.549-1.54-1.754-2.364-1.754-7.05v-5.306l3.394-1.079c1.866-.592 4.037-1.24 4.823-1.44 2.749-.7 13.605.16 16.97 1.344zm-17.883 34.98 4.13 4.064v10.352H5.691v-2.938c0-5.562 1.712-7.117 12.7-11.534 5.393-2.169 9.959-3.958 10.143-3.976.186-.019 2.195 1.795 4.466 4.032zm28.606-.055c10.996 4.49 12.677 6.019 12.677 11.534v2.937H42.846V74.978l4.086-4.108c2.247-2.259 4.257-4.108 4.466-4.109.209 0 4.803 1.806 10.21 4.013z" fill="#3250A5"/></svg>