<svg width="93" height="98" fill="none" xmlns="http://www.w3.org/2000/svg"><path fill-rule="evenodd" clip-rule="evenodd" d="M49.353 1.065c-.97.59-4.814 1.013-9.421 1.037-6.739.036-8.542.365-13.438 2.448-7.576 3.224-10.498 6.763-10.972 13.293-.268 3.686.037 5.489 1.37 8.091.943 1.842 2.06 3.56 2.48 3.819.445.274.273 1.451-.413 2.82-2.139 4.27 1.976 9.962 7.311 10.112 2.416.069 3.091.531 4.348 2.981.819 1.595 1.6 3.115 1.737 3.376.137.261-1.292.935-3.175 1.497-2.2.657-4.963 2.557-7.738 5.318-5.75 5.726-6.908 9.64-6.908 23.332 0 9.39.17 10.592 1.86 13.11 3.566 5.316 5.115 5.625 28.228 5.626l20.665.002.226-12.85c.19-10.78.424-12.85 1.454-12.85 1.031 0 1.265 2.075 1.455 12.886L68.648 98l5.51-.24 5.508-.241.225-14.205c.285-18-.51-21.268-6.659-27.391-2.586-2.577-5.56-4.655-7.524-5.259-1.786-.549-3.703-1.14-4.26-1.315-.723-.225-.487-1.205.818-3.405 1.424-2.398 1.846-4.41 1.888-8.995.045-4.971.347-6.218 1.91-7.875 2.725-2.89 3.147-7.68.922-10.492-.977-1.233-2.486-2.243-3.356-2.243-1.277 0-1.579-.584-1.583-3.06-.014-9.557-6.613-15.906-12.694-12.214zM5.026 2.81c-.678 1.76.265 3.952 1.521 3.535.563-.187 1.024-1.197 1.024-2.243 0-2.237-1.825-3.163-2.545-1.292zm62.307-.27c-.844 1.362 1.054 2.922 2.185 1.796.945-.942.354-2.682-.912-2.682-.397 0-.97.399-1.273.887zm20.149 1.93c-2.177 2.612 1.02 6.624 3.859 4.843 2.836-1.78 1.826-6.027-1.434-6.027-.79 0-1.882.532-2.425 1.184zM.182 7.39c-.318.513-.208 1.302.246 1.754 1.164 1.16 3.866.479 3.866-.974 0-1.467-3.297-2.092-4.112-.78zm8.192 0c-.317.513-.208 1.302.246 1.754 1.164 1.16 3.866.479 3.866-.974 0-1.467-3.296-2.092-4.112-.78zm67.109 1.947c-.678 1.76.264 3.952 1.521 3.535.563-.187 1.023-1.197 1.023-2.243 0-2.237-1.824-3.163-2.544-1.292zM5.026 10.968c-.678 1.76.265 3.952 1.521 3.535 1.33-.442 1.33-4.045 0-4.487-.563-.187-1.247.241-1.52.952zm65.612 2.948c-.317.513-.208 1.303.246 1.755 1.165 1.159 3.866.478 3.866-.976 0-1.466-3.296-2.091-4.112-.78zm8.193 0c-.318.513-.208 1.303.246 1.755 1.164 1.159 3.866.478 3.866-.976 0-1.466-3.297-2.091-4.112-.78zm-24.509 3.613c.726 1.103 2.605 5.418 4.177 9.587 2.216 5.882 2.778 8.443 2.507 11.435-.96 10.619-12.32 16.5-21.714 11.241-4.24-2.373-5.287-3.906-8.395-12.302-2.973-8.03-3.09-11.328-.506-14.32 1.732-2.005 2.63-2.282 8.807-2.72 6.89-.489 9.372-1.29 11.347-3.659 1.458-1.749 2.242-1.596 3.777.738zm21.16-.034c-.677 1.76.265 3.952 1.522 3.535.563-.187 1.023-1.197 1.023-2.244 0-2.236-1.824-3.162-2.544-1.291zm-10.65 3.398c.883 2.293.532 4.136-1.06 5.57-1.496 1.35-1.596 1.289-2.533-1.538-.536-1.619-.768-3.478-.517-4.132.614-1.591 3.485-1.521 4.11.1zm-12.708.893c-.054.37-.076.88-.05 1.135.026.255-.991.312-2.26.127-4.873-.713-6.004 5.37-1.475 7.938 4.193 2.378 8.961-2.326 7.322-7.224-.662-1.98-3.322-3.466-3.537-1.976zM5.555 25.682c-2.176 2.612 1.02 6.624 3.859 4.843 1.82-1.141 2.265-3.315.991-4.843a3.151 3.151 0 0 0-4.85 0zm79.802-.298c-.844 1.361 1.054 2.921 2.185 1.795.945-.941.353-2.681-.912-2.681-.398 0-.97.398-1.273.886zM38.293 27.37c0 .916-.536 1.105-2.059.724-2.644-.66-4.495.871-4.495 3.72 0 4.688 5.125 6.42 8.64 2.92 2.201-2.193 2.417-3.353 1.212-6.511-.862-2.257-3.298-2.887-3.298-.853zm13.234.593c-.848.845-2.583.18-2.583-.988 0-.38.761-.494 1.692-.25 1.104.286 1.414.717.89 1.238zm-13.404 4.49c-.467.562-1.358 1.02-1.978 1.02-.621 0-1.129-.458-1.129-1.02 0-.56.89-1.02 1.979-1.02 1.49 0 1.768.253 1.129 1.02zm36.25-.243c-1.273 1.528-.829 3.702.992 4.843 2.839 1.78 6.035-2.231 3.859-4.843a3.151 3.151 0 0 0-4.85 0zm-47.98 2.854c1.245 2.398 1.656 4.936.8 4.936-.248 0-1.539-.56-2.868-1.245-1.618-.832-2.417-1.867-2.417-3.127 0-3.748 2.657-4.082 4.484-.564zm17.228.029c-.621 2.815.585 4.907 2.829 4.907 2.048 0 2.621-.902 1.462-2.3-.559-.675-1.017-1.987-1.017-2.916 0-2.834-2.636-2.585-3.274.309zM3.43 36.807c-.845 1.36 1.054 2.92 2.184 1.795.946-.942.354-2.682-.912-2.682-.397 0-.97.399-1.273.887zm47.151 5.411c-1.645 1.132-3.63 1.828-4.657 1.632-.985-.188-2.275-.042-2.868.322-.863.532-.806.933.285 2.02 2.442 2.433 11.336-.835 11.336-4.164 0-1.908-1.12-1.856-4.096.19zm-39.002-.247c-.678 1.76.265 3.952 1.522 3.535.562-.187 1.023-1.197 1.023-2.243 0-2.237-1.825-3.163-2.545-1.292zm73.734 1.632c-.678 1.76.265 3.952 1.521 3.535.563-.187 1.024-1.197 1.024-2.243 0-2.237-1.825-3.163-2.545-1.292zM6.736 46.55c-.318.513-.208 1.303.246 1.755 1.164 1.159 3.866.478 3.866-.975 0-1.467-3.297-2.092-4.112-.78zm8.192 0c-.317.513-.208 1.303.246 1.755 1.165 1.159 3.866.478 3.866-.975 0-1.467-3.296-2.092-4.111-.78zm55.682.046c-.844 1.361 1.054 2.921 2.185 1.795.945-.941.354-2.682-.912-2.682-.397 0-.97.4-1.273.887zm9.86 1.585c-.318.514-.208 1.303.246 1.755 1.164 1.16 3.866.479 3.866-.975 0-1.467-3.297-2.092-4.112-.78zm8.192 0c-.318.514-.208 1.303.246 1.755 1.164 1.16 3.866.479 3.866-.975 0-1.467-3.296-2.092-4.112-.78zM11.58 50.13c-.678 1.76.265 3.952 1.522 3.535.562-.187 1.023-1.197 1.023-2.243 0-2.237-1.825-3.163-2.545-1.292zm73.734 1.632c-.678 1.76.265 3.952 1.521 3.535.563-.187 1.024-1.197 1.024-2.244 0-2.236-1.825-3.162-2.545-1.291zm-40.82 3.281c2.258.374 4.506.124 6.964-.773 5.833-2.129 6.498-2.27 6.498-1.374 0 1.867-4.405 5.895-7.434 6.798-4.262 1.273-8.922-.097-11.759-3.455-2.733-3.235-2.679-4.334.145-2.895 1.24.631 3.753 1.396 5.586 1.7zM57.406 74.47c.26 2.356.728 6.08 1.04 8.279l.569 3.994-1.837-1.829c-1.437-1.43-2.549-1.762-5.097-1.52-3.125.296-3.24.224-2.777-1.757.265-1.138.713-4.18.995-6.759l.51-4.691h6.124l.473 4.283zM29.11 78.584l.24 6.226 7.133.236c5.692.187 7.135.482 7.135 1.458 0 1.01-1.501 1.224-8.602 1.224h-8.602l-.24-6.866c-.262-7.464.098-9.36 1.674-8.842.67.221 1.106 2.488 1.262 6.564zm27.33 10.365c4.022 4.006 3.016 5.264-4.433 5.544l-6.34.239V92.25c0-1.536.42-2.482 1.101-2.482.607 0 1.77-.734 2.585-1.632 2.075-2.283 4.227-2.036 7.088.814z" fill="#C7D6FF"/><path fill-rule="evenodd" clip-rule="evenodd" d="M49.353 1.065c-.97.59-4.814 1.013-9.421 1.037-6.739.036-8.542.365-13.438 2.448-7.576 3.224-10.498 6.763-10.972 13.293-.268 3.686.037 5.489 1.37 8.091.943 1.842 2.06 3.56 2.48 3.819.445.274.273 1.451-.413 2.82-2.139 4.27 1.976 9.962 7.311 10.112 2.416.069 3.091.531 4.348 2.981.819 1.595 1.6 3.115 1.737 3.376.137.261-1.292.935-3.175 1.497-2.2.657-4.963 2.557-7.738 5.318-5.75 5.726-6.908 9.64-6.908 23.332 0 9.39.17 10.592 1.86 13.11 3.566 5.316 5.115 5.625 28.228 5.626l20.665.002.226-12.85c.19-10.78.424-12.85 1.454-12.85 1.031 0 1.265 2.075 1.455 12.886L68.648 98l5.51-.24 5.508-.241.225-14.205c.285-18-.51-21.268-6.659-27.391-2.586-2.577-5.56-4.655-7.524-5.259-1.786-.549-3.703-1.14-4.26-1.315-.723-.225-.487-1.205.818-3.405 1.424-2.398 1.846-4.41 1.888-8.995.045-4.971.347-6.218 1.91-7.875 2.725-2.89 3.147-7.68.922-10.492-.977-1.233-2.486-2.243-3.356-2.243-1.277 0-1.579-.584-1.583-3.06-.014-9.557-6.613-15.906-12.694-12.214zm4.969 16.464c.726 1.103 2.605 5.418 4.177 9.587 2.216 5.882 2.778 8.443 2.507 11.435-.96 10.619-12.32 16.5-21.714 11.241-4.24-2.373-5.287-3.906-8.395-12.302-2.973-8.03-3.09-11.328-.506-14.32 1.732-2.005 2.63-2.282 8.807-2.72 6.89-.489 9.372-1.29 11.347-3.659 1.458-1.749 2.242-1.596 3.777.738zm10.51 3.364c.883 2.293.532 4.136-1.06 5.57-1.497 1.35-1.596 1.289-2.533-1.538-.536-1.619-.768-3.478-.517-4.132.614-1.591 3.485-1.521 4.11.1zm-12.708.893c-.054.37-.076.88-.05 1.135.026.255-.991.312-2.26.127-4.873-.713-6.004 5.37-1.475 7.938 4.193 2.378 8.961-2.326 7.322-7.224-.662-1.98-3.322-3.466-3.537-1.976zm-13.83 5.583c0 .916-.537 1.105-2.06.724-2.644-.66-4.495.871-4.495 3.72 0 4.688 5.125 6.42 8.64 2.92 2.201-2.193 2.417-3.353 1.212-6.511-.862-2.257-3.298-2.887-3.298-.853zm13.233.593c-.848.845-2.583.18-2.583-.988 0-.38.761-.494 1.692-.25 1.104.286 1.414.717.89 1.238zm-13.404 4.49c-.467.562-1.358 1.02-1.978 1.02-.621 0-1.129-.458-1.129-1.02 0-.56.89-1.02 1.979-1.02 1.49 0 1.768.253 1.129 1.02zm-11.73 2.611c1.245 2.398 1.656 4.936.8 4.936-.248 0-1.539-.56-2.868-1.245-1.618-.832-2.417-1.867-2.417-3.127 0-3.748 2.657-4.082 4.484-.564zm17.228.029c-.621 2.815.585 4.907 2.829 4.907 2.048 0 2.621-.902 1.462-2.3-.559-.675-1.017-1.987-1.017-2.916 0-2.834-2.636-2.585-3.274.309zm6.961 7.126c-1.645 1.132-3.63 1.828-4.657 1.632-.985-.188-2.275-.042-2.868.322-.863.532-.806.933.285 2.02 2.442 2.433 11.336-.835 11.336-4.164 0-1.908-1.12-1.856-4.096.19zm-6.088 12.825c2.258.374 4.506.124 6.964-.773 5.833-2.129 6.498-2.27 6.498-1.374 0 1.867-4.405 5.895-7.434 6.798-4.262 1.273-8.922-.097-11.759-3.455-2.733-3.235-2.679-4.334.145-2.895 1.24.631 3.753 1.396 5.586 1.7zM57.406 74.47c.26 2.356.728 6.08 1.04 8.279l.569 3.994-1.837-1.829c-1.437-1.43-2.549-1.762-5.097-1.52-3.125.296-3.24.224-2.777-1.757.265-1.138.713-4.18.995-6.759l.51-4.691h6.124l.473 4.283zM29.11 78.584l.24 6.226 7.133.236c5.692.187 7.135.482 7.135 1.458 0 1.01-1.501 1.224-8.602 1.224h-8.602l-.24-6.866c-.262-7.464.098-9.36 1.674-8.842.67.221 1.106 2.488 1.262 6.564zm27.33 10.365c4.022 4.006 3.016 5.264-4.433 5.544l-6.34.239V92.25c0-1.536.42-2.482 1.101-2.482.607 0 1.77-.734 2.585-1.632 2.075-2.283 4.227-2.036 7.088.814z" fill="#3250A5"/></svg>