<svg width="82" height="105" fill="none" xmlns="http://www.w3.org/2000/svg"><path fill-rule="evenodd" clip-rule="evenodd" d="M37.253.82c-.288.463-.281 1.942.017 3.286.48 2.166.32 2.447-1.39 2.454-2.61.011-10.11 3.548-14.005 6.606-3.987 3.129-9.335 10.994-11.143 16.387-.992 2.96-1.811 4.12-2.909 4.12-2.467 0-6.532 3.982-7.428 7.277-1.604 5.907 1.833 11.871 7.49 12.992 1.566.311 2.687 1.477 4.005 4.165 3.824 7.801 9.595 12.832 17.29 15.07 5.234 1.523 4.827 3.676-.83 4.39C15.85 79.145 4.61 90.963 5.492 101.602l.262 3.16h13.683c13.13 0 13.683-.066 13.683-1.643 0-1.556-.63-1.656-11.817-1.872-13.49-.26-13.212-.056-9.848-7.215 2.435-5.184 7.878-9.888 13.28-11.478 5.678-1.67 26.849-1.67 32.527 0 5.401 1.59 10.844 6.294 13.28 11.478 3.364 7.159 3.641 6.955-9.848 7.215-11.188.216-11.818.316-11.818 1.872 0 1.577.553 1.643 13.683 1.643h13.683l.255-3.49c.357-4.893-3.201-12.431-7.892-16.716-4.403-4.022-9.065-6.193-14.96-6.966-3.365-.441-4.354-.896-4.354-2.002 0-.997 1.144-1.748 3.767-2.476 7.471-2.073 13.165-7.084 17.048-15.004 1.317-2.688 2.439-3.854 4.005-4.165 5.664-1.122 9.123-7.157 7.48-13.051-.902-3.239-4.968-7.218-7.374-7.218-1.058 0-2-1.403-3.281-4.885-.989-2.687-3.278-6.838-5.088-9.224C62.705 15.42 56.475 9.84 54.99 9.84c-.387 0-1.616-1.435-2.733-3.19-1.237-1.94-3.454-3.87-5.664-4.93-3.858-1.852-8.469-2.296-9.339-.9zm8.169 4.92c4.387 2.174 5.984 8.288 3.44 13.167-2.24 4.29-8.39 6.13-13.216 3.95-2.683-1.211-2.626-1.56.575-3.566 3.682-2.308 5.786-6.288 5.86-11.081.033-2.215.27-3.94.525-3.83.255.107 1.523.72 2.816 1.36zM37.68 11.3c0 1.703-3.05 4.59-6.316 5.977-1.999.85-3.635 2.03-3.635 2.623 0 3.6 6.883 8.02 12.488 8.02 6.52 0 12.534-4.62 13.731-10.548.289-1.43.794-2.601 1.124-2.601 1.08 0 6.69 5.837 8.812 9.168 1.143 1.795 2.9 5.551 3.903 8.347 1.632 4.55 2.086 5.114 4.31 5.36 4.83.532 7.224 4.863 5.022 9.083-1.33 2.548-2.786 3.38-5.913 3.38-1.637 0-2.436.926-4.43 5.137-3.864 8.152-7.898 11.726-16.242 14.387-4.785 1.526-4.986 1.703-5.233 4.592l-.258 3.005h-8.092l-.258-3.005c-.247-2.89-.447-3.066-5.232-4.592-8.345-2.661-12.378-6.235-16.242-14.387-2.157-4.553-2.705-5.137-4.821-5.137-3.626 0-6.22-2.51-6.22-6.016 0-3.655 2.149-6.139 5.6-6.47 2.38-.23 2.765-.694 4.43-5.337 2.229-6.214 4.98-10.636 9.13-14.674 4.476-4.358 14.342-8.7 14.342-6.312zM25.292 32.645c-2.023 1.623-3.885 8.24-2.66 9.454 1.75 1.736 3.849.24 4.113-2.931.159-1.907.77-3.316 1.571-3.62 1.598-.608 3.56 1.816 3.56 4.397 0 2.54 1.669 3.345 3.052 1.471 2.471-3.35-1.499-10.209-5.91-10.209-1.064 0-2.741.648-3.726 1.438zm23.691.411c-2.564 2.305-3.47 6.255-1.916 8.36 1.383 1.874 3.052 1.07 3.052-1.471 0-2.581 1.962-5.005 3.56-4.397.8.304 1.412 1.713 1.57 3.62.19 2.265.682 3.2 1.8 3.41 2.52.473 3.165-.914 2.268-4.87-1.396-6.156-6.236-8.334-10.334-4.652zm-17.045 18.66c-3.08 1.885 3.27 6.603 8.893 6.608 5.87.005 11.386-3.656 9.286-6.163-.914-1.09-1.352-1.042-3.724.41-3.4 2.082-7.363 2.1-10.712.05-1.643-1.007-3.031-1.342-3.743-.906zm7.68 50.635c-.692 1.785 1.063 3.464 2.319 2.219 1.061-1.052.404-3.507-.94-3.507-.485 0-1.105.579-1.38 1.288z" fill="#C7D6FF"/><path fill-rule="evenodd" clip-rule="evenodd" d="M37.253.82c-.288.463-.281 1.942.017 3.286.48 2.166.32 2.447-1.39 2.454-2.61.011-10.11 3.548-14.005 6.606-3.987 3.129-9.335 10.994-11.143 16.387-.992 2.96-1.811 4.12-2.909 4.12-2.467 0-6.532 3.982-7.428 7.277-1.604 5.907 1.833 11.871 7.49 12.992 1.566.311 2.687 1.477 4.005 4.165 3.824 7.801 9.595 12.832 17.29 15.07 5.234 1.523 4.827 3.676-.83 4.39C15.85 79.145 4.61 90.963 5.492 101.602l.262 3.16h13.683c13.13 0 13.683-.066 13.683-1.643 0-1.556-.63-1.656-11.817-1.872-13.49-.26-13.212-.056-9.848-7.215 2.435-5.184 7.878-9.888 13.28-11.478 5.678-1.67 26.849-1.67 32.527 0 5.401 1.59 10.844 6.294 13.28 11.478 3.364 7.159 3.641 6.955-9.848 7.215-11.188.216-11.818.316-11.818 1.872 0 1.577.553 1.643 13.683 1.643h13.683l.255-3.49c.357-4.893-3.201-12.431-7.892-16.716-4.403-4.022-9.065-6.193-14.96-6.966-3.365-.441-4.354-.896-4.354-2.002 0-.997 1.144-1.748 3.767-2.476 7.471-2.073 13.165-7.084 17.048-15.004 1.317-2.688 2.439-3.854 4.005-4.165 5.664-1.122 9.123-7.157 7.48-13.051-.902-3.239-4.968-7.218-7.374-7.218-1.058 0-2-1.403-3.281-4.885-.989-2.687-3.278-6.838-5.088-9.224C62.705 15.42 56.475 9.84 54.99 9.84c-.387 0-1.616-1.435-2.733-3.19-1.237-1.94-3.454-3.87-5.664-4.93-3.858-1.852-8.469-2.296-9.339-.9zm8.169 4.92c4.387 2.174 5.984 8.288 3.44 13.167-2.24 4.29-8.39 6.13-13.216 3.95-2.683-1.211-2.626-1.56.575-3.566 3.682-2.308 5.786-6.288 5.86-11.081.033-2.215.27-3.94.525-3.83.255.107 1.523.72 2.816 1.36zM37.68 11.3c0 1.703-3.05 4.59-6.316 5.977-1.999.85-3.635 2.03-3.635 2.623 0 3.6 6.883 8.02 12.488 8.02 6.52 0 12.534-4.62 13.731-10.548.289-1.43.794-2.601 1.124-2.601 1.08 0 6.69 5.837 8.812 9.168 1.143 1.795 2.9 5.551 3.903 8.347 1.632 4.55 2.086 5.114 4.31 5.36 4.83.532 7.224 4.863 5.022 9.083-1.33 2.548-2.786 3.38-5.913 3.38-1.637 0-2.436.926-4.43 5.137-3.864 8.152-7.898 11.726-16.242 14.387-4.785 1.526-4.986 1.703-5.233 4.592l-.258 3.005h-8.092l-.258-3.005c-.247-2.89-.447-3.066-5.232-4.592-8.345-2.661-12.378-6.235-16.242-14.387-2.157-4.553-2.705-5.137-4.821-5.137-3.626 0-6.22-2.51-6.22-6.016 0-3.655 2.149-6.139 5.6-6.47 2.38-.23 2.765-.694 4.43-5.337 2.229-6.214 4.98-10.636 9.13-14.674 4.476-4.358 14.342-8.7 14.342-6.312z" fill="#3250A5"/></svg>