<svg width="79" height="84" fill="none" xmlns="http://www.w3.org/2000/svg"><path fill-rule="evenodd" clip-rule="evenodd" d="M.193.72c-.179.464-.246 8.112-.148 16.995l.178 16.15 5.627.19 5.627.19 4.07 4.013c2.271 2.239 4.393 3.814 4.8 3.563.4-.246.728-2.058.728-4.025V34.22l14.399-.178 14.398-.178V.221L25.195.048C5.619-.09.451.049.193.72zm47.362 16.31v14.5l-14.398.177-14.398.178-.332 2.84-.33 2.84-2.952-3.005-2.95-3.005H2.54V2.53h45.015v14.5zM21.547 5.578c-.26.258-.472 2.037-.472 3.954v3.485l-3.806.198-3.806.198v7.257l3.774.196 3.774.198.198 3.76.197 3.762h7.282l.198-3.762.198-3.76 3.774-.198 3.774-.196v-7.257l-3.774-.196-3.774-.198-.198-3.76-.198-3.762-3.335-.195c-1.835-.106-3.547.017-3.806.276zm4.957 6.021.198 3.793 3.807.198c3.228.168 3.806.388 3.806 1.452 0 1.063-.578 1.283-3.806 1.45l-3.807.199-.198 3.793c-.168 3.217-.39 3.793-1.457 3.793-1.067 0-1.288-.576-1.456-3.793l-.199-3.793-3.806-.198c-3.229-.168-3.806-.388-3.806-1.451 0-1.064.577-1.284 3.806-1.452l3.806-.198.199-3.793c.168-3.217.39-3.793 1.456-3.793 1.067 0 1.289.576 1.457 3.793zm37.401 9.82c-.254.253-.462 4.127-.462 8.609v8.148l-1.82-.507c-1.002-.279-9.864-.507-19.695-.507H24.054l-.198 4.176c-.178 3.742-.058 4.213 1.158 4.53 1.3.339 1.357.818 1.357 11.437V68.39l-8.264.218-8.264.22-2.162 2.156c-1.86 1.856-2.162 2.614-2.162 5.43 0 2.817.3 3.573 2.164 5.43C9.538 83.693 10.31 84 13.09 84c3.49 0 6.204-1.76 7.376-4.783.559-1.44.847-1.484 9.757-1.484 8.159 0 9.308.139 10.313 1.245.621.685 2.976 2.094 5.233 3.13 3.49 1.605 4.941 1.886 9.73 1.889 4.779.002 6.225-.275 9.598-1.844 5.174-2.405 9.694-6.89 12.03-11.934 1.583-3.42 1.866-4.88 1.866-9.638 0-4.766-.282-6.216-1.879-9.665-1.033-2.232-2.744-4.884-3.803-5.895-1.892-1.806-1.925-1.96-1.925-8.938v-7.1l3.806-.198L79 28.587V21.33l-7.316-.185c-4.025-.102-7.525.022-7.779.275zm4.834 10.818c0 8.395-.032 8.583-1.324 7.893-1.21-.645-1.324-1.381-1.324-8.599 0-7.453.074-7.893 1.324-7.893 1.257 0 1.324.44 1.324 8.6zm7.944-7.28c0 1.1-.442 1.32-2.648 1.32s-2.648-.22-2.648-1.32c0-1.099.442-1.319 2.648-1.319 2.207 0 2.648.22 2.648 1.32zM42.497 40.74c-1.143.695-2.278 1.584-2.522 1.977-.268.433-3.02.713-7.023.713h-6.58v-3.958l9.102.002 9.102.002-2.08 1.264zm22.94 1.428c4.502 2.391 6.521 4.484 9.105 9.437 1.488 2.856 1.76 4.224 1.78 8.976.024 5.215-.14 5.909-2.341 9.896C63.799 88.92 36.18 83.065 34.473 62.1c-1.342-16.47 16.21-27.77 30.963-19.933zM50.86 44.046c-12.183 3.693-16.493 18.594-8.067 27.888 3.698 4.08 6.874 5.439 12.705 5.439 5.641 0 8.82-1.294 12.338-5.024 3.546-3.758 4.517-6.288 4.517-11.768 0-5.604-.979-8.048-4.82-12.043-3.916-4.073-11.4-6.09-16.673-4.492zM34.127 50.52c-1.775 3.755-2.107 5.229-2.117 9.4-.006 2.722.217 5.764.497 6.762.475 1.691.373 1.814-1.49 1.814H29.02V46.069h7.213l-2.105 4.453zm29.092-2.082c4.512 2.78 7.094 7.773 6.65 12.86-.667 7.625-5.553 12.704-13.077 13.592-8.734 1.031-16.68-6.947-15.64-15.7 1.287-10.84 12.812-16.454 22.067-10.752zm-11.39 8.484c-1.025 1.021-1.626 2.373-1.626 3.658 0 1.285.6 2.638 1.625 3.658 1.024 1.021 2.382 1.62 3.671 1.62 1.29 0 2.647-.599 3.67-1.62 1.026-1.02 1.626-2.373 1.626-3.658 0-1.285-.6-2.637-1.625-3.658-1.024-1.02-2.381-1.62-3.67-1.62-1.29 0-2.648.6-3.672 1.62zm5.63 1.977c1.759 2.112-.825 5.356-3.118 3.916-2.292-1.438-1.476-4.873 1.158-4.873.639 0 1.52.43 1.96.958zM16.802 72.757c3.284 3.272.957 8.935-3.67 8.935-2.722 0-5.296-2.565-5.296-5.277s2.574-5.278 5.296-5.278c1.29 0 2.646.599 3.67 1.62zm18.506.36 1.027 1.978H21.172l-.99-1.979-.991-1.979H34.282l1.026 1.98zm-24.825.659c-.728.726-1.323 1.913-1.323 2.639 0 1.699 2.266 3.958 3.972 3.958 1.705 0 3.972-2.259 3.972-3.958 0-.726-.596-1.913-1.324-2.639-.729-.726-1.92-1.32-2.648-1.32-.729 0-1.92.594-2.649 1.32zm3.677 2.036c.682 1.1-.852 2.362-1.765 1.452-.764-.762-.286-2.169.737-2.169.32 0 .783.323 1.028.717z" fill="#C7D6FF"/><path fill-rule="evenodd" clip-rule="evenodd" d="M63.905 21.42c-.254.253-.462 4.127-.462 8.609v8.148l-1.82-.507c-1.002-.28-9.864-.507-19.695-.507H24.054l-.198 4.176c-.178 3.742-.058 4.213 1.158 4.53 1.3.339 1.357.818 1.357 11.437V68.39l-8.264.218-8.264.22-2.162 2.156c-1.86 1.856-2.162 2.613-2.162 5.43 0 2.816.3 3.573 2.164 5.43C9.538 83.692 10.31 84 13.09 84c3.49 0 6.204-1.76 7.376-4.783.559-1.44.847-1.484 9.757-1.484 8.159 0 9.308.138 10.313 1.245.621.684 2.976 2.094 5.233 3.13 3.49 1.605 4.941 1.886 9.73 1.889 4.779.002 6.225-.275 9.598-1.844 5.174-2.405 9.694-6.89 12.03-11.934 1.583-3.42 1.866-4.88 1.866-9.638 0-4.766-.282-6.216-1.879-9.665-1.033-2.232-2.744-4.885-3.803-5.895-1.892-1.806-1.925-1.96-1.925-8.938v-7.1l3.806-.198L79 28.587V21.33l-7.316-.185c-4.025-.102-7.525.022-7.779.275zm4.834 10.818c0 8.395-.032 8.583-1.324 7.893-1.21-.646-1.324-1.381-1.324-8.599 0-7.453.074-7.893 1.324-7.893 1.257 0 1.324.44 1.324 8.6zm7.944-7.28c0 1.1-.442 1.32-2.648 1.32s-2.648-.22-2.648-1.32.442-1.319 2.648-1.319c2.207 0 2.648.22 2.648 1.32zM42.497 40.74c-1.143.695-2.278 1.584-2.522 1.977-.268.433-3.02.713-7.023.713h-6.58V39.47l9.102.003 9.102.002-2.08 1.264zm22.94 1.428c4.502 2.391 6.521 4.484 9.105 9.437 1.488 2.856 1.76 4.224 1.78 8.976.024 5.214-.14 5.908-2.341 9.895-10.182 18.445-37.8 12.59-39.508-8.375-1.342-16.47 16.21-27.77 30.963-19.933zM50.86 44.046c-12.183 3.693-16.493 18.593-8.067 27.888 3.698 4.08 6.874 5.439 12.705 5.439 5.641 0 8.82-1.294 12.338-5.024 3.546-3.758 4.517-6.288 4.517-11.768 0-5.604-.979-8.049-4.82-12.043-3.916-4.073-11.4-6.09-16.673-4.492zM34.127 50.52c-1.775 3.754-2.107 5.229-2.117 9.4-.006 2.722.217 5.764.497 6.762.475 1.691.373 1.814-1.49 1.814H29.02V46.068h7.213l-2.105 4.453zm29.092-2.082c4.512 2.78 7.094 7.773 6.65 12.86-.667 7.625-5.553 12.704-13.077 13.592-8.734 1.031-16.68-6.947-15.64-15.701 1.287-10.838 12.812-16.453 22.067-10.75zm-11.39 8.484c-1.025 1.02-1.626 2.373-1.626 3.658 0 1.285.6 2.638 1.625 3.658 1.024 1.021 2.382 1.62 3.671 1.62 1.29 0 2.647-.599 3.67-1.62 1.026-1.02 1.626-2.373 1.626-3.658 0-1.285-.6-2.637-1.625-3.658-1.024-1.02-2.381-1.62-3.67-1.62-1.29 0-2.648.6-3.672 1.62zm5.63 1.977c1.759 2.112-.825 5.356-3.118 3.916-2.292-1.439-1.476-4.873 1.158-4.873.639 0 1.52.43 1.96.957zM16.802 72.756c3.284 3.272.957 8.935-3.67 8.935-2.722 0-5.296-2.566-5.296-5.277 0-2.712 2.574-5.278 5.296-5.278 1.29 0 2.646.599 3.67 1.62zm18.506.36 1.027 1.978H21.172l-.99-1.979-.991-1.979H34.282l1.026 1.98zm-24.825.659c-.728.725-1.323 1.913-1.323 2.639 0 1.699 2.266 3.958 3.972 3.958 1.705 0 3.972-2.26 3.972-3.958 0-.726-.596-1.913-1.324-2.64-.729-.725-1.92-1.319-2.648-1.319-.729 0-1.92.594-2.649 1.32zm3.677 2.036c.682 1.1-.852 2.362-1.765 1.452-.764-.762-.286-2.169.737-2.169.32 0 .783.323 1.028.717z" fill="#3250A5"/></svg>