<svg width="90" height="90" fill="none" xmlns="http://www.w3.org/2000/svg"><path fill-rule="evenodd" clip-rule="evenodd" d="M29.583 1.853c-1.878 2.387-1.84 3.073.422 7.487 1.033 2.017 2.162 5.092 2.507 6.832.972 4.894 1.867 15.762 1.343 16.319-.717.762-3.56-3.787-5.456-8.729C24.508 13.624 22.283 11.7 14.94 12.12c-4.01.23-4.64.492-7.212 3.002-1.644 1.606-3.4 4.312-4.22 6.502C1.74 26.357 0 36.209 0 41.514c0 12.224 6.534 29.182 13.205 34.27 1.964 1.499 3.397 1.927 7.108 2.13 6.35.347 8.654-1.216 12.232-8.305 1.464-2.9 2.466-4.64 2.225-3.867-.985 3.173-1.149 6.003-.46 7.977.502 1.44.503 2.981.003 4.95-.946 3.726-.187 7.552 1.913 9.652C37.774 89.869 38.458 90 45 90c6.542 0 7.226-.13 8.774-1.68 2.1-2.099 2.858-5.925 1.913-9.65-.5-1.97-.499-3.51.003-4.95.689-1.975.525-4.805-.46-7.978-.24-.773.761.967 2.225 3.867 3.578 7.089 5.882 8.652 12.232 8.306 3.712-.204 5.144-.632 7.108-2.132C83.465 70.697 90 53.739 90 41.516c0-5.306-1.738-15.158-3.51-19.891-.818-2.19-2.575-4.896-4.22-6.502-2.57-2.51-3.2-2.772-7.211-3.002-7.343-.42-9.568 1.505-13.457 11.642-1.896 4.942-4.74 9.49-5.457 8.729-.524-.557.37-11.425 1.343-16.32.345-1.74 1.474-4.814 2.508-6.831 2.26-4.414 2.3-5.1.421-7.487C59.117.199 58.481 0 54.503 0c-4.668 0-5.353.425-8.624 5.355-.86 1.297-.897 1.297-1.758 0C40.851.425 40.165 0 35.497 0c-3.978 0-4.614.199-5.914 1.853zm9.47 5.937c.633 1.225 2.166 2.602 3.533 3.173 2.097.876 2.731.876 4.828 0 1.367-.57 2.9-1.948 3.534-3.173.884-1.71 1.577-2.165 3.292-2.165h2.172l-1.276 1.934c-.702 1.063-1.793 3.808-2.423 6.099l-1.148 4.165h-13.13l-1.148-4.165c-.63-2.291-1.72-5.036-2.422-6.1l-1.277-1.933h2.172c1.715 0 2.408.456 3.292 2.165zm-20.457 9.774c.997.379 2.11 1.407 2.475 2.285.365.878 1.661 4.06 2.881 7.074C28.228 37.483 35.933 43.58 45 43.58c9.065 0 16.836-6.194 21.092-16.81 3.34-8.335 3.644-8.773 6.598-9.508 5.09-1.269 7.859 1.752 10.28 11.217 1.727 6.755 1.886 17.894.34 23.83-3.07 11.787-8.946 20.816-13.547 20.816-4.043 0-5.353-1.186-8.406-7.61C56.52 55.334 51.704 51.086 45 51.086c-6.695 0-11.492 4.226-16.399 14.447-3.083 6.422-4.373 7.593-8.364 7.593-4.664 0-10.555-9.157-13.642-21.21C4.997 45.678 5.56 32.391 7.706 25.72c2.432-7.564 5.805-10.09 10.89-8.157zm32.6 7.924-.22 2.285H39.024l-.22-2.285-.22-2.285h12.834l-.22 2.285zm-39.09.716c-2.774 2.953-1.575 8.052 1.747 7.422.768-.145 1.35-.98 1.483-2.125.168-1.454.65-1.935 2.11-2.103 1.583-.183 1.89-.56 1.89-2.328 0-1.96-.2-2.124-2.835-2.318-2.236-.164-3.164.142-4.395 1.452zm61.898.277c-.483.196-.879 1.08-.879 1.966 0 1.228-.502 1.712-2.11 2.034-1.665.333-2.109.79-2.109 2.172 0 3.417 4.753 4.078 7.752 1.08 2.29-2.29 1.537-7.855-1.037-7.662-.406.03-1.133.215-1.617.41zM51.19 35.25c.178 1.533-.172 1.986-2.038 2.636-4.705 1.64-10.481.356-10.481-2.33 0-.864.223-1.794.495-2.066.272-.273 3.04-.404 6.152-.293 5.528.197 5.662.244 5.872 2.053zm-40.906 5.903c-1.68 4.376 1.11 8.308 5.63 7.937 2.501-.205 2.718-.39 2.718-2.332 0-1.767-.307-2.145-1.89-2.328-1.463-.169-1.941-.648-2.11-2.11-.168-1.447-.651-1.94-2.063-2.104-1.201-.14-1.997.187-2.285.937zm18.241 3.545c-.607.609-1.104 1.523-1.104 2.034 0 .51-.756 1.118-1.68 1.35-3.088.775-3.079 4.313.014 5.09 3.545.89 7.29-2.215 7.29-6.046 0-1.355-1.732-3.532-2.812-3.532-.33 0-1.1.497-1.708 1.104zm27.292.67s-1.985 3.636-.097 4.825c.916.577 1.606.537 2.719-.158 1.07-.669 1.707-.716 2.252-.17 1.495 1.493 3.94.878 4.44-1.118.377-1.503.09-2.206-1.432-3.516-2.53-2.177-7.882.137-7.882.137zm19.885-1.305c-.258.257-.469 1.185-.469 2.062 0 1.216-.458 1.647-1.933 1.817-1.506.173-1.982.64-2.152 2.108-.42 3.64 4.556 4.385 7.581 1.137 1.58-1.695 1.902-5.43.582-6.75-.918-.918-2.863-1.121-3.609-.374zM49.598 57.679c.565.469 1.027 1.763 1.027 2.875v2.024h-11.34l.222-2.269c.152-1.573.759-2.552 1.977-3.191 1.986-1.042 6.563-.725 8.114.561zm-32.074 2.736c-2.282 2.281-2.664 4.97-.95 6.684 1.307 1.307 1.4 1.318 3.16.376.748-.4 1.36-1.28 1.36-1.955 0-.718.875-1.557 2.11-2.024 2.329-.879 2.693-2.342 1.004-4.032-1.714-1.713-4.402-1.331-6.684.95zm50.393.23c-2.548 2.277-3.009 4.966-1.165 6.81 1.184 1.184 1.763 1.333 2.874.74.764-.41 1.39-1.297 1.39-1.972 0-.718.875-1.557 2.109-2.023 2.223-.84 2.791-2.768 1.266-4.294-1.346-1.346-4.551-.98-6.474.739zm-17.644 10.02v2.812H45c-5.269 0-5.273-.002-5.502-1.993-.425-3.72.085-4.066 5.668-3.84l5.107.208v2.812zm0 11.25v2.812H45c-5.269 0-5.273-.002-5.502-1.993-.425-3.72.085-4.066 5.668-3.84l5.107.208v2.812z" fill="#3250A5"/></svg>