<svg width="102" height="102" fill="none" xmlns="http://www.w3.org/2000/svg"><path fill-rule="evenodd" clip-rule="evenodd" d="M14.483 1.527C9.27 4.702 9.396 3.867 9.396 34.922c0 30.69.065 31.174 4.553 34.135 1.863 1.229 4.283 1.533 14.424 1.811l12.185.335v2.5c0 1.742-.726 3.182-2.397 4.757-1.941 1.83-2.397 2.912-2.397 5.689 0 4.343.168 4.392 15.181 4.392s15.181-.05 15.181-4.392c0-2.777-.456-3.86-2.397-5.689-1.671-1.575-2.397-3.015-2.397-4.758v-2.499l12.185-.335c18.053-.496 18.977-1.402 18.977-18.595 0-9.2-.193-10.91-1.28-11.326-2.184-.838-2.69 1.39-2.703 11.91-.01 9.1-.18 10.342-1.61 11.77-1.548 1.546-2.663 1.595-35.956 1.595-33.293 0-34.407-.05-35.956-1.596-1.537-1.535-1.598-2.66-1.598-29.464V7.295l2.105-1.653c2.054-1.614 2.926-1.655 35.449-1.655 41.002 0 37.402-1.24 37.73 13.005.216 9.41.284 9.744 2.021 9.99 1.785.254 1.798.181 1.798-10.066 0-9.257-.172-10.538-1.668-12.438C87.279-.026 87.48-.003 50.786 0 18.922.003 16.842.09 14.482 1.527zm4.158 7.702c-1.087 1.087-1.255 4.59-1.255 26.233 0 22.262.144 25.098 1.322 26.075 1.949 1.615 62.526 1.615 64.474 0 1.178-.977 1.322-3.813 1.322-26.075 0-21.644-.168-25.146-1.255-26.233-1.099-1.096-5.144-1.253-32.304-1.253-27.16 0-31.205.157-32.304 1.253zM80.51 35.104v23.14H21.38V11.964H80.51v23.14zM25.66 17.165c-.806 2.098.813 2.886 5.395 2.625 3.695-.21 4.31-.472 4.31-1.84 0-1.384-.614-1.628-4.605-1.836-3.652-.19-4.706.028-5.1 1.051zm7.82 12.286c-4.457 5.668-8.104 10.785-8.104 11.37 0 1.148 3.418 4.056 8.122 6.913 9.47 5.751 25.424 5.751 34.895 0 4.703-2.857 8.12-5.766 8.12-6.913 0-.91-15.763-21.675-16.454-21.675-.136 0-2.242.519-4.68 1.153-3.867 1.006-5.001 1.006-8.868 0-2.438-.634-4.544-1.153-4.68-1.153-.135 0-3.893 4.638-8.35 10.305zm-8.104-3.922c0 1.314.414 1.648 1.798 1.453.989-.14 1.798-.794 1.798-1.453 0-.658-.81-1.311-1.798-1.452-1.384-.195-1.798.14-1.798 1.452zm25.569-.492c.66 0 2.723-.252 4.587-.56l3.388-.56 6.417 8.105c7.353 9.288 7.353 9.282-.455 12.974a32.565 32.565 0 0 1-27.874 0c-7.808-3.692-7.808-3.686-.455-12.974l6.417-8.105 3.388.56c1.864.308 3.928.56 4.587.56zm38.086 8.812c-.58 1.509 1.216 2.947 2.607 2.088 1.324-.817.553-3.226-1.031-3.226-.626 0-1.335.512-1.576 1.138zM56.538 73.403v2.394H45.352v-4.788h11.186v2.394zm4.635 8.138c.527.527.958 1.245.958 1.596s-5.034.639-11.186.639-11.186-.288-11.186-.639c0-.35.431-1.069.959-1.596 1.322-1.32 19.132-1.32 20.454 0zm-55.545.4c-.974.188-2.718 1.466-3.875 2.84-2.63 3.12-2.27 7.242.869 9.966l2.07 1.795 31.716.03 31.716.031 1.613 2.563 1.614 2.562 11.95.222c13.224.246 15.772-.316 17.62-3.885 1.702-3.287 1.436-5.18-1.128-8.046l-2.289-2.558-9.654-.344c-13.175-.469-16.706.125-18.399 3.096l-1.327 2.329-31.202.006c-32.388.004-33.12-.068-33.12-3.301 0-2.858 3.08-3.876 11.717-3.876 8.451 0 10.682-.83 7.83-2.913-1.416-1.034-13.258-1.38-17.721-.517zm24.127 1.062c-.31.501-.188 1.287.272 1.746 1.073 1.072 3.577.137 3.14-1.174-.444-1.333-2.706-1.713-3.412-.572zm59.543 11.971v3.22l-8.19-.228-8.19-.227-.248-2.992-.248-2.993h16.876v3.22zm8.304-1.424c1.13 1.8-.204 4.089-2.593 4.444-1.52.226-1.716-.122-1.716-3.048s.196-3.274 1.716-3.048c.944.14 2.11.883 2.593 1.652z" fill="#C7D6FF"/><path fill-rule="evenodd" clip-rule="evenodd" d="M14.483 1.527C9.27 4.702 9.396 3.867 9.396 34.922c0 30.69.065 31.174 4.554 34.135 1.862 1.229 4.282 1.533 14.423 1.811l12.185.335v2.5c0 1.742-.726 3.182-2.397 4.757-1.941 1.83-2.397 2.912-2.397 5.689 0 4.343.168 4.392 15.181 4.392s15.182-.05 15.182-4.392c0-2.777-.457-3.86-2.397-5.689-1.672-1.575-2.398-3.015-2.398-4.758v-2.499l12.185-.335c18.053-.496 18.977-1.402 18.977-18.595 0-9.2-.193-10.91-1.279-11.326-2.185-.838-2.691 1.39-2.704 11.91-.01 9.1-.18 10.342-1.61 11.77-1.548 1.546-2.663 1.595-35.956 1.595-33.293 0-34.407-.05-35.956-1.596-1.537-1.535-1.598-2.66-1.598-29.464V7.295l2.106-1.653c2.053-1.614 2.926-1.655 35.448-1.655 41.002 0 37.402-1.24 37.73 13.005.216 9.41.284 9.744 2.022 9.99 1.784.254 1.797.181 1.797-10.066 0-9.257-.171-10.538-1.668-12.438C87.279-.026 87.48-.003 50.786 0 18.923.003 16.842.09 14.482 1.527zm4.159 7.702c-1.088 1.087-1.256 4.59-1.256 26.233 0 22.262.144 25.098 1.322 26.075 1.949 1.615 62.526 1.615 64.475 0 1.177-.977 1.321-3.813 1.321-26.075 0-21.644-.168-25.146-1.255-26.233-1.099-1.096-5.144-1.253-32.304-1.253-27.16 0-31.205.157-32.303 1.253zm61.867 25.875v23.14H21.381V11.964H80.51v23.14zm-47.028-5.653c-4.458 5.668-8.105 10.785-8.105 11.37 0 1.148 3.418 4.056 8.122 6.913 9.47 5.751 25.424 5.751 34.895 0 4.703-2.857 8.12-5.766 8.12-6.913 0-.91-15.763-21.675-16.454-21.675-.136 0-2.241.519-4.68 1.153-3.866 1.006-5.001 1.006-8.868 0-2.438-.634-4.544-1.153-4.68-1.153-.135 0-3.893 4.638-8.35 10.305zm17.464-4.414c.66 0 2.723-.252 4.587-.56l3.388-.56 6.417 8.105c7.353 9.288 7.353 9.282-.455 12.974a32.565 32.565 0 0 1-27.874 0c-7.808-3.692-7.807-3.686-.455-12.974l6.417-8.105 3.388.56c1.864.308 3.928.56 4.587.56zm5.593 48.366v2.394H45.352v-4.788h11.186v2.394zm4.635 8.138c.527.527.959 1.245.959 1.596s-5.034.639-11.187.639c-6.152 0-11.186-.288-11.186-.639 0-.35.431-1.069.959-1.596 1.322-1.32 19.132-1.32 20.455 0z" fill="#3250A5"/></svg>