<svg width="93" height="84" fill="none" xmlns="http://www.w3.org/2000/svg"><path fill-rule="evenodd" clip-rule="evenodd" d="M14.99 2.64C5.05 7.75.116 16.12.003 28.068c-.034 3.613.192 7.472.501 8.576l.564 2.007h14.337l2.513-5.176c2.52-5.191 4.122-6.827 5.989-6.114.55.21 3.118 4.644 5.706 9.851 2.588 5.208 4.89 9.468 5.117 9.468.226 0 2.529-4.26 5.116-9.468 6.191-12.456 6.89-12.707 11.206-4.014l2.708 5.453h9.576c9.864 0 12.408.574 12.408 2.8 0 2.721-1.396 3.04-13.338 3.04h-11.58l-1.975-4.015c-1.087-2.208-2.16-4.014-2.385-4.014-.225 0-2.638 4.456-5.36 9.901-6.454 12.904-6.429 12.905-13.246-.376l-5.04-9.818-1.833 3.614c-1.008 1.986-2.2 3.854-2.65 4.15-.45.294-4.039.54-7.974.547l-7.156.01 1.402 2.738c5.607 10.941 19.946 24.354 35.552 33.257L46.322 84l3.176-1.605c5.285-2.67 16.809-10.55 21.646-14.802 9.89-8.694 16.299-17.275 19.846-26.574 2.601-6.821 2.69-17.471.197-23.785-2.606-6.599-6.894-11.31-13.28-14.595C72.642-.067 72.24-.155 66.226.09 58.896.384 55 1.985 49.754 6.854l-3.417 3.171-3.24-3.14C38.137 2.084 34.038.388 26.67.089c-6.014-.243-6.417-.155-11.68 2.551z" fill="#3250A5"/></svg>