<svg width="79" height="93" fill="none" xmlns="http://www.w3.org/2000/svg"><path fill-rule="evenodd" clip-rule="evenodd" d="M29.588.988c-7 3.028-9.31 12.19-4.697 18.625 1.607 2.243 1.612 2.293.137 1.51-2.105-1.12-5.685-1.015-8.123.236-3.195 1.642-10.147 9.55-12.548 14.273C.408 43.405 0 46.38 0 67.402c0 18.251.073 19.276 1.52 21.295 2.983 4.16 8.07 5.414 11.87 2.925 4.473-2.93 4.498-3.054 4.897-24.442.346-18.546.455-19.786 2.001-22.658.9-1.671 1.937-3.224 2.307-3.45.368-.228 2.43.4 4.582 1.396 2.151.994 5.146 1.812 6.654 1.816l2.743.007.016 9.265c.013 7.448.282 9.846 1.374 12.233 1.324 2.897 1.324 2.99-.016 3.821-1.24.77-1.374 1.866-1.374 11.294 0 8.052.234 10.633 1.022 11.283 1.56 1.287 33.808.958 36.409-.37C78.233 89.656 79 87.457 79 77.505c0-8.51-.126-9.31-2.036-12.942-1.65-3.136-2.78-4.26-5.936-5.897-3.362-1.744-4.744-2.023-10.033-2.023h-6.134l-.032-4.905c-.018-2.698-.45-6.065-.96-7.482l-.927-2.577 2.577 1.306c5.814 2.944 13.036.59 15.983-5.21 2.095-4.122 2.08-6.972-.054-10.992-3.96-7.457-14.204-8.68-19.578-2.335l-1.826 2.155-8.014-.43c-4.41-.235-8.674-.823-9.48-1.306-1.292-.776-1.091-.882 1.72-.901 10.592-.074 16.19-11.732 9.35-19.472C39.83.21 34.48-1.129 29.588.988zm7.017 5.517c.354 0 1.315.716 2.135 1.59 3.316 3.537.583 10.037-4.22 10.037-3.061 0-5.992-2.943-5.992-6.016 0-3.31 3.768-6.762 6.46-5.917.536.169 1.264.306 1.617.306zm-7.711 23.133c4.49 2.277 5.974 2.646 12.069 2.993 6.561.375 6.962.49 7.188 2.072.449 3.143-.955 3.775-8.393 3.775-6.422 0-7.22-.171-12.029-2.577-2.833-1.418-5.705-2.4-6.382-2.187-1.933.614-5.362 5.346-7.368 10.168-1.761 4.231-1.845 5.138-2.113 22.935-.233 15.474-.462 18.671-1.389 19.388-1.169.904-3.16.509-4.066-.806-.866-1.257-.647-34.08.256-38.348 1.581-7.466 6.274-15.197 11.584-19.085 2.896-2.12 3.283-2.06 10.642 1.672zm34.702-2.445c5.508 2.83 3.08 11.285-3.24 11.285-1.949 0-5.495-3.69-5.495-5.716 0-2.365 1.786-5.062 3.919-5.916 2.188-.878 2.472-.857 4.816.347zM47.64 45.488c.65.776 1.132 3.913 1.37 8.902l.365 7.704 8.778.363c9.82.407 11.813 1.188 13.835 5.42 1.218 2.55 1.677 15.942.6 17.542-.823 1.225-2.592 1.619-4.012.894-1.073-.549-1.28-1.696-1.28-7.121 0-3.557-.32-7.306-.713-8.331-.702-1.834-.835-1.864-8.23-1.866-8.653 0-11.592-1.033-14.267-5.01-1.457-2.167-1.66-3.383-1.66-9.94 0-5.822.254-7.723 1.15-8.613 1.476-1.466 2.803-1.448 4.064.056zm13.073 35.499v6.176H42.426V74.81h18.287v6.177z" fill="#3250A5"/></svg>