<svg width="101" height="101" fill="none" xmlns="http://www.w3.org/2000/svg"><path fill-rule="evenodd" clip-rule="evenodd" d="M1.348 1.496C.134 2.843 0 6.839 0 41.85c0 36.608.086 38.938 1.49 40.213 1.279 1.162 3.74 1.353 17.425 1.353h15.937l-.634 2.658c-1.206 5.045-1.626 5.52-4.892 5.52-4.323 0-6.686 2.141-6.82 6.179L22.399 101H78.6l-.106-3.226c-.134-4.038-2.497-6.179-6.82-6.179-3.266 0-3.686-.475-4.892-5.52l-.634-2.658h16.077c14.543 0 16.208-.143 17.427-1.496 1.214-1.347 1.348-5.343 1.348-40.355 0-36.608-.086-38.938-1.49-40.213C98.16.127 93.566 0 50.358 0 5.218 0 2.624.08 1.348 1.496zm96.394 33.261v31.486H3.258V3.27h94.484v31.486zM7.88 7.898c-.302.304-.55 12.194-.55 26.423 0 19.03.259 26.13.978 26.852 1.53 1.536 83.185 1.402 84.459-.14.659-.796.863-8.634.71-27.192L93.262 7.77l-42.416-.212c-23.328-.116-42.663.037-42.966.341zm82.531 15.819v13.085h-4.463c-4.394 0-4.49-.052-6.14-3.301-1.196-2.353-1.53-4.092-1.162-6.057.887-4.746-3.739-7.888-7.108-4.827-1.597 1.451-1.997 5.17-.696 6.476.462.464.524 1.812.149 3.23-.599 2.26-.95 2.452-4.895 2.682-4 .234-4.28.393-4.74 2.71-.675 3.38-1.376 2.29-3.872-6.025-1.247-4.153-2.587-7.156-3.193-7.156-.574 0-2.28 1.657-3.791 3.68-2.423 3.248-3.115 3.68-5.884 3.68-2.843 0-3.346.344-5.346 3.655-1.216 2.01-2.422 3.666-2.683 3.68-.26.015-.963-.894-1.563-2.018-1.637-3.072-2.934-2.49-4.559 2.044-.805 2.249-1.701 4.09-1.991 4.09-.29 0-.946-2.976-1.458-6.612-.793-5.63-.751-6.792.28-7.827 1.68-1.687 1.514-4.068-.417-6.007-3.304-3.317-7.54-.86-7.222 4.19.095 1.518-.45 3.957-1.21 5.42-1.208 2.32-1.796 2.657-4.621 2.657h-3.237V10.632H90.41v13.085zM25.25 25.76c0 .675-.528 1.227-1.174 1.227-1.36 0-2.279-1.167-1.519-1.931.974-.977 2.693-.527 2.693.704zm50.5-.136c0 .6-.241 1.333-.536 1.629-.736.739-2.813-1.094-2.258-1.994.694-1.128 2.794-.853 2.794.365zM55.796 36.48c1.268 4.129 1.695 6.715 1.19 7.22-2.245 2.255.284 7.822 3.554 7.822 3.507 0 6.036-4.795 3.743-7.097-.483-.485-.758-1.939-.61-3.23.252-2.218.506-2.363 4.557-2.597l4.291-.247.969-3.637c.533-2 1.183-3.637 1.445-3.637.261 0 1.464 2.024 2.673 4.498l2.197 4.498H90.41v18.81H10.59V38.437h4.056c3.912 0 4.115-.116 5.718-3.271.914-1.8 1.943-3.271 2.287-3.271.345 0 1.257 4.309 2.027 9.576 1.919 13.102 3.087 13.978 6.332 4.745 1.966-5.59 2.753-6.395 3.608-3.69.854 2.702 2.458 1.881 5.595-2.862 2.55-3.858 3.337-4.498 5.525-4.498 1.853 0 3.242-.754 5.081-2.76 1.393-1.516 2.638-2.668 2.767-2.558.13.11 1.124 3.094 2.211 6.632zm6.107 10.544c0 .675-.55 1.227-1.222 1.227a1.228 1.228 0 0 1 0-2.453c.672 0 1.222.552 1.222 1.226zM97.742 74.83v5.316H3.258V69.514h94.484v5.316zM63.726 86.075c.205 1.461.65 3.301.991 4.089.576 1.333-.395 1.431-14.217 1.431-13.822 0-14.793-.098-14.217-1.431.34-.788.786-2.628.99-4.09l.373-2.657h25.708l.372 2.658zm11.87 10.632c.256 1.337-1.37 1.43-25.037 1.43-20.547 0-25.309-.205-25.309-1.09 0-.6.25-1.34.555-1.647.305-.306 11.57-.46 25.035-.34 22.568.198 24.503.327 24.755 1.647z" fill="#C7D6FF"/><path fill-rule="evenodd" clip-rule="evenodd" d="M7.88 7.898c-.302.304-.55 12.194-.55 26.423 0 19.03.259 26.13.978 26.852 1.53 1.536 83.185 1.402 84.459-.14.659-.796.863-8.634.71-27.192L93.262 7.77l-42.416-.212c-23.327-.116-42.663.037-42.966.341zm82.531 15.819v13.085h-4.463c-4.394 0-4.489-.052-6.14-3.301-1.196-2.353-1.53-4.092-1.162-6.057.887-4.746-3.739-7.888-7.108-4.827-1.597 1.451-1.997 5.17-.696 6.476.462.464.524 1.812.149 3.23-.599 2.26-.95 2.452-4.895 2.682-4 .234-4.28.393-4.74 2.71-.675 3.38-1.376 2.29-3.872-6.025-1.247-4.153-2.587-7.156-3.193-7.156-.574 0-2.28 1.657-3.791 3.68-2.423 3.248-3.115 3.68-5.884 3.68-2.843 0-3.346.344-5.346 3.655-1.216 2.01-2.422 3.666-2.683 3.68-.26.015-.963-.894-1.563-2.018-1.637-3.072-2.934-2.49-4.559 2.044-.805 2.25-1.701 4.09-1.991 4.09-.29 0-.946-2.976-1.458-6.612-.793-5.63-.751-6.792.28-7.827 1.68-1.687 1.514-4.068-.417-6.007-3.304-3.317-7.54-.86-7.222 4.19.095 1.518-.449 3.957-1.21 5.42-1.208 2.32-1.796 2.657-4.621 2.657h-3.237V10.632H90.41v13.085zM25.25 25.76c0 .675-.528 1.227-1.174 1.227-1.36 0-2.279-1.167-1.519-1.931.974-.977 2.693-.527 2.693.704zm50.5-.136c0 .6-.241 1.333-.536 1.629-.736.739-2.812-1.094-2.258-1.994.694-1.128 2.794-.853 2.794.365zM55.796 36.48c1.268 4.129 1.695 6.715 1.19 7.22-2.245 2.255.284 7.822 3.554 7.822 3.507 0 6.036-4.795 3.743-7.097-.483-.485-.758-1.939-.61-3.23.252-2.218.506-2.363 4.557-2.597l4.291-.247.969-3.637c.533-2 1.183-3.637 1.445-3.637.261 0 1.464 2.024 2.673 4.498l2.197 4.498H90.41v18.81H10.59V38.437h4.056c3.912 0 4.115-.116 5.718-3.271.914-1.8 1.943-3.271 2.287-3.271.345 0 1.257 4.309 2.027 9.576 1.919 13.102 3.087 13.978 6.332 4.745 1.966-5.59 2.753-6.395 3.608-3.69.854 2.702 2.458 1.881 5.595-2.862 2.551-3.858 3.337-4.498 5.525-4.498 1.853 0 3.242-.754 5.081-2.76 1.393-1.516 2.638-2.668 2.767-2.558.13.11 1.124 3.094 2.211 6.632zm6.107 10.544c0 .675-.55 1.227-1.221 1.227a1.228 1.228 0 0 1 0-2.453c.671 0 1.221.552 1.221 1.226z" fill="#3250A5"/></svg>