<svg width="34" height="34" fill="none" xmlns="http://www.w3.org/2000/svg"><path fill-rule="evenodd" clip-rule="evenodd" d="M34 17c0 9.388-7.612 17-17 17S0 26.388 0 17 7.612 0 17 0s17 7.612 17 17zm-16.39-4.45c-1.654.687-4.96 2.111-9.915 4.27-.804.32-1.227.633-1.265.94-.065.518.584.722 1.465.998.12.038.245.077.373.12.868.281 2.035.611 2.642.624.55.011 1.166-.215 1.844-.68 4.63-3.127 7.02-4.706 7.17-4.74.106-.024.254-.056.353.034.099.088.089.255.08.3-.066.273-2.608 2.638-3.925 3.862-.41.38-.701.652-.76.714-.134.137-.27.269-.4.395-.808.776-1.411 1.36.034 2.312.694.458 1.25.836 1.803 1.213.605.412 1.208.823 1.99 1.336.199.13.389.265.574.396.704.503 1.338.954 2.12.883.453-.043.923-.469 1.161-1.743.563-3.011 1.67-9.534 1.927-12.223a2.993 2.993 0 0 0-.028-.668.717.717 0 0 0-.244-.46c-.203-.166-.517-.202-.659-.199-.639.011-1.62.353-6.34 2.316z" fill="#3250A5"/></svg>