<svg width="613" height="97" fill="none" xmlns="http://www.w3.org/2000/svg"><path d="M611 56.629h1.519v3.037H611v-3.037zm-234.52 1.518v1.519a1.52 1.52 0 0 1-1.388-.903l1.388-.616zm-12.324-27.784-1.473-.372a1.519 1.519 0 0 1 2.861-.244l-1.388.616zM352.03 78.407l1.472.371a1.52 1.52 0 0 1-2.923.078l1.451-.45zm-9.145-29.52-1.301-.782a1.518 1.518 0 0 1 2.752.333l-1.451.45zm-5.566 9.26 1.302.783a1.52 1.52 0 0 1-1.302.736v-1.519zm-32.999 0v1.519c-.73 0-1.358-.52-1.492-1.239l1.492-.28zM293.784 2l-1.479-.342a1.518 1.518 0 0 1 2.972.062l-1.493.28zm-21.469 93 1.48.342a1.519 1.519 0 0 1-2.946.054l1.466-.396zm-14.114-52.288-1.366-.663a1.519 1.519 0 0 1 2.833.267l-1.467.396zM245.28 69.338l1.366.663a1.517 1.517 0 0 1-2.635.171l1.269-.834zm-7.355-11.19v-1.52c.511 0 .988.258 1.269.685l-1.269.834zM2 59.665H.481v-3.037H2v3.037zm609 0H376.48v-3.037H611v3.037zm-235.908-.903L362.767 30.98l2.777-1.232 12.325 27.785-2.777 1.231zm-9.464-28.028-12.126 48.043-2.945-.743 12.126-48.044 2.945.744zm-15.049 48.121-9.144-29.52 2.901-.898 9.144 29.52-2.901.898zm-6.392-29.186-5.566 9.26-2.604-1.565 5.567-9.26 2.603 1.565zm-6.868 9.996H304.32v-3.037h32.999v3.037zm-34.491-1.239L292.292 2.28l2.985-.56 10.536 56.147-2.985.56zm-7.564-56.085-21.469 93-2.959-.684 21.469-93 2.959.684zm-24.415 93.054-14.114-52.289 2.933-.791 14.114 52.288-2.933.792zm-11.281-52.021L246.646 70l-2.732-1.326 12.921-26.626 2.733 1.326zm-15.557 26.797-7.355-11.19 2.538-1.669 7.355 11.191-2.538 1.668zm-6.086-10.506H2v-3.037h235.925v3.037z" fill="#3250A5" fill-opacity=".2"/></svg>