<svg width="34" height="34" fill="none" xmlns="http://www.w3.org/2000/svg"><path d="M17 0C7.611 0 0 7.611 0 17s7.611 17 17 17 17-7.611 17-17S26.389 0 17 0zm6.538 19.18s1.503 1.484 1.873 2.173c.011.014.016.028.02.035.15.253.186.45.111.597-.123.244-.549.365-.694.375h-2.656c-.184 0-.57-.047-1.038-.37-.36-.251-.713-.664-1.059-1.066-.515-.598-.961-1.116-1.41-1.116a.54.54 0 0 0-.17.027c-.34.11-.775.595-.775 1.888 0 .404-.318.636-.543.636H15.98c-.414 0-2.573-.146-4.486-2.163-2.34-2.47-4.448-7.425-4.466-7.47-.132-.321.142-.493.441-.493h2.683c.358 0 .475.218.556.41.096.226.447 1.12 1.022 2.126.933 1.64 1.505 2.305 1.964 2.305a.53.53 0 0 0 .246-.063c.599-.333.487-2.467.46-2.91 0-.083-.001-.954-.308-1.372-.22-.303-.593-.418-.82-.46a.973.973 0 0 1 .353-.3c.41-.205 1.15-.236 1.886-.236h.409c.797.011 1.002.063 1.29.135.585.14.598.517.546 1.808a28.23 28.23 0 0 0-.032 1.27c0 .106-.005.22-.005.34-.018.657-.039 1.402.425 1.709.06.038.13.058.202.058.161 0 .646 0 1.96-2.254.405-.726.758-1.48 1.054-2.256.026-.046.104-.188.196-.243a.47.47 0 0 1 .22-.051h3.154c.343 0 .579.051.623.184.078.21-.014.854-1.454 2.803l-.643.848c-1.305 1.711-1.305 1.798.082 3.096z" fill="#3250A5"/></svg>