<svg width="44" height="44" fill="none" xmlns="http://www.w3.org/2000/svg"><rect x="1" y="1" width="42" height="42" rx="21" fill="#fff" stroke="#3250A5" stroke-width="2"/><rect x="5" y="5" width="34" height="34" rx="17" fill="#002CA8" fill-opacity=".1"/><path d="M27.446 23.824c-.268-.148-1.601-.852-1.85-.947-.247-.1-.429-.148-.608.148-.182.294-.697.947-.86 1.145-.157.196-.316.22-.584.074-1.591-.857-2.635-1.528-3.683-3.466-.278-.516.277-.479.795-1.592.089-.196.045-.362-.024-.51-.069-.148-.61-1.581-.835-2.166-.219-.568-.445-.489-.61-.5-.156-.01-.335-.01-.517-.01s-.474.074-.722.362c-.248.294-.948 1-.948 2.433 0 1.433.97 2.821 1.102 3.017.138.195 1.909 3.136 4.627 4.402 1.719.799 2.391.867 3.25.73.524-.085 1.602-.704 1.825-1.388.224-.683.224-1.267.158-1.389-.067-.13-.248-.203-.516-.343z" fill="#3250A5"/><path d="M33.107 17.044a11.504 11.504 0 0 0-2.472-3.679 11.406 11.406 0 0 0-3.679-2.472A11.444 11.444 0 0 0 22.5 10h-.051a11.473 11.473 0 0 0-8.125 3.399 11.396 11.396 0 0 0-2.443 3.665 11.504 11.504 0 0 0-.88 4.49c.007 1.781.433 3.55 1.231 5.131v3.902c0 .652.53 1.18 1.181 1.18h3.904A11.536 11.536 0 0 0 22.45 33h.054c1.537 0 3.029-.298 4.433-.88a11.408 11.408 0 0 0 3.665-2.444A11.474 11.474 0 0 0 34 21.552a11.456 11.456 0 0 0-.893-4.508zm-3.88 11.243A9.499 9.499 0 0 1 22.5 31.05h-.044a9.583 9.583 0 0 1-4.443-1.116l-.216-.116h-3.614v-3.614l-.115-.216a9.584 9.584 0 0 1-1.117-4.443 9.49 9.49 0 0 1 2.762-6.772 9.477 9.477 0 0 1 6.746-2.821h.044c1.283 0 2.528.249 3.701.742a9.49 9.49 0 0 1 3.055 2.053 9.509 9.509 0 0 1 2.795 6.797 9.513 9.513 0 0 1-2.826 6.744z" fill="#3250A5"/></svg>