<svg width="61" height="55" fill="none" xmlns="http://www.w3.org/2000/svg"><path fill-rule="evenodd" clip-rule="evenodd" d="M47.165 2.507c0 1.67-.839 2.507-2.515 2.507-1.957 0-2.516.836-2.516 3.76s.559 3.76 2.516 3.76c1.676 0 2.515.836 2.515 2.506 0 1.95.839 2.507 3.773 2.507s3.773-.556 3.773-2.507c0-1.67.84-2.506 2.516-2.506 1.957 0 2.515-.836 2.515-3.76s-.558-3.76-2.515-3.76c-1.677 0-2.516-.836-2.516-2.507C54.711.557 53.872 0 50.938 0s-3.773.556-3.773 2.507zm5.03 2.507c0 1.67.84 2.506 2.516 2.506 1.384 0 2.516.564 2.516 1.254 0 .689-1.132 1.253-2.516 1.253-1.676 0-2.515.836-2.515 2.507 0 1.378-.566 2.506-1.258 2.506-.692 0-1.258-1.127-1.258-2.506 0-1.671-.838-2.507-2.515-2.507-1.384 0-2.515-.564-2.515-1.253 0-.69 1.131-1.254 2.515-1.254 1.677 0 2.515-.836 2.515-2.506 0-1.38.566-2.507 1.258-2.507.692 0 1.258 1.128 1.258 2.507zM2.97 14.964 0 17.396l8.77 8.848c7.32 7.387 9.453 8.85 12.892 8.85 3.558 0 4.122.43 4.122 3.134 0 2.536-.622 3.133-3.258 3.133-3.69 0-10.578 5.815-10.578 8.93 0 1.124.822 2.723 1.827 3.554 4.21 3.482 10.17-1.59 7.283-6.195-.86-1.372-1.563-2.784-1.563-3.138 0-.354 7.64-.644 16.98-.644 9.338 0 16.979.29 16.979.644 0 .354-.703 1.766-1.564 3.138-2.886 4.606 3.074 9.677 7.284 6.195 1.005-.83 1.826-2.488 1.826-3.681 0-2.915-7.313-8.803-10.934-8.803-2.256 0-2.901-.696-2.901-3.133 0-2.963.377-3.133 6.918-3.133 6.379 0 6.917-.225 6.917-2.883 0-4.244-2.357-5.891-8.427-5.891-4.37 0-5.408-.434-5.408-2.256 0-3.91-2.748-5.264-10.69-5.264-7.943 0-10.692 1.353-10.692 5.264 0 4.155-4.387 2.359-11.32-4.638-3.756-3.791-7.212-6.893-7.678-6.893-.465 0-2.183 1.094-3.815 2.43zm10.645 6.12c4.15 4.2 5.725 6.686 5.163 8.147-.445 1.157-1.272 2.103-1.836 2.103-1.88 0-12.768-13.66-11.944-14.988 1.335-2.15 2.371-1.58 8.617 4.738zm31.035 2.73c0 2.25-.84 2.507-8.176 2.507s-8.175-.257-8.175-2.507.839-2.507 8.175-2.507c7.337 0 8.176.257 8.176 2.507zm13.834 6.894c0 1.59-3 1.88-19.455 1.88-16.777 0-19.356-.26-18.732-1.88.599-1.554 3.966-1.88 19.456-1.88 15.812 0 18.731.293 18.731 1.88zm-13.834 7.52c0 3.02-.294 3.133-8.176 3.133-7.882 0-8.175-.112-8.175-3.133 0-3.02.293-3.133 8.175-3.133 7.882 0 8.176.112 8.176 3.133zM18.934 48.991c1.295 2.09-1.619 4.487-3.355 2.757-1.45-1.446-.543-4.12 1.4-4.12.61 0 1.49.613 1.955 1.363zm38.99 0c1.295 2.09-1.62 4.487-3.355 2.757-1.451-1.446-.543-4.12 1.4-4.12.61 0 1.49.613 1.955 1.363z" fill="#C7D6FF"/><path fill-rule="evenodd" clip-rule="evenodd" d="M2.97 14.964 0 17.395l8.77 8.85c7.32 7.385 9.453 8.85 12.892 8.85 3.558 0 4.122.428 4.122 3.133 0 2.535-.622 3.133-3.258 3.133-3.69 0-10.578 5.815-10.578 8.93 0 1.124.822 2.723 1.827 3.554 4.21 3.482 10.17-1.59 7.283-6.195-.86-1.372-1.563-2.784-1.563-3.138 0-.354 7.64-.644 16.98-.644 9.338 0 16.979.29 16.979.644 0 .354-.703 1.766-1.564 3.138-2.886 4.606 3.074 9.677 7.284 6.195C60.179 53.014 61 51.357 61 50.164c0-2.916-7.313-8.803-10.934-8.803-2.256 0-2.901-.697-2.901-3.133 0-2.963.377-3.134 6.918-3.134 6.379 0 6.917-.224 6.917-2.882 0-4.244-2.357-5.891-8.427-5.891-4.37 0-5.408-.434-5.408-2.256 0-3.91-2.748-5.264-10.69-5.264-7.943 0-10.692 1.353-10.692 5.264 0 4.155-4.387 2.359-11.32-4.638-3.756-3.791-7.212-6.893-7.678-6.893-.465 0-2.183 1.094-3.815 2.43zm10.645 6.12c4.15 4.2 5.725 6.686 5.163 8.147-.445 1.157-1.272 2.103-1.836 2.103-1.88 0-12.768-13.66-11.944-14.988 1.335-2.15 2.371-1.58 8.617 4.738zm31.035 2.73c0 2.25-.84 2.507-8.176 2.507s-8.175-.257-8.175-2.507.839-2.507 8.175-2.507c7.337 0 8.176.257 8.176 2.507zm13.834 6.894c0 1.59-3 1.88-19.455 1.88-16.777 0-19.356-.26-18.732-1.88.599-1.554 3.966-1.88 19.456-1.88 15.812 0 18.731.293 18.731 1.88zm-13.834 7.52c0 3.02-.294 3.133-8.176 3.133-7.882 0-8.175-.112-8.175-3.133 0-3.02.293-3.134 8.175-3.134 7.882 0 8.176.113 8.176 3.134zM18.934 48.99c1.295 2.09-1.619 4.487-3.355 2.757-1.45-1.446-.543-4.12 1.4-4.12.61 0 1.49.613 1.955 1.363zm38.99 0c1.295 2.09-1.62 4.487-3.355 2.757-1.451-1.446-.543-4.12 1.4-4.12.61 0 1.49.613 1.955 1.363z" fill="#3250A5"/></svg>