<svg width="62" height="50" fill="none" xmlns="http://www.w3.org/2000/svg"><path fill-rule="evenodd" clip-rule="evenodd" d="M21.35 1.48c-.817.824-1.485 2.508-1.485 3.744 0 1.943-1.137 2.247-8.413 2.247-4.894 0-9.034.626-9.898 1.497-2.072 2.09-2.072 37.348 0 39.439 2.106 2.124 56.786 2.124 58.892 0 2.072-2.09 2.072-37.348 0-39.439-.864-.87-5.004-1.497-9.898-1.497-7.276 0-8.413-.304-8.413-2.247 0-1.236-.668-2.92-1.485-3.744-1.956-1.973-17.344-1.973-19.3 0zm18.31 3.494c0 2.26-.825 2.497-8.66 2.497s-8.66-.238-8.66-2.497.825-2.496 8.66-2.496 8.66.237 8.66 2.496zm19.796 8.737c0 2.874-.558 3.744-2.402 3.744-1.32 0-2.745-.562-3.166-1.248-.992-1.62-7.668-1.62-8.66 0-1.007 1.644-27.449 1.644-28.456 0-.992-1.62-7.668-1.62-8.66 0-.421.686-1.845 1.248-3.167 1.248-1.843 0-2.401-.87-2.401-3.744V9.967h56.912v3.744zm-44.54 4.992c0 .687-1.113 1.248-2.474 1.248-1.361 0-2.475-.561-2.475-1.248 0-.686 1.114-1.248 2.475-1.248 1.36 0 2.474.562 2.474 1.248zm37.117 0c0 .687-1.114 1.248-2.475 1.248-1.36 0-2.474-.561-2.474-1.248 0-.686 1.113-1.248 2.474-1.248 1.361 0 2.475.562 2.475 1.248zM8.11 21.2c.421.687 2.37 1.248 4.33 1.248 1.962 0 3.91-.561 4.331-1.248 1.007-1.644 27.449-1.644 28.456 0 .992 1.62 7.668 1.62 8.66 0 .421-.686 1.845-1.248 3.166-1.248 2.232 0 2.402.971 2.402 13.729v13.728H2.544V33.68c0-12.758.17-13.729 2.401-13.729 1.322 0 2.746.562 3.166 1.248zm20.415 6.24c0 1.664-.826 2.497-2.475 2.497-1.65 0-2.474.832-2.474 2.496 0 1.663.825 2.496 2.474 2.496 1.65 0 2.475.832 2.475 2.496 0 1.664.825 2.496 2.474 2.496 1.65 0 2.474-.832 2.474-2.496 0-1.664.826-2.496 2.475-2.496 1.65 0 2.474-.833 2.474-2.496 0-1.664-.825-2.496-2.474-2.496-1.65 0-2.475-.833-2.475-2.497 0-1.663-.825-2.496-2.474-2.496-1.65 0-2.474.833-2.474 2.496z" fill="#C7D6FF"/><path fill-rule="evenodd" clip-rule="evenodd" d="M21.35 1.48c-.817.824-1.485 2.508-1.485 3.744 0 1.943-1.137 2.247-8.413 2.247-4.894 0-9.034.626-9.898 1.497-2.072 2.09-2.072 37.348 0 39.439 2.106 2.124 56.786 2.124 58.892 0 2.072-2.09 2.072-37.348 0-39.439-.864-.87-5.004-1.497-9.898-1.497-7.276 0-8.413-.304-8.413-2.247 0-1.236-.668-2.92-1.485-3.744-1.956-1.973-17.344-1.973-19.3 0zm18.31 3.494c0 2.26-.825 2.497-8.66 2.497s-8.66-.238-8.66-2.497.825-2.496 8.66-2.496 8.66.237 8.66 2.496zm19.796 8.737c0 2.874-.558 3.744-2.402 3.744-1.32 0-2.745-.562-3.166-1.248-.992-1.62-7.668-1.62-8.66 0-1.007 1.644-27.449 1.644-28.456 0-.992-1.62-7.668-1.62-8.66 0-.421.686-1.845 1.248-3.167 1.248-1.843 0-2.401-.87-2.401-3.744V9.967h56.912v3.744zm-44.54 4.992c0 .687-1.113 1.248-2.474 1.248-1.361 0-2.475-.561-2.475-1.248 0-.686 1.114-1.248 2.475-1.248 1.36 0 2.474.562 2.474 1.248zm37.117 0c0 .687-1.114 1.248-2.475 1.248-1.36 0-2.474-.561-2.474-1.248 0-.686 1.113-1.248 2.474-1.248 1.361 0 2.475.562 2.475 1.248zM8.11 21.2c.421.687 2.37 1.248 4.33 1.248 1.962 0 3.91-.561 4.331-1.248 1.007-1.644 27.449-1.644 28.456 0 .992 1.62 7.668 1.62 8.66 0 .421-.686 1.845-1.248 3.166-1.248 2.232 0 2.402.971 2.402 13.729v13.728H2.544V33.68c0-12.758.17-13.729 2.401-13.729 1.322 0 2.746.562 3.166 1.248z" fill="#3250A5"/></svg>