<svg width="1352" height="710" fill="none" xmlns="http://www.w3.org/2000/svg"><path d="M44.889 50.913v15.063a1.913 1.913 0 0 1-1.913 1.913H27.913A1.912 1.912 0 0 0 26 69.8V79.2c0 1.056.856 1.912 1.913 1.912h15.063c1.057 0 1.913.856 1.913 1.913v15.064c0 1.056.856 1.912 1.912 1.912H56.2a1.912 1.912 0 0 0 1.912-1.912V83.024c0-1.057.856-1.913 1.913-1.913h15.064A1.912 1.912 0 0 0 77 79.2V69.8a1.912 1.912 0 0 0-1.912-1.912H60.024a1.913 1.913 0 0 1-1.913-1.913V50.913A1.912 1.912 0 0 0 56.2 49H46.8a1.912 1.912 0 0 0-1.912 1.913zM187.889 642.912v15.064a1.912 1.912 0 0 1-1.913 1.913h-15.064a1.912 1.912 0 0 0-1.912 1.912v9.398c0 1.056.856 1.912 1.912 1.912h15.064c1.057 0 1.913.856 1.913 1.913v15.064c0 1.056.856 1.912 1.912 1.912h9.398a1.912 1.912 0 0 0 1.912-1.912v-15.064c0-1.057.856-1.913 1.913-1.913h15.064a1.912 1.912 0 0 0 1.912-1.912v-9.398a1.912 1.912 0 0 0-1.912-1.912h-15.064a1.912 1.912 0 0 1-1.913-1.913v-15.064a1.912 1.912 0 0 0-1.912-1.912h-9.398a1.912 1.912 0 0 0-1.912 1.912zM793.889 632.912v15.064a1.912 1.912 0 0 1-1.913 1.913h-15.064a1.912 1.912 0 0 0-1.912 1.912v9.398c0 1.056.856 1.912 1.912 1.912h15.064c1.057 0 1.913.856 1.913 1.913v15.064c0 1.056.856 1.912 1.912 1.912h9.398a1.912 1.912 0 0 0 1.912-1.912v-15.064c0-1.057.856-1.913 1.913-1.913h15.064a1.912 1.912 0 0 0 1.912-1.912v-9.398a1.912 1.912 0 0 0-1.912-1.912h-15.064a1.912 1.912 0 0 1-1.913-1.913v-15.064a1.912 1.912 0 0 0-1.912-1.912h-9.398a1.912 1.912 0 0 0-1.912 1.912zM1157.89 660.912v15.064c0 1.057-.86 1.913-1.91 1.913h-15.07c-1.05 0-1.91.856-1.91 1.912v9.398c0 1.056.86 1.912 1.91 1.912h15.07c1.05 0 1.91.856 1.91 1.913v15.064c0 1.056.86 1.912 1.91 1.912h9.4c1.05 0 1.91-.856 1.91-1.912v-15.064c0-1.057.86-1.913 1.91-1.913h15.07c1.05 0 1.91-.856 1.91-1.912v-9.398c0-1.056-.86-1.912-1.91-1.912h-15.07c-1.05 0-1.91-.856-1.91-1.913v-15.064c0-1.056-.86-1.912-1.91-1.912h-9.4c-1.05 0-1.91.856-1.91 1.912zM1319.89 528.912v15.064c0 1.057-.86 1.913-1.91 1.913h-15.07c-1.05 0-1.91.856-1.91 1.912v9.398c0 1.056.86 1.912 1.91 1.912h15.07c1.05 0 1.91.856 1.91 1.913v15.064c0 1.056.86 1.912 1.91 1.912h9.4c1.05 0 1.91-.856 1.91-1.912v-15.064c0-1.057.86-1.913 1.91-1.913h15.07c1.05 0 1.91-.856 1.91-1.912v-9.398c0-1.056-.86-1.912-1.91-1.912h-15.07c-1.05 0-1.91-.856-1.91-1.913v-15.064c0-1.056-.86-1.912-1.91-1.912h-9.4c-1.05 0-1.91.856-1.91 1.912zM187.889 136.912v15.064a1.912 1.912 0 0 1-1.913 1.913h-15.064a1.912 1.912 0 0 0-1.912 1.912v9.398c0 1.056.856 1.912 1.912 1.912h15.064c1.057 0 1.913.856 1.913 1.913v15.064c0 1.056.856 1.912 1.912 1.912h9.398a1.912 1.912 0 0 0 1.912-1.912v-15.064c0-1.057.856-1.913 1.913-1.913h15.064a1.912 1.912 0 0 0 1.912-1.912v-9.398a1.912 1.912 0 0 0-1.912-1.912h-15.064a1.912 1.912 0 0 1-1.913-1.913v-15.064a1.912 1.912 0 0 0-1.912-1.912h-9.398a1.912 1.912 0 0 0-1.912 1.912zM1010.89 24.913v15.063c0 1.057-.86 1.913-1.91 1.913h-15.068A1.912 1.912 0 0 0 992 43.8V53.2c0 1.056.856 1.912 1.912 1.912h15.068c1.05 0 1.91.856 1.91 1.913v15.064c0 1.056.86 1.912 1.91 1.912h9.4c1.05 0 1.91-.856 1.91-1.912V57.024c0-1.057.86-1.913 1.91-1.913h15.07c1.05 0 1.91-.856 1.91-1.912V43.8c0-1.056-.86-1.912-1.91-1.912h-15.07c-1.05 0-1.91-.856-1.91-1.913V24.913c0-1.057-.86-1.913-1.91-1.913h-9.4c-1.05 0-1.91.856-1.91 1.913zM1293.89 70.912v15.064c0 1.057-.86 1.913-1.91 1.913h-15.07c-1.05 0-1.91.856-1.91 1.912V99.2c0 1.056.86 1.912 1.91 1.912h15.07c1.05 0 1.91.856 1.91 1.913v15.064c0 1.056.86 1.912 1.91 1.912h9.4c1.05 0 1.91-.856 1.91-1.912v-15.064c0-1.057.86-1.913 1.91-1.913h15.07c1.05 0 1.91-.856 1.91-1.912V89.8c0-1.056-.86-1.912-1.91-1.912h-15.07c-1.05 0-1.91-.856-1.91-1.913V70.912c0-1.056-.86-1.912-1.91-1.912h-9.4c-1.05 0-1.91.856-1.91 1.912zM318.889 17.913v15.063a1.912 1.912 0 0 1-1.913 1.913h-15.064A1.912 1.912 0 0 0 300 36.8V46.2c0 1.056.856 1.912 1.912 1.912h15.064c1.057 0 1.913.856 1.913 1.913v15.064c0 1.056.856 1.912 1.912 1.912h9.398a1.912 1.912 0 0 0 1.912-1.912V50.024c0-1.057.856-1.913 1.913-1.913h15.064A1.912 1.912 0 0 0 351 46.2V36.8a1.912 1.912 0 0 0-1.912-1.912h-15.064a1.912 1.912 0 0 1-1.913-1.913V17.913A1.912 1.912 0 0 0 330.199 16h-9.398a1.912 1.912 0 0 0-1.912 1.913zM19.889 553.912v15.064a1.912 1.912 0 0 1-1.913 1.913H2.913A1.912 1.912 0 0 0 1 572.801v9.398c0 1.056.856 1.912 1.913 1.912h15.063c1.057 0 1.913.856 1.913 1.913v15.064c0 1.056.856 1.912 1.912 1.912H31.2a1.912 1.912 0 0 0 1.912-1.912v-15.064c0-1.057.856-1.913 1.913-1.913h15.063A1.912 1.912 0 0 0 52 582.199v-9.398a1.912 1.912 0 0 0-1.913-1.912H35.024a1.912 1.912 0 0 1-1.913-1.913v-15.064A1.912 1.912 0 0 0 31.2 552H21.8a1.912 1.912 0 0 0-1.912 1.912zM39.333 320.35v10.633a1.35 1.35 0 0 1-1.35 1.35H27.35a1.35 1.35 0 0 0-1.35 1.35v6.634c0 .745.604 1.35 1.35 1.35h10.633c.746 0 1.35.604 1.35 1.35v10.633c0 .746.605 1.35 1.35 1.35h6.634a1.35 1.35 0 0 0 1.35-1.35v-10.633c0-.746.604-1.35 1.35-1.35H60.65a1.35 1.35 0 0 0 1.35-1.35v-6.634a1.35 1.35 0 0 0-1.35-1.35H50.017a1.35 1.35 0 0 1-1.35-1.35V320.35a1.35 1.35 0 0 0-1.35-1.35h-6.634a1.35 1.35 0 0 0-1.35 1.35zM487.333 621.35v10.633a1.35 1.35 0 0 1-1.35 1.35H475.35a1.35 1.35 0 0 0-1.35 1.35v6.634c0 .745.604 1.35 1.35 1.35h10.633c.746 0 1.35.604 1.35 1.35v10.633c0 .746.605 1.35 1.35 1.35h6.634a1.35 1.35 0 0 0 1.35-1.35v-10.633c0-.746.604-1.35 1.35-1.35h10.633a1.35 1.35 0 0 0 1.35-1.35v-6.634a1.35 1.35 0 0 0-1.35-1.35h-10.633a1.35 1.35 0 0 1-1.35-1.35V621.35a1.35 1.35 0 0 0-1.35-1.35h-6.634a1.35 1.35 0 0 0-1.35 1.35zM1303.33 380.35v10.633c0 .746-.6 1.35-1.35 1.35h-10.63c-.75 0-1.35.605-1.35 1.35v6.634c0 .745.6 1.35 1.35 1.35h10.63c.75 0 1.35.604 1.35 1.35v10.633c0 .746.61 1.35 1.35 1.35h6.64c.74 0 1.35-.604 1.35-1.35v-10.633c0-.746.6-1.35 1.35-1.35h10.63c.75 0 1.35-.605 1.35-1.35v-6.634c0-.745-.6-1.35-1.35-1.35h-10.63c-.75 0-1.35-.604-1.35-1.35V380.35c0-.746-.61-1.35-1.35-1.35h-6.64c-.74 0-1.35.604-1.35 1.35zM1134.33 144.35v10.633c0 .746-.6 1.35-1.35 1.35h-10.63c-.75 0-1.35.605-1.35 1.35v6.634c0 .745.6 1.35 1.35 1.35h10.63c.75 0 1.35.604 1.35 1.35v10.633c0 .746.61 1.35 1.35 1.35h6.64c.74 0 1.35-.604 1.35-1.35v-10.633c0-.746.6-1.35 1.35-1.35h10.63c.75 0 1.35-.605 1.35-1.35v-6.634c0-.745-.6-1.35-1.35-1.35h-10.63c-.75 0-1.35-.604-1.35-1.35V144.35c0-.746-.61-1.35-1.35-1.35h-6.64c-.74 0-1.35.604-1.35 1.35zM854.333 177.35v10.633a1.35 1.35 0 0 1-1.35 1.35H842.35a1.35 1.35 0 0 0-1.35 1.35v6.634c0 .745.604 1.35 1.35 1.35h10.633c.746 0 1.35.604 1.35 1.35v10.633c0 .746.605 1.35 1.35 1.35h6.634a1.35 1.35 0 0 0 1.35-1.35v-10.633c0-.746.604-1.35 1.35-1.35h10.633a1.35 1.35 0 0 0 1.35-1.35v-6.634a1.35 1.35 0 0 0-1.35-1.35h-10.633a1.35 1.35 0 0 1-1.35-1.35V177.35a1.35 1.35 0 0 0-1.35-1.35h-6.634a1.35 1.35 0 0 0-1.35 1.35z" fill="#fff"/></svg>