<svg width="52" height="62" fill="none" xmlns="http://www.w3.org/2000/svg"><path fill-rule="evenodd" clip-rule="evenodd" d="M14.585 1.19c0 .655-3.282 1.359-7.292 1.566L0 3.13V62h52V3.131l-7.293-.375c-4.01-.207-7.292-.911-7.292-1.566C37.415.526 32.365 0 26 0c-6.364 0-11.415.526-11.415 1.19zm20.293 5.073v3.757H17.122V2.505h17.756v3.758zm-20.293 0c0 .689-1.997 1.252-4.439 1.252H5.707V56.364h40.586V7.515h-4.44c-2.44 0-4.438-.563-4.438-1.252 0-.69 2.853-1.253 6.341-1.253h6.342V60.121H1.902V5.01h6.342c3.488 0 6.341.564 6.341 1.253zm0 5.01c0 .742 4.651 1.252 11.415 1.252 6.764 0 11.415-.51 11.415-1.252 0-.69 1.427-1.253 3.17-1.253h3.171V53.86H8.244V10.02h3.17c1.745 0 3.171.564 3.171 1.253zm12.683 6.262c0 .69 2.569 1.253 5.708 1.253 3.139 0 5.707-.564 5.707-1.253s-2.568-1.252-5.707-1.252c-3.14 0-5.708.563-5.708 1.252zm-10.146 3.132c0 1.033-.856 1.878-1.902 1.878-1.047 0-1.903.564-1.903 1.253s.856 1.253 1.902 1.253c1.047 0 1.903.845 1.903 1.878 0 1.034.57 1.88 1.268 1.88.698 0 1.268-.846 1.268-1.88 0-1.033.857-1.878 1.903-1.878s1.902-.564 1.902-1.253-.856-1.252-1.902-1.252c-1.046 0-1.902-.846-1.902-1.88 0-1.033-.571-1.878-1.269-1.878-.697 0-1.268.845-1.268 1.879zm10.146 3.131c0 .689 2.569 1.253 5.708 1.253 3.139 0 5.707-.564 5.707-1.253s-2.568-1.252-5.707-1.252c-3.14 0-5.708.563-5.708 1.252zm0 6.263c0 .689 2.569 1.252 5.708 1.252 3.139 0 5.707-.563 5.707-1.252 0-.69-2.568-1.253-5.707-1.253-3.14 0-5.708.564-5.708 1.253zm-13.95 6.262c0 .752 5.072 1.253 12.682 1.253s12.683-.501 12.683-1.253c0-.751-5.073-1.252-12.683-1.252-7.61 0-12.683.5-12.683 1.252zm0 6.263c0 .751 5.072 1.252 12.682 1.252s12.683-.5 12.683-1.252S33.61 41.333 26 41.333c-7.61 0-12.683.501-12.683 1.253zm0 6.263C13.317 49.6 18.39 50.1 26 50.1s12.683-.501 12.683-1.252c0-.752-5.073-1.253-12.683-1.253-7.61 0-12.683.501-12.683 1.253z" fill="#C7D6FF"/><path fill-rule="evenodd" clip-rule="evenodd" d="M14.585 1.19c0 .655-3.282 1.359-7.292 1.566L0 3.13V62h52V3.131l-7.293-.375c-4.01-.207-7.292-.911-7.292-1.566C37.415.526 32.365 0 26 0c-6.364 0-11.415.526-11.415 1.19zm20.293 5.073v3.757H17.122V2.505h17.756v3.758zm-20.293 0c0 .689-1.997 1.252-4.439 1.252H5.707V56.364h40.586V7.515h-4.44c-2.44 0-4.438-.563-4.438-1.252 0-.69 2.853-1.253 6.341-1.253h6.342V60.121H1.902V5.01h6.342c3.488 0 6.341.564 6.341 1.253zm0 5.01c0 .742 4.651 1.252 11.415 1.252 6.764 0 11.415-.51 11.415-1.252 0-.69 1.427-1.253 3.17-1.253h3.171V53.86H8.244V10.02h3.17c1.745 0 3.171.564 3.171 1.253z" fill="#3250A5"/></svg>