<svg width="50" height="55" fill="none" xmlns="http://www.w3.org/2000/svg"><path fill-rule="evenodd" clip-rule="evenodd" d="M5.704 2.605c0 2.531-.07 2.542-2.422.41C1.95 1.808.48 1.202.014 1.668c-.464.466 10.38 12.088 24.102 25.828S49.464 52.078 49.952 51.59c.487-.489-2.77-4.578-7.238-9.088-8.004-8.076-8.085-8.222-5.358-9.683 6.276-3.363 11.805-16.31 11.805-27.642V0H27.432C5.987 0 5.704.034 5.704 2.605zm41.043 4.043v4.231H28.88c-18.923 0-20.763-.503-20.763-5.681v-2.78H46.747v4.23zm-1.208 8.81c0 3.594-5.214 12.649-8.784 15.254l-3.352 2.446-9.917-9.931-9.918-9.93h15.987c14.548 0 15.984.194 15.984 2.161zM7.635 17.83c1.342 5.79 4.644 10.447 10.498 14.805 5.15 3.837 5.678 4.688 5.678 9.169 0 4.655-.324 5.108-5.62 7.86-3.092 1.605-5.537 3.462-5.433 4.127.114.728 5.948 1.209 14.674 1.209 8.727 0 14.56-.481 14.674-1.209.104-.665-2.34-2.522-5.432-4.128-5.205-2.704-5.62-3.262-5.62-7.555 0-2.55-.575-4.636-1.276-4.636-.755 0-1.125 2.09-.906 5.108.33 4.541.906 5.408 5.2 7.836l4.828 2.73H15.964l4.829-2.73c4.592-2.6 4.859-3.075 5.45-9.682l.62-6.948-4.32-1.166c-5.353-1.443-8.71-4.939-11.886-12.373-2.715-6.357-4.212-7.553-3.022-2.417z" fill="#C7D6FF"/><path fill-rule="evenodd" clip-rule="evenodd" d="M5.704 2.605c0 2.531-.07 2.542-2.422.41C1.95 1.808.48 1.202.014 1.668c-.464.466 10.38 12.088 24.102 25.828S49.464 52.078 49.952 51.59c.487-.489-2.77-4.578-7.238-9.088-8.004-8.076-8.085-8.222-5.358-9.683 6.276-3.363 11.805-16.31 11.805-27.642V0H27.432C5.987 0 5.704.034 5.704 2.605zm41.043 4.043v4.231H28.88c-18.923 0-20.763-.503-20.763-5.681v-2.78H46.747v4.23zm-1.208 8.81c0 3.594-5.214 12.649-8.784 15.254l-3.352 2.446-9.917-9.931-9.918-9.93h15.987c14.548 0 15.984.194 15.984 2.161z" fill="#3250A5"/></svg>