<svg width="60" height="58" fill="none" xmlns="http://www.w3.org/2000/svg"><path fill-rule="evenodd" clip-rule="evenodd" d="M30.104 2.382c0 1.31.54 2.382 1.202 2.382.661 0 1.202-1.072 1.202-2.382S31.967 0 31.306 0c-.661 0-1.202 1.072-1.202 2.382zm-8.187 2.457c.288.859 1.235 1.797 2.103 2.084.902.298 1.352-.149 1.052-1.042-.29-.86-1.237-1.798-2.104-2.084-.901-.298-1.352.148-1.051 1.042zm15.95.005c-.436.698-.503 1.555-.151 1.905.861.853 3.205-.65 3.205-2.055 0-1.522-2.074-1.421-3.054.15zm-9.926 3.731c-.794.786-1.443 2.662-1.443 4.169 0 2.672-.29 2.739-11.778 2.739-7.559 0-12.295.512-13.22 1.43-2 1.98-2 30.89 0 32.87.792.787 2.65 1.43 4.125 1.43 1.628 0 2.983.937 3.446 2.383 1.787 5.581 10.374 5.956 12.854.56 1.243-2.703 2.009-2.943 9.381-2.943s8.138.24 9.38 2.944c2.408 5.236 11.058 5.05 12.762-.274.37-1.153 1.893-2.627 3.387-3.276 2.191-.953 2.788-2.295 3.087-6.96.338-5.256-.203-6.645-5.987-15.374-8.066-12.175-8.724-12.79-13.7-12.79-3.499 0-4.121-.413-4.121-2.74 0-4.873-4.926-7.386-8.173-4.168zm5.552 4.321c.289 1.945-.234 2.587-2.103 2.587-1.612 0-2.488-.77-2.488-2.183 0-4.528 3.927-4.873 4.591-.404zm-15.408-.986c0 .655 1.082 1.19 2.404 1.19 1.322 0 2.404-.535 2.404-1.19 0-.655-1.082-1.191-2.404-1.191-1.322 0-2.404.536-2.404 1.191zm21.634 0c0 .655 1.082 1.19 2.404 1.19 1.322 0 2.404-.535 2.404-1.19 0-.655-1.082-1.191-2.404-1.191-1.322 0-2.404.536-2.404 1.191zm5.409 7.146c.442.709-.99 1.19-3.535 1.19h-4.278v15.387l9.916.347 9.916.345.363 6.253c.407 7.014-1.386 8.217-5.772 3.87-1.322-1.31-3.485-2.381-4.807-2.381-1.322 0-3.486 1.072-4.808 2.382-1.946 1.928-4.006 2.382-10.817 2.382s-8.871-.454-10.817-2.382c-1.322-1.31-3.486-2.382-4.808-2.382-1.322 0-3.485 1.072-4.807 2.382-1.322 1.31-3.756 2.382-5.409 2.382H2.461V17.865h20.962c12.679 0 21.255.47 21.705 1.19zm5.85 8.312c1.74 2.606 3.164 5.018 3.164 5.36 0 .34-3.245.62-7.212.62h-7.21v-5.36c0-5.29.05-5.36 4.046-5.36 3.387 0 4.564.775 7.211 4.74zm-34.095.025c0 1.587-.801 2.382-2.403 2.382-1.323 0-2.404.536-2.404 1.19 0 .656 1.081 1.192 2.403 1.192 1.603 0 2.404.794 2.404 2.382 0 1.31.541 2.382 1.202 2.382.661 0 1.202-1.072 1.202-2.382 0-1.588.802-2.382 2.404-2.382 1.322 0 2.404-.536 2.404-1.191s-1.082-1.191-2.404-1.191c-1.602 0-2.404-.794-2.404-2.382 0-1.31-.54-2.382-1.202-2.382-.66 0-1.202 1.072-1.202 2.382zm2.356 20.785c3.193 3.813-1.496 9.669-5.66 7.07-2.671-1.666-3.324-4.84-1.455-7.07a4.638 4.638 0 0 1 7.115 0zm31.25 0c3.193 3.813-1.497 9.669-5.662 7.07-2.67-1.666-3.323-4.84-1.454-7.07a4.638 4.638 0 0 1 7.115 0z" fill="#C7D6FF"/><path fill-rule="evenodd" clip-rule="evenodd" d="M27.94 8.575c-.793.786-1.442 2.662-1.442 4.169 0 2.672-.29 2.739-11.778 2.739-7.559 0-12.295.512-13.22 1.43-2 1.98-2 30.89 0 32.87.792.787 2.65 1.43 4.125 1.43 1.628 0 2.983.937 3.446 2.383 1.787 5.581 10.374 5.956 12.854.561 1.243-2.704 2.009-2.944 9.381-2.944s8.138.24 9.38 2.944c2.408 5.236 11.058 5.05 12.762-.274.37-1.153 1.893-2.627 3.387-3.276 2.191-.953 2.788-2.295 3.087-6.96.338-5.256-.203-6.645-5.987-15.374-8.066-12.175-8.724-12.79-13.7-12.79-3.499 0-4.121-.413-4.121-2.74 0-4.873-4.926-7.386-8.173-4.168zm5.553 4.321c.289 1.945-.234 2.587-2.103 2.587-1.612 0-2.488-.77-2.488-2.183 0-4.528 3.927-4.872 4.591-.404zm11.635 6.16c.442.709-.99 1.191-3.535 1.191h-4.278v15.386l9.916.347 9.916.345.363 6.253c.407 7.014-1.386 8.217-5.772 3.87-1.322-1.31-3.485-2.381-4.807-2.381-1.322 0-3.486 1.072-4.808 2.382-1.946 1.928-4.006 2.382-10.817 2.382s-8.871-.454-10.817-2.382c-1.322-1.31-3.486-2.382-4.808-2.382-1.322 0-3.485 1.072-4.807 2.382-1.322 1.31-3.756 2.382-5.409 2.382H2.461V17.865h20.962c12.679 0 21.255.47 21.705 1.191zm5.85 8.312c1.74 2.606 3.164 5.018 3.164 5.36 0 .34-3.245.62-7.212.62h-7.21v-5.36c0-5.29.05-5.359 4.046-5.359 3.387 0 4.564.774 7.211 4.739zm-31.739 20.81c3.193 3.813-1.496 9.669-5.66 7.07-2.671-1.666-3.324-4.84-1.455-7.07a4.638 4.638 0 0 1 7.115 0zm31.25 0c3.193 3.813-1.497 9.669-5.662 7.07-2.67-1.666-3.323-4.84-1.454-7.07a4.638 4.638 0 0 1 7.115 0z" fill="#3250A5"/></svg>