<svg width="68" height="50" fill="none" xmlns="http://www.w3.org/2000/svg"><path fill-rule="evenodd" clip-rule="evenodd" d="M3.822 3.827c-4.853 4.59-4.974 6.35-.99 14.416C8.896 30.523 31.576 50 39.813 50c2.485 0 9.829-7.27 9.829-9.728 0-.887-2.825-3.492-6.277-5.791-6.265-4.17-6.284-4.175-10.212-2.297l-3.936 1.882-6.775-6.793-6.775-6.793 1.876-3.947c1.874-3.939 1.87-3.958-2.29-10.24C12.96 2.832 10.36 0 9.477 0c-.884 0-3.429 1.723-5.655 3.827zm9.645 3.693c3.577 5.212 3.588 5.274 1.703 9.236l-1.896 3.988 7.84 7.86 7.839 7.86 3.978-1.9c3.95-1.89 4.013-1.879 9.21 1.708 2.879 1.985 5.234 4 5.234 4.48 0 1.75-6.423 6.975-8.562 6.965-9.302-.045-36.716-27.533-36.761-36.86-.01-2.145 5.2-8.584 6.947-8.584.477 0 2.488 2.361 4.468 5.247z" fill="#3250A5"/><path d="M32.524 17.546v-1.522l3.53-3.634c.788-.827 1.182-1.517 1.182-2.068 0-.404-.128-.729-.384-.975-.246-.246-.566-.37-.96-.37-.778 0-1.354.404-1.728 1.212L32.45 9.184c.325-.709.793-1.25 1.403-1.625a3.772 3.772 0 0 1 2.01-.561c.935 0 1.738.295 2.407.886.67.581 1.005 1.37 1.005 2.364 0 1.073-.566 2.177-1.699 3.309l-2.024 2.024h3.885v1.965h-6.913zm15.623-3.65v1.892h-1.108v1.758h-2.054v-1.758h-4.89v-1.891l3.443-6.692h2.186l-3.427 6.692h2.688v-2.453h2.054v2.453h1.108zm1.537 5.127h-.842l5.91-13.296h.841l-5.909 13.296zM56.28 7.205h6.678v1.728l-3.502 8.613H57.3l3.397-8.391H56.28v-1.95z" fill="#C7D6FF"/></svg>